<svg xmlns="http://www.w3.org/2000/svg" xmlns:xlink="http://www.w3.org/1999/xlink" id="Layer_1" x="0px" y="0px" viewBox="0 0 1133.86 1133.86" style="enable-background:new 0 0 1133.86 1133.86;" xml:space="preserve"> <g> <path d="M88.17,1045.97c-28.43-28.23-42.63-70.19-42.63-125.88V213.77c0-55.69,14.21-97.65,42.63-125.88 c28.42-28.23,70.66-42.34,126.75-42.34h703.45c56.46,0,98.89,14.11,127.32,42.34c28.42,28.23,42.63,70.2,42.63,125.88v706.33 c0,55.31-14.21,97.17-42.63,125.59c-28.43,28.42-70.86,42.63-127.32,42.63H214.92C158.84,1088.32,116.59,1074.2,88.17,1045.97z M303.64,710.1c9.6,0.2,17.66-3.36,24.2-10.66L567.5,449.4l240.24,250.04c6.53,7.3,14.59,10.86,24.2,10.66 c9.6-0.19,17.86-3.93,24.77-11.23c6.53-6.14,9.79-13.83,9.79-23.04s-3.84-17.66-11.52-25.35L613.02,396.4 c-9.99-9.98-20.07-16.61-30.25-19.88c-10.18-3.26-20.36-3.26-30.53,0c-10.18,3.27-20.07,9.89-29.67,19.88L280.02,650.47 c-7.3,7.69-11.05,16.13-11.23,25.35c-0.2,9.22,3.17,16.91,10.08,23.04C285.78,706.16,294.04,709.91,303.64,710.1z"></path> </g> </svg>