<svg xmlns="http://www.w3.org/2000/svg" xmlns:xlink="http://www.w3.org/1999/xlink" id="Layer_1" x="0px" y="0px" viewBox="0 0 150 150" style="enable-background:new 0 0 150 150;" xml:space="preserve"><style type="text/css">	.st0{fill:#FF1E00;}</style><g>	<path class="st0" d="M101.5,107.9L101.5,107.9c-1.1,2.1,0,4.6,2.3,5.2c14.1,3.3,22.1,8.6,22.1,12.9c0,6.7-19.4,15.9-50.9,15.9  s-50.9-9.3-50.9-15.9c0-4.3,8-9.6,22.1-12.9c2.3-0.5,3.5-3.1,2.3-5.2l0,0c-0.8-1.4-2.4-2.1-3.9-1.7c-15.8,3.7-27.7,10.4-27.7,19.9  c0,15,30,23.1,58.1,23.1s58.1-8.1,58.1-23.1c0-9.5-11.8-16.2-27.6-19.8C103.9,105.8,102.3,106.5,101.5,107.9z"></path>	<g>		<circle class="st0" cx="75" cy="44.9" r="20.9"></circle>		<path class="st0" d="M80.1,1.2c-1.3-0.2-2.6-0.3-4-0.3c-0.2,0-0.4,0-0.6,0c-0.2,0-0.4,0-0.6,0c-0.2,0-0.3,0-0.5,0   c-0.2,0-0.4,0-0.6,0c-0.2,0-0.4,0-0.6,0c-1.2,0-2.4,0.1-3.5,0.3C47.7,3.8,30.5,22.6,30.5,45.4c0,7.4,1.8,14.7,5.3,21.1l7,12.7   L56.6,104l3.2,5.8l0.5,0.9l9.2,16.6c0.1,0.2,0.2,0.4,0.4,0.6c1.1,1.6,3,2.6,5,2.7h0.3c2-0.1,3.8-1.1,5-2.7   c0.1-0.2,0.2-0.4,0.4-0.6l9.2-16.6l0.5-0.9l3.2-5.8l13.7-24.7l7-12.7c3.5-6.5,5.3-13.8,5.3-21.1C119.5,22.6,102.2,3.7,80.1,1.2z    M75,71.9c-1.8,0-3.5-0.2-5.1-0.5C57.4,69,48,58,48,44.9c0-13.1,9.4-24.1,21.9-26.5c1.7-0.3,3.4-0.5,5.1-0.5s3.5,0.2,5.1,0.5   c5.5,1,10.4,3.8,14.2,7.6c4.8,4.9,7.7,11.5,7.7,18.9c0,7.3-3,14-7.7,18.9c-3.8,3.9-8.7,6.6-14.2,7.6C78.5,71.7,76.8,71.9,75,71.9z   "></path>	</g></g></svg>