<svg xmlns="http://www.w3.org/2000/svg" viewBox="0 0 132.36 108.87"><defs><style>.cls-1{fill:#3f3f3f;}</style></defs><g id="Layer_2" data-name="Layer 2"><g id="Layer_1-2" data-name="Layer 1"><path class="cls-1" d="M120.44,10.29a9.79,9.79,0,0,0,0-2.22,7.16,7.16,0,0,0-2-4.54A9.34,9.34,0,0,0,114,1.32a21.28,21.28,0,0,0-9,.12V1.39a.94.94,0,0,0-1.8-.54l-7.4,24.87a27.3,27.3,0,0,0-19.6-9l-1.27,0c-5.55-.16-11.3-.33-17,0l-.74,0a70.84,70.84,0,0,0-9.13.93,22.19,22.19,0,0,0-7.37,2.63,21.55,21.55,0,0,0-4.65,3.87L29.13.85a.94.94,0,1,0-1.8.54v.05a21.28,21.28,0,0,0-9-.12A9.29,9.29,0,0,0,13.9,3.53a7.23,7.23,0,0,0-2,4.54,10.25,10.25,0,0,0,.05,2.22C7.75,12.45,1.11,10.72,1,10.7l-1-.27.73.79C3.6,14.34,6.38,26,6.41,26.14v.06l0,.05a5.8,5.8,0,0,0,2.62,1.81c1.52.56,4.05.93,7.71-.33.3-.1.59-.21.9-.34a6.65,6.65,0,0,0,2.13-1.15h0a3.71,3.71,0,0,0,1-2.62,13.22,13.22,0,0,0-.87-3.32,28.63,28.63,0,0,1,6.65.17,47.25,47.25,0,0,1,6.84,1.43l1.2,4c-.19.24-.37.48-.55.73-8.18,11.38-7.51,26-6.39,33.66,0,.24.07.47.11.7a53.33,53.33,0,0,0,4.57,14.89C20,68.6,8.62,50.29,8.62,50.29c4,11.34,8.77,19.11,13.45,24.44A86.49,86.49,0,0,1,5.32,59.82,83.93,83.93,0,0,0,24.58,79.2c-11.5-4-16.31-8.86-16.31-8.86C19.78,82.91,33.94,88.86,43.15,91.59l.7.21,2,.6c.43.14.91.25,1.43.38l1.7.4c.6.16,1.25.26,1.94.39l1.06.19c.36.07.73.14,1.11.18l2.37.32c.83.09,1.68.14,2.56.21s1.78.09,2.71.13,1.87,0,2.83,0,1.94-.06,2.92-.12,2-.16,3-.26l.76-.08L71,94l1.52-.22c1-.14,2-.35,3-.53s2-.44,3-.69,2-.5,2.94-.8l1.45-.43,1.41-.48c.94-.31,1.85-.67,2.75-1,1.79-.69,3.5-1.43,5.08-2.19s3.06-1.53,4.4-2.27a63.48,63.48,0,0,0,6.24-4c.72-.52,1.27-1,1.64-1.26s.56-.47.56-.47-.2.15-.6.41-1,.64-1.75,1.1-1.69,1-2.77,1.6c-.46.26-.95.52-1.46.79.29-.2.59-.41.88-.63l1-.78c.35-.26.66-.54,1-.81.66-.53,1.27-1.1,1.86-1.66s1.12-1.12,1.64-1.65,1-1.07,1.36-1.57c.2-.26.4-.49.58-.72l.5-.68c.31-.41.56-.8.77-1.11a11.54,11.54,0,0,0,.6-1l-.21.22-.6.62-1,1L105.59,76l-.73.67c-.26.22-.51.47-.78.71l-.84.73c-.29.25-.58.51-.89.75l-.92.77c-.31.26-.64.5-1,.76s-.65.52-1,.77l-1,.75c-.66.52-1.37,1-2,1.45l-.34.23c7.23-6.69,10.83-18,9.88-32.17-.64-9.49-3.64-17.75-8.68-24l1.64-5.52a47.81,47.81,0,0,1,6.85-1.43,28.55,28.55,0,0,1,6.64-.17,13.24,13.24,0,0,0-.86,3.32,3.71,3.71,0,0,0,1,2.62h0a6.65,6.65,0,0,0,2.13,1.15c.31.13.6.24.9.34,3.66,1.26,6.19.89,7.7.33a5.79,5.79,0,0,0,2.63-1.81l0-.05v-.06c0-.12,2.81-11.8,5.68-14.92l.73-.79-1,.27C131.25,10.72,124.61,12.45,120.44,10.29ZM125.2,12a20.47,20.47,0,0,0,2.19-.05l.89-.08c-.19.53-.54,1.52-.93,2.7a11.21,11.21,0,0,1-2.64.33C125,13.67,125.13,12.63,125.2,12Zm1.25,5.38c-.32,1-.61,2.06-.84,3a10.69,10.69,0,0,1-2.41.42c.12-.51.25-1,.39-1.45.19-.64.37-1.29.54-1.93l.71.08h.1A5.91,5.91,0,0,0,126.45,17.38ZM124.63,15c-.16.74-.34,1.55-.55,2.37a15,15,0,0,1-2.58-.48c.09-.82.16-1.66.21-2.45l.9.28A7.81,7.81,0,0,0,124.63,15ZM120,10.78a8.63,8.63,0,0,0,1.76.71c0,.52,0,1.58-.13,2.82-1.21-.42-1.61-.77-1.73-1a1.93,1.93,0,0,0,0-.24V12.8A8.72,8.72,0,0,1,120,10.78Zm-2.85,6.49c0-.2-.09-.4-.13-.6,1.74.48,2.22.9,2.66,2.29,0,.26-.06.51-.1.76v.1a12,12,0,0,1-.72,2.76,3.18,3.18,0,0,0-1.21-1.22l-.28-.18A8.29,8.29,0,0,0,117.17,17.27Zm-4-4.51a4.49,4.49,0,0,1,0-.52,14.11,14.11,0,0,1,3.43,1.19,14.35,14.35,0,0,0,.32,3.15c-.54-.15-1.19-.3-2-.49l-1.2-.28c-.18-.05-.38-.08-.58-.12C113.23,14.54,113.26,13.44,113.21,12.76Zm-.06-.6-.48-.09a22.39,22.39,0,0,0-3.8-.32c0-.74.09-1.38.1-1.85a11,11,0,0,1,.19-1.56,19.77,19.77,0,0,1,4.45.67C113.39,10.26,113.2,11.38,113.15,12.16Zm3.56,1.23v-.23c0-.73.1-1.56.18-2.42,2.61,1.84,3,2.65,3,2.71,0,.62,0,1.41,0,2.29A10.88,10.88,0,0,0,116.71,13.39Zm3.23,2.69a3.68,3.68,0,0,0,1.35.77l.15,0a20.9,20.9,0,0,1-.38,2.38c-.08.36-.16.78-.23,1.22a2.14,2.14,0,0,1-1.17-.69A28.26,28.26,0,0,0,119.94,16.08ZM117.79,3.76,118,4a7.19,7.19,0,0,1,1.86,5.54,13.84,13.84,0,0,0-2.54-2.64C117.52,5.49,117.7,4.33,117.79,3.76Zm-.52,3.15c-.15,1.16-.31,2.46-.43,3.72-.37-.26-.78-.53-1.24-.83A8,8,0,0,0,113.69,9c.07-.4.15-.82.23-1.25.16-.85.32-1.72.45-2.53a6.14,6.14,0,0,1,1.92.94C116.65,6.4,117,6.66,117.27,6.91ZM110.8,1.54a16.08,16.08,0,0,1,3,.39c.28.06.54.13.79.21a15.51,15.51,0,0,1-.31,3A19,19,0,0,0,110,4.41C110.36,3.09,110.67,2,110.8,1.54ZM110,4.47c-.31,1.24-.64,2.64-.84,3.8-.72,0-1.42,0-2.06,0l-1.14,0c.26-1.36.48-2.69.66-3.81C107.61,4.41,108.77,4.41,110,4.47Zm-5.9-2.3c.92-.15,2.23-.33,2.85-.41-.06.47-.2,1.42-.38,2.61-1.42,0-2.59.14-3.19.2Zm-1.92,6.41c.74-.08,2.1-.21,3.71-.26-.24,1.22-.5,2.46-.77,3.58a29.74,29.74,0,0,0-4.19.81ZM75.05,20.25c.2.08.45.18.73.32s.61.28,1,.47l.56.3.6.36c.22.12.43.26.65.4s.46.29.68.46A24.31,24.31,0,0,1,82.18,25c.26.24.52.48.77.75s.5.53.75.81.51.57.75.87.5.6.73.93a30,30,0,0,1,2.7,4.23A34,34,0,0,1,90,37.47a40.31,40.31,0,0,1,1.45,5.33,51,51,0,0,1,.8,5.44c.16,1.8.24,3.59.24,5.31,0,.43,0,.86,0,1.28s0,.85,0,1.26c0,.82-.1,1.64-.18,2.42-.16,1.57-.4,3.05-.67,4.4a50.91,50.91,0,0,1-1.76,6.4c-.26.76-.47,1.35-.62,1.75s-.24.61-.24.61l.22-.62c.13-.41.33-1,.56-1.77a49.14,49.14,0,0,0,1.54-6.43c.22-1.35.41-2.82.51-4.38.06-.78.09-1.57.1-2.4,0-.42,0-.82,0-1.25s0-.84,0-1.27c0-1.7-.15-3.46-.35-5.24A44.75,44.75,0,0,0,90.62,43,42.12,42.12,0,0,0,89,37.83c-.14-.42-.32-.83-.49-1.23s-.34-.81-.52-1.21-.37-.78-.56-1.16-.39-.76-.58-1.14A36.87,36.87,0,0,0,84.29,29c-.47-.62-.92-1.22-1.39-1.77-.23-.28-.47-.55-.71-.81L81.84,26l-.35-.37c-.23-.24-.46-.48-.69-.7s-.46-.45-.69-.66l-.66-.61-.64-.55c-.85-.7-1.62-1.29-2.27-1.75-.32-.23-.62-.42-.88-.59l-.36-.24-.3-.19L74.44,20Zm-10.2-2.13c.13,0,.32,0,.57,0a16.44,16.44,0,0,1,2.18.18,18,18,0,0,1,3.31.84,21.27,21.27,0,0,1,4,1.94A26.27,26.27,0,0,1,79,24.3a32.07,32.07,0,0,1,3.82,4.43A37,37,0,0,1,86,34.11a42.6,42.6,0,0,1,2.36,6,49,49,0,0,1,1.52,6.25,56.07,56.07,0,0,1,.72,6.18,56.83,56.83,0,0,1,.07,5.81,46.71,46.71,0,0,1-.52,5.19c-.25,1.59-.57,3-.89,4.31s-.66,2.36-1,3.25-.54,1.59-.71,2.06-.27.73-.27.73l.26-.73c.16-.48.4-1.18.67-2.07A49.14,49.14,0,0,0,90,63.5a44.82,44.82,0,0,0,.43-5.17c0-1.84,0-3.78-.12-5.78a55.56,55.56,0,0,0-.78-6.13,50,50,0,0,0-1.58-6.18,44.21,44.21,0,0,0-2.41-5.9,39.42,39.42,0,0,0-3.16-5.28,30.87,30.87,0,0,0-3.74-4.36,26.64,26.64,0,0,0-4-3.22,21.76,21.76,0,0,0-3.85-2,19.11,19.11,0,0,0-3.21-1,17.12,17.12,0,0,0-2.15-.31c-.25,0-.44,0-.57,0h0Zm-4,.31a19.46,19.46,0,0,1,2,.42,22.59,22.59,0,0,1,3,1,25.83,25.83,0,0,1,3.59,1.9c.63.4,1.27.85,1.92,1.33s1.28,1,1.91,1.6a33,33,0,0,1,3.67,3.93A36.8,36.8,0,0,1,80,33.42a40.93,40.93,0,0,1,2.49,5.37,44.59,44.59,0,0,1,1.7,5.65,48,48,0,0,1,1,5.62c.2,1.84.3,3.63.33,5.32,0,.85,0,1.67,0,2.47s-.09,1.56-.17,2.3a41.42,41.42,0,0,1-1.35,7c-.23.83-.44,1.47-.58,1.9l-.23.67s.07-.23.19-.68.31-1.09.5-1.92a42.19,42.19,0,0,0,1-7c0-.73.06-1.48.07-2.28s0-1.6,0-2.44-.07-1.69-.13-2.57-.17-1.77-.29-2.67a46.71,46.71,0,0,0-1.08-5.52,44,44,0,0,0-1.83-5.48A41.45,41.45,0,0,0,79.06,34a38.53,38.53,0,0,0-3.13-4.62,35.37,35.37,0,0,0-3.51-3.84c-.6-.57-1.2-1.1-1.81-1.59s-1.2-1-1.79-1.37-1.18-.8-1.74-1.14-1.11-.65-1.63-.93a27.37,27.37,0,0,0-2.78-1.28c-.79-.32-1.43-.53-1.87-.67l-.67-.21Zm-1.29.2a20.35,20.35,0,0,1,2,.6,23.85,23.85,0,0,1,3,1.27,29.78,29.78,0,0,1,3.65,2.22A31.88,31.88,0,0,1,72.09,26a37.26,37.26,0,0,1,3.64,4.3A40.15,40.15,0,0,1,81.2,41.21a46.09,46.09,0,0,1,1.51,6,48.25,48.25,0,0,1,.71,6,55.48,55.48,0,0,1,0,5.61c-.08,1.78-.22,3.46-.41,5a42.49,42.49,0,0,1-1.5,7.36c-.26.86-.51,1.53-.68,2l-.28.7.26-.7c.17-.46.4-1.13.65-2a41.67,41.67,0,0,0,1.37-7.36c.16-1.55.27-3.22.31-5a55.28,55.28,0,0,0-.08-5.58,46.47,46.47,0,0,0-2.36-11.85,42.17,42.17,0,0,0-2.39-5.65,41.78,41.78,0,0,0-3.1-5.07,36,36,0,0,0-3.57-4.24,35.05,35.05,0,0,0-3.73-3.28,33.15,33.15,0,0,0-3.52-2.3,30.22,30.22,0,0,0-2.93-1.42c-.83-.34-1.51-.57-2-.72l-.71-.22ZM43.76,22.1l.74-.33c.28-.14.64-.24,1-.39l.62-.22c.22-.08.45-.12.69-.19a12.51,12.51,0,0,1,1.57-.37l.89-.16c.3-.06.62-.07.94-.11s.66-.07,1-.07h1.06a18.34,18.34,0,0,1,4.61.61,21.68,21.68,0,0,1,4.86,1.89A25.43,25.43,0,0,1,66.31,26l1,1,1,1,.25.26.23.28.46.55.46.55c.15.19.29.39.43.58.28.39.58.77.84,1.17l.79,1.2c.26.4.48.82.72,1.23l.35.62.32.63.63,1.25c.18.43.37.86.55,1.28l.27.63.24.64.47,1.26c.14.42.27.85.4,1.26s.27.83.37,1.25.21.82.31,1.23l.15.6.13.6c.35,1.59.58,3.11.75,4.51.07.7.16,1.37.2,2s.07,1.25.1,1.82l0,.42v.41c0,.26,0,.52,0,.77v1.36c0,.82-.07,1.46-.09,1.9l0,.67s0-.23-.08-.67-.12-1.07-.19-1.88c0-.41-.11-.86-.17-1.34s-.11-1-.22-1.57-.18-1.15-.29-1.78-.24-1.27-.37-1.95l-.1-.52c0-.17-.08-.34-.12-.52-.08-.35-.17-.7-.26-1.07-.15-.73-.37-1.46-.58-2.23l-.15-.57c-.06-.19-.12-.38-.19-.58-.12-.38-.24-.77-.37-1.16s-.28-.79-.42-1.18-.28-.8-.44-1.2l-.49-1.2c-.09-.2-.17-.4-.25-.6s-.19-.4-.28-.6q-.28-.59-.57-1.2l-.62-1.18a33.11,33.11,0,0,0-2.9-4.56l-.4-.54-.43-.52-.43-.52-.22-.26-.23-.25-.91-1-1-.92-.24-.23-.25-.21c-.17-.14-.34-.28-.5-.43l-.5-.42L63,25.69a23.87,23.87,0,0,0-2.12-1.43,21.54,21.54,0,0,0-4.4-2c-.37-.11-.74-.23-1.1-.32l-1.08-.25-.27-.06-.26-.05-.53-.08a9.35,9.35,0,0,0-1-.13l-1-.08h-.95c-.32,0-.62,0-.92,0l-.86.06c-.56,0-1.07.13-1.55.19-.24,0-.48.05-.7.1l-.62.13-.56.12a5,5,0,0,0-.49.12l-.78.22-.65.17ZM51.9,78.36c-3-1.69-5-6.34-5-6.34,1.92-9,6.19-12.74,6.19-12.74a4.78,4.78,0,0,0,1.06,1,6.37,6.37,0,0,0,1.15.68C50.14,66.42,51.9,78.36,51.9,78.36Zm-.14-23.51a6.65,6.65,0,0,0,.11,2.81,14.41,14.41,0,0,0-11.1,3.84,13.94,13.94,0,0,1-.86-6.89S43.35,53.26,51.76,54.85Zm2.32,3.73a5.75,5.75,0,0,1-.72-1.5c0-.13-.08-.26-.11-.39l-.08-.4-.06-.38c0-.14,0-.26,0-.4a6,6,0,0,1,.1-1.48,4.67,4.67,0,0,1,.42-1.26,3.49,3.49,0,0,1,.65-.92,2.44,2.44,0,0,1,.71-.5.94.94,0,0,1,.15-.06l.15,0,.12,0h.11l.19,0-.19,0-.1,0-.11.05a.87.87,0,0,0-.27.14,2.41,2.41,0,0,0-.61.53,3.45,3.45,0,0,0-.52.91,4.91,4.91,0,0,0-.32,1.2,7.13,7.13,0,0,0,0,1.39c0,.12,0,.25,0,.36l.07.37.09.36c0,.12.07.24.1.36a5.32,5.32,0,0,0,.67,1.35,3.25,3.25,0,0,0,1.07,1,3.09,3.09,0,0,0,.32.14,1.77,1.77,0,0,0,.33.08l.16,0h.33l.18,0a1.51,1.51,0,0,0,.3-.1,1.87,1.87,0,0,0,.28-.16l.14-.09.12-.11a1.67,1.67,0,0,0,.23-.23,3.81,3.81,0,0,0,.63-1.05,4.85,4.85,0,0,0,.3-1,3.64,3.64,0,0,0,.07-.44c0-.14,0-.26,0-.38s0-.22,0-.31v-.42l0,.19a4.13,4.13,0,0,1,.06.54,4.9,4.9,0,0,1,0,.85,3.51,3.51,0,0,1-.07.53c0,.18-.08.37-.14.57A3.89,3.89,0,0,1,58.27,59a2.45,2.45,0,0,1-1.28.9,2.29,2.29,0,0,1-1.65-.2A3.73,3.73,0,0,1,54.08,58.58Zm1-15c0,.57,0,1.13.07,1.65l.1,1.49c0,.46.07.88.1,1.26l.09,1c.06.54.09.85.09.85s-.11-.29-.28-.81-.36-1.28-.55-2.19c-.1-.46-.19-1-.27-1.49s-.15-1.09-.21-1.68-.1-1.19-.11-1.8,0-1.25,0-1.88.09-1.25.16-1.87.19-1.22.31-1.79.28-1.13.45-1.65a12.74,12.74,0,0,1,.56-1.42l.29-.62c.1-.19.21-.36.3-.53.19-.33.39-.6.54-.83s.31-.38.4-.5l.14-.17-.37.77-.17.41c-.07.15-.14.31-.2.48s-.14.36-.21.56l-.2.62c-.13.44-.26.92-.38,1.43s-.21,1-.31,1.61c-.05.28-.08.56-.12.85l-.09.89c-.05.59-.1,1.2-.12,1.81,0,.3,0,.6,0,.91s0,.6,0,.9C55,42.43,55,43,55,43.6Zm3.75,2.89-.42,1c-.13.32-.24.62-.34.9s-.18.55-.24.78-.12.44-.17.61c-.08.34-.11.53-.11.53s0-.2.06-.54c0-.17.06-.39.12-.62a8.22,8.22,0,0,1,.19-.8c.09-.29.18-.6.3-.93l.18-.5c.06-.17.14-.34.21-.51.15-.35.32-.7.5-1s.38-.7.57-1.06l.64-1,.68-.94.69-.84c.22-.26.45-.49.65-.72a7.91,7.91,0,0,1,.58-.58l.46-.43.41-.37-.37.41-.43.46c-.17.18-.33.39-.53.62s-.41.47-.61.74l-.65.86-.66.94-.62,1c-.2.35-.41.69-.58,1S58.93,46.15,58.78,46.49Zm3.66-17.07-.83-.66c-.3-.2-.58-.42-.88-.61l-.45-.29c-.15-.1-.31-.18-.46-.27l-.46-.26-.47-.24a5.24,5.24,0,0,0-.48-.23l-.47-.21c-.32-.14-.64-.24-.95-.36s-.64-.19-.94-.29l-.92-.22-.89-.15-.83-.09c-.27,0-.53,0-.77,0l-.7,0c-.44,0-.82,0-1.14.06l-1,.1,1-.21c.31-.06.7-.09,1.14-.15.22,0,.46,0,.71-.05s.51,0,.79,0,.56,0,.86,0l.91.11,1,.18,1,.27c.33.11.66.22,1,.35s.67.26,1,.43l.49.25c.17.08.32.17.48.26.33.18.64.38.94.58s.6.43.9.64l.86.68c.27.24.54.47.79.72s.5.5.74.74.46.51.68.75.43.5.62.75c.39.49.74,1,1,1.43A22.6,22.6,0,0,1,68,35.67c.29.57.43.91.43.91l-.13-.23-.39-.62c-.34-.54-.86-1.29-1.51-2.14-.34-.43-.7-.89-1.11-1.35-.2-.24-.42-.47-.64-.71s-.45-.48-.69-.71C63.5,30.34,63,29.88,62.44,29.42Zm-8.87,20.5a2.79,2.79,0,0,0-1.36,1.93S41.58,47,40.48,43.62c0,0,0-5.33,1.89-7.54C42.37,36.08,43.5,44.19,53.57,49.92ZM37.82,48.69l.15-.52s0,.19,0,.54c0,.18,0,.39,0,.65s0,.55,0,.87V51.3c0,.38,0,.81,0,1.26,0,.22,0,.45,0,.69s0,.48.07.73,0,.5.06.76.06.53.1.8.06.55.1.83.09.57.14.86.1.58.16.88.13.59.19.9c.12.61.3,1.23.46,1.86.07.32.18.63.27,1s.18.64.3,1c.43,1.28.92,2.59,1.5,3.89a37.29,37.29,0,0,0,2,3.83c.34.63.74,1.23,1.11,1.85s.78,1.2,1.21,1.76.86,1.12,1.28,1.67c.22.28.45.53.67.79l.33.39.34.38A33.87,33.87,0,0,0,51,80.07l.7.59c.22.19.47.36.7.54.45.37.92.67,1.37,1,.22.17.45.29.67.43s.43.27.65.39l.64.34.31.17.3.14c.4.18.78.37,1.14.5l.52.2.24.1.24.07.82.25.63.15.52.12H59.23L58.35,85A13.73,13.73,0,0,1,56,84.52l-.34-.1-.35-.12-.72-.25c-.25-.08-.49-.2-.75-.31s-.51-.21-.77-.35c-.51-.26-1-.53-1.58-.85-.27-.17-.55-.32-.81-.5s-.53-.37-.81-.55a26.64,26.64,0,0,1-3.18-2.67,28.7,28.7,0,0,1-3-3.32c-.47-.59-.9-1.22-1.34-1.85s-.83-1.28-1.2-2a32.52,32.52,0,0,1-2-4.11c-.14-.35-.28-.7-.41-1s-.25-.71-.37-1.06c-.24-.69-.43-1.4-.62-2.1-.1-.34-.16-.69-.24-1s-.17-.68-.22-1-.11-.68-.17-1-.1-.67-.13-1-.07-.65-.11-1,0-.63-.06-.94,0-.61,0-.91v-.87c0-.29,0-.57,0-.84s0-.54,0-.8,0-.51.06-.75.06-.49.09-.72l.09-.66a3.88,3.88,0,0,1,.1-.61c.08-.39.16-.75.22-1.08s.15-.6.22-.85ZM57.29,61.2a3.49,3.49,0,0,0,2.21-1.57C60.6,71,67.71,75,67.71,75c-2.38,4.27-4.7,5.36-4.7,5.36A38.78,38.78,0,0,1,57.29,61.2Zm2.94-3.57a4.5,4.5,0,0,0,0-1.89c2.94,2.74,10-2.64,10-2.64a33.68,33.68,0,0,1,.22,7.19C62.54,58.08,60.23,57.63,60.23,57.63Zm-30-49.05,1.25,4.13a30,30,0,0,0-4.19-.81c-.28-1.12-.53-2.36-.77-3.58C28.13,8.37,29.49,8.5,30.23,8.58ZM28.3,2.17,29,4.57c-.6-.06-1.77-.16-3.19-.2-.18-1.19-.32-2.14-.38-2.61C26.07,1.84,27.39,2,28.3,2.17ZM25.79,4.44c.18,1.12.4,2.45.66,3.81l-1.14,0c-.65,0-1.34,0-2.06,0-.2-1.16-.53-2.56-.84-3.8C23.59,4.41,24.75,4.41,25.79,4.44ZM15,21.18l-.28.18a3.3,3.3,0,0,0-1.22,1.22,12.52,12.52,0,0,1-.71-2.76l0-.1c0-.25-.07-.5-.09-.76.44-1.39.92-1.81,2.66-2.29-.05.2-.09.4-.13.6A8.29,8.29,0,0,0,15,21.18ZM12.7,19.8a2.14,2.14,0,0,1-1.17.69c-.08-.44-.15-.86-.24-1.22a23.6,23.6,0,0,1-.37-2.38l.15,0a3.55,3.55,0,0,0,1.34-.77A30.14,30.14,0,0,0,12.7,19.8Zm-.23-4.06c0-.88,0-1.67,0-2.29,0-.06.36-.87,3-2.71.08.86.14,1.69.18,2.42v.23A10.72,10.72,0,0,0,12.47,15.74Zm3.25-2.31a14.11,14.11,0,0,1,3.43-1.19,4.49,4.49,0,0,1,0,.52c0,.68,0,1.78,0,2.93-.2,0-.4.07-.58.12l-1.2.28c-.81.19-1.46.34-2,.49A14.35,14.35,0,0,0,15.72,13.43Zm3-4.42a19.94,19.94,0,0,1,4.46-.67,15.08,15.08,0,0,1,.19,1.56c0,.47.05,1.11.1,1.85a22.43,22.43,0,0,0-3.81.32l-.47.09A30.72,30.72,0,0,0,18.74,9Zm-1-6.87q.38-.12.78-.21a16.18,16.18,0,0,1,3-.39c.12.42.44,1.55.77,2.87A19.13,19.13,0,0,0,18,5.1,16.18,16.18,0,0,1,17.73,2.14Zm-1.67,4A6.37,6.37,0,0,1,18,5.18c.14.81.3,1.68.46,2.53.08.43.16.85.23,1.25a8.24,8.24,0,0,0-1.92.84c-.45.3-.86.57-1.23.83-.12-1.26-.28-2.56-.43-3.72C15.38,6.66,15.71,6.4,16.06,6.12ZM14.34,4l.23-.22c.09.57.27,1.73.45,3.12a13.51,13.51,0,0,0-2.54,2.64A7.19,7.19,0,0,1,14.34,4Zm-2,6.8a7.67,7.67,0,0,1,.12,2v.29a1.93,1.93,0,0,0,0,.24c-.12.21-.52.56-1.73,1-.08-1.24-.12-2.3-.13-2.82A8.32,8.32,0,0,0,12.33,10.78Zm-2.58,3.9.9-.28c0,.79.12,1.63.21,2.45a15.22,15.22,0,0,1-2.58.48c-.21-.82-.39-1.63-.55-2.37A7.81,7.81,0,0,0,9.75,14.68Zm-.59,6.09a10.89,10.89,0,0,1-2.42-.42c-.22-.91-.51-1.94-.83-3a5.88,5.88,0,0,0,1.51.1h.1l.71-.08c.17.64.35,1.29.54,1.93C8.91,19.77,9,20.26,9.16,20.77ZM5,12A20.47,20.47,0,0,0,7.16,12c.07.63.24,1.67.49,2.9A11.21,11.21,0,0,1,5,14.57c-.4-1.18-.74-2.17-.93-2.7Zm-1.82,2.1A14.3,14.3,0,0,0,5,14.62c.28.83.58,1.75.86,2.67a10,10,0,0,1-1.53-.46C3.93,15.86,3.55,14.92,3.15,14.05ZM6.24,23c-.25-.9-.56-1.95-.9-3.05a11.71,11.71,0,0,0,1.35.47c.11.44.2.85.26,1.21l.39,2.09A5.81,5.81,0,0,1,6.24,23Zm3.11,4.5a6.2,6.2,0,0,1-1.29-.64c-.12-.54-.35-1.62-.63-3a12.39,12.39,0,0,0,2.51.86c.24,1.41.4,2.59.46,3.11A6.29,6.29,0,0,1,9.35,27.48ZM10,24.61c-.2-1.19-.46-2.54-.76-3.78a5.78,5.78,0,0,0,.93,0,7.29,7.29,0,0,0,1.31-.23c.21,1.34.37,3,.5,4.35A15.6,15.6,0,0,1,10,24.61ZM12.4,28c-.11-.59-.22-1.69-.34-2.93v0a8.76,8.76,0,0,0,2.27-.15c.1,1,.36,2.29.46,2.8A13,13,0,0,1,12.4,28Zm2-3.17a4.09,4.09,0,0,1,0-.67,7.76,7.76,0,0,0,1.13.4C15.18,24.59,14.8,24.69,14.37,24.78ZM15,21.92l.05,0a7.13,7.13,0,0,1,.94-.53c0,.17.1.41.16.68A3.11,3.11,0,0,1,15,21.92Zm1.25,2.14a5,5,0,0,0,0-2c.35,0,.77,0,1.29-.1a3.93,3.93,0,0,1,1,0,5.26,5.26,0,0,1-.26,2.53l-1.08-.24Zm3.19,1.66-.06.08h0a6,6,0,0,1-1.92,1h0a16.83,16.83,0,0,0-.32-1.91c.62.14,1.2.27,1.65.41s.68.33.69.36ZM20,22.61a2.55,2.55,0,0,0-1.41-.67,11.43,11.43,0,0,0-.23-1.38c.3-.07.62-.13.93-.17A17.4,17.4,0,0,1,20,22.61Zm.33-3c-.29,0-.56.05-.83.09-.06-.68-.18-2.36-.26-4a20.26,20.26,0,0,1,4.64-.05,36.26,36.26,0,0,0,.61,3.93A26.21,26.21,0,0,0,20.33,19.63Zm3.6-4c-.15-1.3-.28-2.68-.37-3.83,1.28,0,2.55.06,3.68.15a23.85,23.85,0,0,0,.85,2.79c.22.53.41,1,.57,1.51C27.2,16,25.54,15.77,23.93,15.64Zm5.89,4.74a23.94,23.94,0,0,0-1.06-4c1.82.32,3.33.66,4.06.82l1.31,4.35C33.23,21.24,31.36,20.69,29.82,20.38Zm5,4.27.22.7,0,0C34.9,24.92,34.83,24.65,34.83,24.65ZM31.19,39.1l-.38,1.11-.18.53c-.05.19-.1.36-.14.54-.19.7-.38,1.37-.56,2s-.29,1.18-.41,1.69-.23.94-.31,1.31c-.18.72-.29,1.14-.29,1.14s0-.43.14-1.17l.18-1.34c.08-.51.13-1.1.28-1.72s.28-1.31.44-2l.12-.55c0-.18.1-.37.15-.55.11-.37.23-.75.34-1.14s.23-.78.35-1.17.29-.79.45-1.18.3-.79.46-1.19a5.26,5.26,0,0,1,.26-.59l.28-.59c.18-.39.37-.77.56-1.16s.43-.74.64-1.11l.32-.55.16-.27.18-.26.72-1a9.88,9.88,0,0,1,.74-.94l.37-.44c.13-.14.25-.29.38-.41l.77-.77c.12-.12.26-.23.39-.34l.38-.32.37-.3.37-.26c.24-.17.46-.34.69-.47l.64-.37.56-.27.46-.19c.14-.05.26-.1.35-.12l.3-.09-.28.12a3.53,3.53,0,0,0-.33.17,4.91,4.91,0,0,0-.43.24l-.52.32-.59.42c-.21.15-.41.34-.64.52l-.34.28-.33.32-.35.33a4,4,0,0,0-.35.36l-.71.78a4.58,4.58,0,0,0-.35.42l-.34.45a10.66,10.66,0,0,0-.69.93c-.22.33-.44.67-.67,1l-.16.26-.15.27c-.1.18-.21.35-.31.54l-.61,1.08L33,34.5l-.28.56a6,6,0,0,0-.26.58c-.16.39-.31.78-.46,1.17s-.31.76-.46,1.14S31.31,38.72,31.19,39.1Zm1.05,20.84,0-.34c-.1-.9-.18-1.79-.23-2.67a47.33,47.33,0,0,1,0-5.19,41.47,41.47,0,0,1,1.59-9.33,32.08,32.08,0,0,1,3.17-7.33,23.26,23.26,0,0,1,3.78-4.83,18.64,18.64,0,0,1,3.09-2.41c.39-.24.7-.4.9-.51l.31-.16-.29.2-.83.6a19.12,19.12,0,0,0-2.79,2.65,24.34,24.34,0,0,0-3.27,5,33.34,33.34,0,0,0-2.57,7.23,42.08,42.08,0,0,0-1,9,49.05,49.05,0,0,0,.21,4.95c.08.84.18,1.68.31,2.53,0,.22.06.43.1.64s.07.44.11.65c.07.43.15.85.24,1.28A42.7,42.7,0,0,0,38.37,72a34.82,34.82,0,0,0,2.74,4.73A28.24,28.24,0,0,0,44.62,81a21.9,21.9,0,0,0,4.25,3.29,16.39,16.39,0,0,0,4.87,1.88,12.82,12.82,0,0,0,2.54.27c.42,0,.85,0,1.26,0h.12s.06,0,0,0l.17,0,.32,0c.09,0,.17,0,.27-.05l.28-.06A11.2,11.2,0,0,0,63,83.87a21.24,21.24,0,0,0,3.42-3.61A29.52,29.52,0,0,0,69,76.13a34.59,34.59,0,0,0,1.89-4.27,37.75,37.75,0,0,0,1.29-4.19c.34-1.36.59-2.69.78-4s.32-2.49.4-3.64a47,47,0,0,0,0-6c-.13-1.67-.29-3-.43-3.86s-.21-1.36-.21-1.36l.1.33c.06.23.16.56.27,1,.22.87.54,2.15.81,3.82a38.14,38.14,0,0,1,.56,6.08c0,1.18,0,2.45-.11,3.77A41.26,41.26,0,0,1,73.78,68a42.18,42.18,0,0,1-1.08,4.45,35.84,35.84,0,0,1-1.77,4.6,31.36,31.36,0,0,1-2.61,4.56,23.32,23.32,0,0,1-3.71,4.17,13.6,13.6,0,0,1-5.24,2.9l-.39.1-.41.08-.37.06L58,89l-.23,0c-.5.06-1,.08-1.52.09a15.78,15.78,0,0,1-3.06-.29,18.3,18.3,0,0,1-5.73-2.15,23.85,23.85,0,0,1-4.82-3.7,31.11,31.11,0,0,1-3.83-4.62,39,39,0,0,1-2.9-5.14,43.25,43.25,0,0,1-3.35-10.87c-.08-.45-.15-.91-.22-1.37l-.09-.66ZM69.88,92.86l.27,0-.11,0ZM95.94,71.28c-.25.85-.47,1.5-.62,1.94s-.25.68-.25.68l.23-.68c.15-.45.36-1.1.6-2a47.32,47.32,0,0,0,1.33-7.14c.17-1.49.29-3.12.35-4.84s.07-3.53,0-5.41a50.85,50.85,0,0,0-2-11.56,43.8,43.8,0,0,0-2-5.59,42.88,42.88,0,0,0-2.7-5.08,35.23,35.23,0,0,0-3.18-4.34,31.5,31.5,0,0,0-3.39-3.43A27.84,27.84,0,0,0,81,21.44a27.25,27.25,0,0,0-2.76-1.52c-.79-.36-1.44-.61-1.88-.77L75.87,19l-.17-.06.18,0c.11,0,.29.07.52.14a19.77,19.77,0,0,1,1.94.65,22.12,22.12,0,0,1,2.86,1.39,24.82,24.82,0,0,1,3.39,2.37,29.58,29.58,0,0,1,3.5,3.43,36.8,36.8,0,0,1,3.24,4.4A42,42,0,0,1,96,42.19a48.94,48.94,0,0,1,1.26,5.88,56.05,56.05,0,0,1,.56,5.79c.08,1.89.07,3.72,0,5.44s-.23,3.36-.43,4.85A45.71,45.71,0,0,1,95.94,71.28Zm3.24-10.43a45.07,45.07,0,0,1-1.28,6.79c-.21.81-.41,1.43-.53,1.86s-.21.65-.21.65l.18-.66c.11-.43.27-1.06.45-1.88a46.83,46.83,0,0,0,1-6.8c.1-1.41.1-3,.1-4.58s-.11-3.34-.3-5.1a52.76,52.76,0,0,0-.85-5.39,48,48,0,0,0-1.5-5.42c-.31-.89-.64-1.77-1-2.63s-.75-1.72-1.15-2.55a40.93,40.93,0,0,0-2.69-4.69,34.9,34.9,0,0,0-3.09-4c-.53-.6-1.08-1.15-1.63-1.67s-1.08-1-1.62-1.46a27.18,27.18,0,0,0-3.12-2.23,22.8,22.8,0,0,0-2.62-1.38c-.75-.34-1.36-.57-1.78-.72l-.65-.21.67.11a15.38,15.38,0,0,1,1.89.47c.4.13.84.28,1.32.47s1,.41,1.5.67,1.07.57,1.64.92,1.14.73,1.72,1.16,1.17.92,1.76,1.44,1.16,1.09,1.73,1.69a33,33,0,0,1,3.23,4.1,36.27,36.27,0,0,1,2.73,4.86A41.2,41.2,0,0,1,97.12,40a49.92,49.92,0,0,1,1.37,5.55,54.19,54.19,0,0,1,.74,5.49c.14,1.79.21,3.52.2,5.16A39.27,39.27,0,0,1,99.18,60.85ZM96.45,30.47a34.6,34.6,0,0,1,2.13,3.63c.33.64.62,1.3.92,2s.57,1.34.82,2,.48,1.38.71,2.07l.3,1,.16.52.13.52c.09.35.17.7.26,1s.15.69.22,1c0,.17.08.34.11.51s.06.34.1.51l.18,1c.1.68.2,1.34.28,2s.15,1.29.19,1.91c.1,1.25.15,2.43.17,3.52,0,.54,0,1.07,0,1.56s0,1,0,1.41c0,.89-.09,1.66-.12,2.29s-.11,1.13-.14,1.46l0,.52.08-2c0-.63,0-1.4,0-2.28,0-.44,0-.91,0-1.41s0-1-.06-1.55c0-1.08-.13-2.25-.27-3.49,0-.61-.16-1.24-.24-1.89s-.2-1.3-.31-2c-.06-.33-.13-.66-.19-1l-.1-.51-.12-.5c-.07-.34-.15-.68-.23-1s-.18-.68-.26-1l-.14-.52-.15-.51c-.1-.34-.2-.68-.31-1-.23-.68-.44-1.36-.71-2s-.52-1.34-.79-2-.58-1.3-.91-1.93-.65-1.25-1-1.86-.7-1.19-1.07-1.75a32.64,32.64,0,0,0-2.3-3.14,28.12,28.12,0,0,0-2.38-2.54c-.79-.74-1.55-1.37-2.25-1.91s-1.34-1-1.87-1.3l-.73-.43-.54-.3-.46-.25.47.22.56.27.75.4c.56.31,1.21.72,1.95,1.22.36.25.74.53,1.13.84s.8.64,1.2,1a28.13,28.13,0,0,1,2.48,2.51A29.28,29.28,0,0,1,96.45,30.47Zm.84-4.95-.28,1-.12.4,0,0,0,0,.11-.35c.12-.38.23-.71.31-1l.28-.86Zm5.25-5.14c-1.54.31-3.41.86-4.31,1.13l1.31-4.35c.72-.16,2.24-.5,4.06-.82A23.94,23.94,0,0,0,102.54,20.38Zm1.16-4.12c.16-.47.35-1,.57-1.51a23.85,23.85,0,0,0,.85-2.79c1.13-.09,2.4-.16,3.68-.15-.09,1.15-.22,2.53-.37,3.83C106.82,15.77,105.16,16,103.7,16.26ZM112,19.63a26.21,26.21,0,0,0-4.16,0,36.26,36.26,0,0,0,.61-3.93,20.16,20.16,0,0,1,4.63.05c-.07,1.61-.2,3.29-.25,4C112.59,19.68,112.32,19.65,112,19.63Zm.32,3a19.18,19.18,0,0,1,.71-2.22,9.2,9.2,0,0,1,.94.17,13.34,13.34,0,0,0-.24,1.38A2.62,2.62,0,0,0,112.35,22.61Zm2.56,4.2h0a6,6,0,0,1-1.92-1h0l-.06-.08,0,0s.1-.17.69-.36,1-.27,1.65-.41A14.85,14.85,0,0,0,114.91,26.81Zm1.2-2.75-1,.22-1.08.24a5.26,5.26,0,0,1-.26-2.53,3.93,3.93,0,0,1,1,0c.52.06.94.09,1.29.1A5,5,0,0,0,116.11,24.06Zm.1-2c.05-.27.11-.51.16-.68a7.13,7.13,0,0,1,.94.53l0,0A3.15,3.15,0,0,1,116.21,22ZM118,24.11a5.64,5.64,0,0,1,0,.67c-.43-.09-.81-.19-1.1-.27A7.76,7.76,0,0,0,118,24.11Zm2.28.91c-.12,1.24-.23,2.34-.34,2.93a13,13,0,0,1-2.38-.3c.1-.51.36-1.82.46-2.8a8.71,8.71,0,0,0,2.26.15Zm.58-4.44a7.29,7.29,0,0,0,1.31.23,5.68,5.68,0,0,0,.92,0c-.29,1.24-.55,2.59-.75,3.78a15.46,15.46,0,0,1-2,.32C120.51,23.54,120.67,21.92,120.88,20.58Zm3.42,6.26a6.2,6.2,0,0,1-1.29.64,6.42,6.42,0,0,1-1.06.3c.07-.52.23-1.7.47-3.11a12.39,12.39,0,0,0,2.51-.86C124.65,25.22,124.42,26.3,124.3,26.84ZM126.12,23a5.89,5.89,0,0,1-1.11.72c.13-.64.26-1.34.4-2.09.06-.36.15-.77.26-1.21a11.71,11.71,0,0,0,1.35-.47C126.68,21,126.37,22.08,126.12,23Zm1.95-6.15a10.4,10.4,0,0,1-1.53.46c.28-.92.58-1.84.86-2.67a13.54,13.54,0,0,0,1.8-.57C128.81,14.92,128.43,15.86,128.07,16.83Z"></path><path class="cls-1" d="M14.88,89.75c-.63-.48-1.17-.9-1-1.25.43-.78,1.15-.56,2.95.38,1.53.81,3.61,2.32,3.14,3.35l-.26.57q1.2.56,2.4,1.08c.56-1.29,1.12-2.57,1.67-3.86-.77-.34-1.54-.68-2.3-1l-.36.78a11,11,0,0,0-3.63-3.1c-2.22-1.13-5.64-2.31-7.2.18-1.43,2.32,1.77,5,3,5.79,2.53,1.74,4.13,2.21,3.67,3.18-.32.68-2,.17-3-.38-1.92-1-4.34-2.75-3.6-4l.31-.54c-.79-.46-1.58-.92-2.36-1.4C7.54,90.72,6.78,92,6,93.21q1.23.75,2.46,1.47l.24-.41a11.67,11.67,0,0,0,3.89,3c4.64,2.37,7.4,1.95,8.22,0C22.43,93.48,17.42,91.76,14.88,89.75Z"></path><path class="cls-1" d="M37.67,99.31c.34-1.36.67-2.71,1-4.07A95.26,95.26,0,0,1,25.2,90.81l-.76,1.86q.9.38,1.8.72l-2.41,6.18c-.64-.25-1.28-.5-1.92-.77-.28.67-.55,1.34-.83,2a105.23,105.23,0,0,0,15,4.93c.33-1.36.67-2.72,1-4.08-.86-.22-1.72-.44-2.58-.68-.18.66-.36,1.31-.55,2q-3.15-.87-6.27-2c.26-.75.52-1.49.77-2.24,1.4.48,2.8.93,4.21,1.35l.57-1.93c-1.38-.41-2.75-.85-4.12-1.32l.73-2.13q2.92,1,5.88,1.82l-.58,2.11Z"></path><path class="cls-1" d="M49.82,103.37c2-.08,3.75-.72,3.9-2.74.2-2.59-2.31-3.08-5.09-3.47s-5.72-.92-8.54-1.58c-.16.65-.31,1.3-.46,2,.62.15,1.25.29,1.87.42-.45,2.16-.91,4.33-1.37,6.49L38.21,104c-.17.7-.33,1.4-.49,2.1q4.11,1,8.26,1.57c.11-.71.21-1.42.32-2.14-.73-.1-1.45-.22-2.17-.34.14-.81.27-1.61.41-2.41l.93.15c1.16,1.74,2.39,3.47,3.69,5.17,1.72.21,3.45.37,5.17.49.05-.72.11-1.44.16-2.16l-2.15-.17Q51,104.84,49.82,103.37Zm0-2.86c-.11.93-.48,1.16-3.2.76L44.85,101c.13-.77.27-1.55.4-2.32.78.13,1.54.23,2.33.35l.65.11C49.17,99.3,49.91,99.42,49.78,100.51Z"></path><path class="cls-1" d="M66.33,98l.09,2,1.29-.07q-1.27,2.61-2.68,5.19-1.7-2.47-3.23-5h.87l0-2c-2.22,0-4.45,0-6.67-.17l-.12,2,1.47.08a102,102,0,0,0,6.08,8.88c.85,0,1.71,0,2.57-.07,1.85-3,3.54-6.06,5.06-9.15l2.17-.23c-.08-.67-.15-1.33-.23-2C70.77,97.68,68.55,97.87,66.33,98Z"></path><path class="cls-1" d="M81,104.92c-.41-2.17-.81-4.34-1.22-6.52l2-.38c-.13-.66-.27-1.31-.41-2-2.47.52-5,.93-7.44,1.25.08.66.17,1.33.25,2L76,99q.49,3.28,1,6.56c-.67.1-1.35.2-2,.28l.27,2.15c2.78-.35,5.54-.82,8.29-1.39l-.45-2.12C82.38,104.66,81.69,104.8,81,104.92Z"></path><path class="cls-1" d="M97.85,98c-.13,1.86-1.69,3.21-4,4-2.62.84-5.15.39-5.78-2s1-3.79,3.66-4.65c2.42-.77,4.93-.5,5.46.87.08.2.15.39.22.59.84-.31,1.67-.64,2.49-1l-2-4.8c-.79.32-1.57.63-2.37.93.12.29.23.59.34.88a11.31,11.31,0,0,0-4.9.38c-4.77,1.54-8.24,4.16-7.47,7.88.84,4,5,4.79,11,2.9s6.68-5.39,6-7C99.61,97.32,98.73,97.66,97.85,98Z"></path><path class="cls-1" d="M112.94,91l1,1.77q-2.91,1.68-5.9,3.16l-1-2.13c1.33-.66,2.66-1.36,4-2.08l-1-1.76q-1.93,1.06-3.9,2c-.33-.68-.67-1.35-1-2q2.8-1.38,5.53-3l1.09,1.89c.77-.44,1.54-.9,2.3-1.37l-2.19-3.57A96.34,96.34,0,0,1,99,90.53l.78,1.84,1.78-.77,2.7,6.06-1.9.83.84,2a105.57,105.57,0,0,0,14.26-7.33c-.73-1.19-1.46-2.39-2.2-3.58C114.52,90.05,113.73,90.51,112.94,91Z"></path><path class="cls-1" d="M39,6c-.1-.72-.21-1.44-.31-2.16q1.8-.25,3.6-.48L43.09,10l-2.23.29c.09.72.19,1.43.29,2.15q4-.55,8-.91c-.06-.72-.13-1.44-.19-2.16l-2.3.22Q46.34,6.29,46,3c1.2-.13,2.41-.24,3.61-.34l.18,2.17c.82-.06,1.64-.13,2.47-.18-.1-1.4-.2-2.79-.29-4.18Q43.89,1,35.89,2.27c.21,1.38.43,2.76.65,4.14Z"></path><path class="cls-1" d="M55.42,2.25c.12,2.21.23,4.41.34,6.62L54,9l.13,2.17c2.41-.15,4.81-.25,7.22-.3l0-2.16-1.89,0q-.09-3.32-.2-6.63l2,0c0-.66,0-1.33,0-2q-3.84.07-7.67.31l.12,2Z"></path><path class="cls-1" d="M64.46,2q0,3.31,0,6.63H62.72l0,2.17c2.41,0,4.81,0,7.22.06,0-.72,0-1.44.07-2.16l-2-.05c0-.81,0-1.63,0-2.44l.86,0Q70.91,8.61,72.73,11c1.49.07,3,.15,4.47.26l.16-2.16L75.44,9C74.65,8,73.85,7.11,73,6.2c1.83-.23,3.46-.89,3.6-2.91C76.81.7,74.24.22,71.37.12S65.49,0,62.55,0c0,.67,0,1.34,0,2Zm3.75,0,2.31,0,.66,0c.94.07,1.68.14,1.63,1.24,0,.94-.38,1.15-3,1.08l-1.66,0C68.18,3.61,68.19,2.83,68.21,2Z"></path><path class="cls-1" d="M92.63,8.79c-.8-.13-1.61-.25-2.42-.36-.09.67-.19,1.34-.29,2-1.91-.28-3.83-.52-5.76-.74.09-.78.18-1.57.26-2.36,1.34.15,2.68.31,4,.49l.27-2c-1.35-.18-2.7-.34-4.06-.49l.25-2.24q3,.33,6,.76c-.1.72-.21,1.44-.31,2.16L93,6.41c.22-1.38.43-2.76.65-4.14C88.94,1.53,84.19,1,79.44.58c0,.67-.11,1.34-.16,2l1.88.16-.6,6.61L78.75,9.2c-.06.72-.11,1.44-.17,2.16Q85.3,11.89,92,13Z"></path></g></g></svg>