<svg xmlns="http://www.w3.org/2000/svg" viewBox="0 0 139.04 125.55"><defs><style>.cls-1{fill:#3f3f3f;}</style></defs><g id="Layer_2" data-name="Layer 2"><g id="Layer_1-2" data-name="Layer 1"><rect class="cls-1" x="114.77" y="24.02" width="4.09" height="0.83" transform="translate(19.03 92.85) rotate(-46.79)"></rect><rect class="cls-1" x="124.36" y="52.69" width="12.45" height="0.83" transform="translate(-10.2 45.81) rotate(-19.16)"></rect><path class="cls-1" d="M108.82,65.87V61.12l7.08-2.47-.27-.78-6.81,2.36V55.54l24.49-12.06-.36-.75L108.82,54.61V49.38l16.92-11-.45-.7L108.82,48.39V43.11l16-13-.52-.64L108.82,42V33.56L110,32.3l-.61-.57-.57.61v-6h-3.3l6.33-8.68-.68-.49-6.68,9.17H98.26c0-1,0-2.15-.05-3.29l5.66-10.48-.73-.4-5,9.34a30.81,30.81,0,0,0-2.84-10.56l.8-2.05-.78-.31-.53,1.37a23.93,23.93,0,0,0-1.61-2.57,16.56,16.56,0,0,0-4.84-4.6A15.82,15.82,0,0,0,82.94.85,51,51,0,0,0,76.29.17l-.54,0C71.6-.1,67.42,0,63.38.14l-.92,0a20,20,0,0,0-15,7.38,24.67,24.67,0,0,0-2.83,4.15L43.55,9.14l-.77.32,1.32,3.19a32,32,0,0,0-3,9.78l-5.42-9.5-.73.42L41,23.8c-.05.52-.1,1.05-.14,1.58,0,.31,0,.62-.05.93H34.07l-6.28-8.19-.66.51L33,26.31H32.3V35L21.24,23.74l-.59.59L32.3,36.19v13.3L21.67,42.71l-.45.71L32.3,50.48V61.75l-5-1.56-.25.79,5.22,1.65v4.55L9.67,63.29l-.14.82L32.3,68v3.88L0,70.38l0,.83,32.3,1.53v3.73L22,77.23l.06.83,10.29-.75V90.53l-3.44,1.53.34.77,3.1-1.39v5.61l-3.44,2.13.44.71,3-1.86v3.89h2.11l-11.87,9.55.52.65,12.68-10.2h5.2c.07.69.16,1.38.28,2l-4.83,5.75.64.54L41.41,105a30.91,30.91,0,0,0,1,3.68l-9.24,11.74.66.52,8.91-11.33a23,23,0,0,0,2.9,5.47l-3.16,5.39.72.42,3-5.09a17.94,17.94,0,0,0,8.67,6l1.36.47c.64.23,1.31.47,2,.66a80.15,80.15,0,0,0,16.38,2.45l1.45.09c.6,0,1.17,0,1.72,0a14.42,14.42,0,0,0,4.15-.54,16.54,16.54,0,0,0,4.57-2.2A25.25,25.25,0,0,0,94,114.19c.18-.32.36-.65.53-1l5.76,8.83.7-.45-6-9.25a38.74,38.74,0,0,0,3.31-10.42h8.15l2.05,1.53.5-.66-1.16-.87h1V90.24L119,94.37l.32-.77-10.5-4.26V80.05l22.09,3.15.12-.83-22.21-3.16V75.9l1.44.06,0-.84-1.47-.05V71.61l1.4-.11-.07-.83-1.33.1v-4L139,60.6l-.17-.81ZM89,72.1c0,1.19-.25,1.56-3.58,1.56-1,0-2.46-.06-4-.19-.24-9.83-2.52-14.78-4-17l-1.11.06h-.5V72.22c0,1.25-.12,1.25-6.84,1.25V30.88a1.23,1.23,0,0,1,1.23-1.26H76c7.77,0,12,2.7,12,12.91,0,6.2-1.79,9.77-4.31,11.78C85.76,57.06,88.72,62.57,89,72.1Zm4.14,3.41c2.12,0,3,1,3,1.64a2,2,0,0,1-.32,1.11,3.9,3.9,0,0,0-2.41-1c-2.25,0-4.63,1.31-4.63,11.16,0,7.48,1.83,8.72,3.82,8.72A4.73,4.73,0,0,0,96,95.68a2.94,2.94,0,0,1,.29,1.14c0,1-1.7,2.25-4,2.25-2.6,0-5.33-.84-5.33-10.7C86.94,76.89,90.34,75.51,93.17,75.51ZM91.07,103c-.14.51-.27,1-.46,1.55-.09.26-.17.52-.26.78s-.21.51-.31.77a24.21,24.21,0,0,1-1.48,3c-.27.5-.59,1-.89,1.45s-.64.93-1,1.36a22.39,22.39,0,0,1-2.18,2.44,19.18,19.18,0,0,1-2.35,2l-.59.4c-.2.14-.4.25-.6.37-.39.24-.79.44-1.17.63a5.86,5.86,0,0,1-.57.26c-.18.08-.36.17-.54.23l-.54.19-.25.08-.26.07a11.12,11.12,0,0,1-1.74.35l-.65.05h-.88l.39-.09.46-.11.61-.19.17,0,.18-.07.38-.15a7.45,7.45,0,0,0,.84-.37l.23-.1.22-.12.47-.25.48-.29c.16-.11.34-.2.5-.32.33-.23.67-.45,1-.72l.52-.4c.16-.15.34-.29.51-.44a22.63,22.63,0,0,0,2-2l.26-.27.24-.29c.16-.19.33-.38.49-.58.32-.41.64-.81.94-1.24s.6-.86.9-1.3.57-.89.82-1.36a31.18,31.18,0,0,0,1.44-2.82c.42-.95.78-1.92,1.1-2.86.08-.23.14-.46.21-.68h1.55c0,.11,0,.23-.08.35S91.14,102.78,91.07,103ZM64.2,98.72c-.58-5.94-2.41-8.78-3.12-9.7a4.11,4.11,0,0,1-.7,0h-1.9v9.23c0,.43,0,.43-1.73.43V76.33s0-.46.41-.46H60.5c4,0,5.62,2.39,5.62,6.2s-1.28,5.71-3.3,6.53a19.09,19.09,0,0,1,3.24,9.63c0,.39-.06.49-.87.52C64.94,98.75,64.62,98.75,64.2,98.72ZM46,98.72V76.33s0-.46.41-.46h7.68c0,1.47,0,1.67-.32,1.67h-6V85.4h5.65c0,1.41,0,1.67-.38,1.67H47.72v10h6.33c0,1.54,0,1.67-.39,1.67Zm12.27-66c0-3.07.12-3.07,7-3.07v42.6c0,1.25-.06,1.25-7,1.25ZM80.14,6.37c.33,0,.61.07.83.12l.72.15L81,6.56l-.82,0-.51,0a3.57,3.57,0,0,0-.56,0l-.61.06-.64.11-.67.16-.69.21c-.23.09-.46.16-.69.26l-.35.16-.34.16-.34.18a2.27,2.27,0,0,0-.34.19,2.23,2.23,0,0,0-.33.2l-.33.21c-.22.13-.43.3-.64.44l-.61.48c-.39.33-.77.67-1.11,1-.18.17-.34.35-.51.52l-.46.51c-.29.34-.56.67-.8,1-.48.63-.86,1.17-1.1,1.56l-.29.46-.09.16s.1-.25.31-.66a15.35,15.35,0,0,1,1-1.65,12.36,12.36,0,0,1,.76-1l.45-.55.49-.54c.18-.18.35-.37.54-.54s.38-.35.58-.53l.62-.5c.22-.15.43-.32.66-.46s.45-.29.68-.42l.35-.19.36-.18c.23-.13.48-.21.72-.32l.72-.25.72-.2.69-.13.67-.08c.21,0,.42,0,.62,0a3.74,3.74,0,0,1,.58,0C79.81,6.35,80,6.35,80.14,6.37Zm7,7.87c1.4,1.61,1.38,5.48,1.38,5.48-.8,2.47-8.54,6-8.54,6a2,2,0,0,0-1-1.4C86.28,20.14,87.1,14.24,87.1,14.24Zm-9.2,3.53c0-.22,0-.45,0-.67,0-.44-.06-.88-.09-1.31l-.07-.65-.09-.62c-.07-.41-.14-.8-.23-1.17s-.18-.72-.27-1L77,11.86l-.15-.41c0-.13-.1-.24-.14-.35l-.13-.3-.27-.56.11.13c.06.08.17.2.28.36s.26.36.4.61.14.24.22.38l.21.45a10.08,10.08,0,0,1,.4,1,10.51,10.51,0,0,1,.33,1.2c.09.42.17.86.23,1.31s.09.9.11,1.36,0,.92,0,1.36,0,.89-.08,1.32-.09.83-.15,1.22-.13.75-.2,1.08a14.72,14.72,0,0,1-.4,1.6c-.12.38-.2.59-.2.59s0-.23.06-.62c0-.2,0-.43.07-.71s0-.58.07-.91,0-.7.07-1.08,0-.79.06-1.21,0-.85,0-1.28C77.91,18.21,77.9,18,77.9,17.77Zm-1.81,6.81L76,24.19c0-.12-.07-.27-.12-.44s-.12-.36-.18-.56-.15-.43-.25-.66-.19-.47-.31-.72-.23-.49-.36-.75-.28-.5-.42-.75-.31-.49-.46-.73l-.48-.69L73,18.27c-.15-.2-.31-.37-.45-.54s-.26-.32-.38-.45-.23-.24-.31-.34l-.27-.29.29.27c.1.08.21.19.34.31s.27.26.42.42.31.33.47.53l.51.61.49.68.47.74c.14.26.29.51.42.77s.25.51.35.76a3.08,3.08,0,0,1,.16.38l.13.36c.09.24.15.46.22.67s.11.41.14.58.06.33.08.46S76.09,24.58,76.09,24.58Zm2.25,1.23a1.56,1.56,0,0,0-.44-.39l-.19-.1-.09,0-.07,0-.13,0h.21l.09,0,.11,0,.11.05a1.55,1.55,0,0,1,.51.36,2.52,2.52,0,0,1,.44.59h-.24A2.23,2.23,0,0,0,78.34,25.81ZM64.87,24.52c-.07.45-.15,1.06-.22,1.79h-.31c.15-.75.3-1.36.42-1.81s.15-.56.19-.72l.08-.25S65,23.87,64.87,24.52ZM84,98.29c0,.43,0,.43-1.76.43V76.79c0-.92,0-.92,1.76-.92Zm.41,11.11s-1.51,3.43-3.71,4.67c0,0,1.17-7.92-2-12.15h2.66A21.25,21.25,0,0,1,84.36,109.4ZM72.45,90.17c.61,2.64,1,4.92,1.35,6.91.32-2,.68-4.27,1.25-6.91L78.3,76.53c.06-.43.13-.66.51-.66h1.45l-5.49,23a13.08,13.08,0,0,1-1.39.1c-.54,0-.86-.78-1.15-1.93-1.38-5.41-5.11-20.59-5.11-20.59-.1-.42-.13-.62.35-.62h1.42Zm2.37,11.75h1.85a28.87,28.87,0,0,1-4.2,13.59s-1.72-.8-3.47-4C69,111.56,73.55,109,74.82,101.92ZM90.33,26.31a.25.25,0,0,1,0-.08c0-.32,0-.63,0-.91v-.78c0-.24,0-.45,0-.64s0-.34,0-.47l0-.39.11.38c0,.12.08.27.14.45a5.67,5.67,0,0,1,.15.62c0,.23.11.5.16.78a3,3,0,0,1,.08.45l.07.48a.37.37,0,0,0,0,.11Zm2.1-7.17a24.54,24.54,0,0,0-1.87-5.27,18,18,0,0,0-2.38-3.61,14.51,14.51,0,0,0-2-1.93l-.61-.43-.21-.15.23.12c.15.08.37.2.65.37A12.92,12.92,0,0,1,88.46,10a16.68,16.68,0,0,1,2.75,3.51,23.13,23.13,0,0,1,2.31,5.34,29.87,29.87,0,0,1,1.16,6.79c0,.22,0,.45,0,.67H93.19v-.62A30.41,30.41,0,0,0,92.43,19.14ZM87.79,5.9l.26.09.33.14.41.2.46.27c.17.09.33.22.51.34l.27.19.27.22.27.23a2.26,2.26,0,0,1,.28.25l.56.55a4.12,4.12,0,0,1,.28.31L92,9a5.2,5.2,0,0,1,.54.68c.18.24.35.48.52.73l.14.19.11.19.24.4L94,12c.14.28.28.56.41.85l.2.42a3.3,3.3,0,0,1,.19.43c.12.29.23.58.34.87s.22.57.32.86l.26.85.24.83c0,.13.09.27.12.4l.09.4c.11.52.22,1,.31,1.48s.15.88.21,1.25.09.71.13,1c.06.54.1.85.1.85l-.21-.83c-.06-.27-.14-.59-.22-1s-.17-.78-.31-1.23L95.75,18l-.11-.39a3,3,0,0,0-.13-.39l-.27-.8c-.09-.28-.18-.56-.28-.84l-.33-.83c-.11-.28-.22-.57-.34-.85a3.17,3.17,0,0,0-.19-.42l-.2-.41-.39-.84-.45-.79-.22-.39-.11-.2-.12-.18c-.17-.25-.33-.49-.48-.73s-.34-.46-.51-.68L91.37,9a2.6,2.6,0,0,0-.25-.31l-.51-.57a3.19,3.19,0,0,0-.26-.26l-.25-.24-.25-.24-.25-.2c-.16-.13-.31-.27-.46-.38l-.43-.3-.38-.24L88,6.05l-.24-.12-.2-.09ZM76.53,3.16a13.57,13.57,0,0,1,3.35-.45h.77c.25,0,.49,0,.73.06s.47,0,.69.07l.64.12a8.46,8.46,0,0,1,1.15.27c.17,0,.34.08.5.14l.45.16a7.34,7.34,0,0,1,.74.28l.54.24.44.21-.47-.13L85.5,4l-.37-.08-.4-.09-.46-.1-.5-.07c-.35,0-.73-.12-1.13-.14l-.63,0H80.65l-.72,0a6.42,6.42,0,0,0-.75.1l-.39.06-.19,0-.2,0-.78.18c-.27.06-.53.15-.8.23a15.79,15.79,0,0,0-3.21,1.46,17.43,17.43,0,0,0-1.54,1L71.69,7l-.37.31L71,7.58l-.19.15-.17.17-.7.67-.66.72-.17.18-.16.19L68.6,10l-.31.38-.3.39a25.13,25.13,0,0,0-2.11,3.32l-.45.86c-.14.29-.28.58-.41.87s-.14.29-.2.44-.12.29-.19.44l-.36.87-.32.87c-.1.29-.21.57-.3.86l-.27.85-.14.42-.11.42c-.15.55-.31,1.09-.42,1.62-.07.26-.13.52-.19.78l-.09.37c0,.13,0,.26-.07.38-.09.49-.19,1-.27,1.42,0,.25-.08.48-.12.71h-.61c0-.25,0-.52,0-.79,0-.47.09-1,.14-1.47a31.61,31.61,0,0,1,.55-3.28l.09-.44.11-.44c.08-.29.15-.59.23-.89s.17-.6.27-.91.19-.61.29-.92.23-.61.34-.92l.18-.46.19-.46c.14-.31.27-.62.4-.93s.31-.61.46-.91.15-.31.24-.46l.25-.45c.17-.3.33-.61.53-.9s.37-.58.56-.87.41-.57.62-.85l.31-.42.34-.4.33-.4L68,8.53l.18-.19.72-.75.77-.71A17.62,17.62,0,0,1,73,4.54,15.07,15.07,0,0,1,76.53,3.16Zm-1.4-1.74-.51.16c-.34.11-.83.27-1.44.53a19.94,19.94,0,0,0-2.13,1,22.53,22.53,0,0,0-2.56,1.67A24.19,24.19,0,0,0,65.78,7.2a25.14,25.14,0,0,0-2.61,3.09,29.89,29.89,0,0,0-4,7.8,34,34,0,0,0-1.69,8.22h-.24a36.71,36.71,0,0,1,.49-3.95A32.26,32.26,0,0,1,58.84,18a29,29,0,0,1,4-8A26.62,26.62,0,0,1,65.47,6.9a23.77,23.77,0,0,1,2.8-2.39A21,21,0,0,1,70.93,2.9,17.16,17.16,0,0,1,73.13,2c.63-.21,1.13-.35,1.47-.43Zm-2.89.28a12,12,0,0,1,1.43-.31l.51-.08-.5.15c-.31.11-.78.26-1.35.49a20.77,20.77,0,0,0-2,.93c-.38.21-.78.42-1.19.68s-.83.53-1.26.83-.86.64-1.3,1-.89.74-1.32,1.15A26.81,26.81,0,0,0,60.4,12.7a29.27,29.27,0,0,0-1.85,3.77,32.24,32.24,0,0,0-1.34,4,34.71,34.71,0,0,0-.78,4c-.09.62-.15,1.23-.2,1.83h-.46c0-.62.1-1.25.17-1.89a35.88,35.88,0,0,1,.7-4.1,34,34,0,0,1,1.25-4.11A28.34,28.34,0,0,1,59.7,12.3,26.65,26.65,0,0,1,62,8.82,23.67,23.67,0,0,1,64.69,6c.46-.42.93-.81,1.39-1.16s.94-.68,1.4-1a17.67,17.67,0,0,1,2.61-1.39A16.31,16.31,0,0,1,72.24,1.7Zm-3.51-.41a11.16,11.16,0,0,1,1.59-.13c.18,0,.33,0,.42,0h0l-.42,0a12.47,12.47,0,0,0-1.56.23,14.17,14.17,0,0,0-2.34.71,16.18,16.18,0,0,0-2.8,1.47A19.6,19.6,0,0,0,60.71,6,23.09,23.09,0,0,0,58,9.13,29.77,29.77,0,0,0,55.68,13a33.52,33.52,0,0,0-1.75,4.29,36.17,36.17,0,0,0-1.14,4.5,39.51,39.51,0,0,0-.58,4.46v.09H52v-.1a39.6,39.6,0,0,1,.53-4.5,36.72,36.72,0,0,1,1.1-4.55,31.11,31.11,0,0,1,1.72-4.36,26.51,26.51,0,0,1,2.32-3.91,22.56,22.56,0,0,1,2.77-3.22,18.4,18.4,0,0,1,3-2.35,15.72,15.72,0,0,1,2.9-1.42A13,13,0,0,1,68.73,1.29Zm-5,1.25-.41.25a2.11,2.11,0,0,1-.22.14l-.26.18-.64.43c-.48.33-1,.76-1.65,1.27l-.47.4-.48.45-.5.47c-.17.17-.34.34-.5.52l-.26.27-.25.28c-.17.19-.35.38-.52.59-.34.4-.67.84-1,1.29a24.06,24.06,0,0,0-1.88,3c-.15.27-.3.55-.43.83s-.28.56-.41.85-.26.58-.38.87-.25.6-.35.9A31.35,31.35,0,0,0,52,19.26a32.49,32.49,0,0,0-.68,3.88c-.12,1.07-.21,2.13-.24,3.17h-.44c0-1,.07-2.13.17-3.22a35.66,35.66,0,0,1,.58-4,30,30,0,0,1,1.05-3.88A25.63,25.63,0,0,1,54,11.67a22.83,22.83,0,0,1,2-3.08c.17-.24.35-.46.53-.68s.37-.42.55-.63.36-.4.55-.59.37-.37.55-.55a19,19,0,0,1,2.14-1.75l.5-.33.47-.29.44-.26.41-.22c.26-.14.5-.25.7-.34s.39-.18.53-.23Zm-1-.76.13,0-.12,0-.37.13A12.49,12.49,0,0,0,61,2.48a18.55,18.55,0,0,0-2,1.1A20.62,20.62,0,0,0,56.6,5.36a23.29,23.29,0,0,0-2.47,2.49A26.81,26.81,0,0,0,51.82,11a31,31,0,0,0-2,3.7,32.89,32.89,0,0,0-1.49,4.07A35.86,35.86,0,0,0,47,26.31h-.24c.07-1.09.19-2.21.36-3.34A33.66,33.66,0,0,1,48,18.69a30,30,0,0,1,3.43-7.9,25,25,0,0,1,2.35-3.2,20.58,20.58,0,0,1,2.55-2.5,18.4,18.4,0,0,1,2.47-1.73,15.47,15.47,0,0,1,2.08-1c.6-.23,1.08-.38,1.41-.47ZM58.07,2.9c.39-.19.76-.35,1.1-.49s.66-.25.95-.34a13.22,13.22,0,0,1,1.38-.35L62,1.64l-.47.16c-.31.11-.75.28-1.3.52a16.61,16.61,0,0,0-1.91,1A19.47,19.47,0,0,0,56.05,5c-.4.32-.79.68-1.19,1.06s-.79.79-1.18,1.22a24.32,24.32,0,0,0-2.25,2.91,27.67,27.67,0,0,0-2,3.42c-.29.6-.57,1.22-.83,1.85s-.5,1.27-.73,1.92a36.54,36.54,0,0,0-1.09,3.94c-.28,1.32-.48,2.64-.62,3.92,0,.38-.07.75-.1,1.12h-.46c0-.38,0-.77.08-1.16.11-1.3.28-2.64.53-4a36.81,36.81,0,0,1,1-4.05,29.09,29.09,0,0,1,1.5-3.9,26.9,26.9,0,0,1,2-3.54,24.76,24.76,0,0,1,2.36-3c.41-.44.84-.85,1.26-1.23a15,15,0,0,1,1.28-1,14.58,14.58,0,0,1,1.25-.85A13.43,13.43,0,0,1,58.07,2.9ZM43,24.56c0-.45.09-.91.14-1.39s.13-1,.2-1.45c0-.24.09-.49.14-.74l.06-.37c0-.13.06-.25.08-.38s.11-.5.16-.75.13-.5.2-.76l.09-.38.11-.37c.08-.26.15-.51.23-.76.16-.5.32-1,.51-1.51s.39-1,.59-1.47.44-1,.68-1.43a24.53,24.53,0,0,1,1.55-2.65,20.84,20.84,0,0,1,1.74-2.27,19.63,19.63,0,0,1,1.81-1.83c.29-.27.59-.51.87-.74L53,4.7c.53-.36,1-.66,1.41-.88l.55-.3.41-.19.34-.16-.33.18-.4.22-.53.31c-.39.25-.85.56-1.36.94a20.87,20.87,0,0,0-1.63,1.4,19.61,19.61,0,0,0-1.74,1.85A24.42,24.42,0,0,0,48,10.35c-.27.41-.52.84-.78,1.27s-.49.89-.72,1.36-.44.93-.66,1.41-.4,1-.58,1.45-.34,1-.51,1.49c-.08.25-.15.5-.23.75l-.11.37-.09.37c-.07.25-.13.5-.2.75s-.11.5-.17.74l-.08.37-.07.37c-.05.25-.1.49-.14.73-.08.49-.16,1-.23,1.43s-.13.93-.17,1.38c-.07.6-.12,1.17-.15,1.72H42.9C42.92,25.75,43,25.17,43,24.56ZM41.12,36.14H33.6V30.88c0-.88.37-1.26,1.23-1.26h21v5.27c0,1-.37,1.25-1.23,1.25H48V72.22c0,1.25-.12,1.25-6.84,1.25ZM37.6,99c-3,0-4.24-1-4.24-1.73A1.83,1.83,0,0,1,33.88,96a4.9,4.9,0,0,0,3.59,1.17c2.77,0,3.86-1.63,3.86-4,0-1.82-.55-3.1-2.25-5l-3.47-3.68c-1.44-1.64-2.18-3-2.18-4.64,0-2.54,2-4.4,5.39-4.4,2.86,0,4,.72,4,1.43a1.58,1.58,0,0,1-.48,1.08A6.1,6.1,0,0,0,39,77.18c-2.21,0-3.66,1.08-3.66,2.74,0,1.34.74,2.35,1.77,3.52l3.82,4a7.36,7.36,0,0,1,2.31,5.61C43.19,96.46,41.65,99,37.6,99Zm8.31,2.88h.27a34.57,34.57,0,0,0,.66,4.24c.13.59.25,1.06.33,1.38l.13.49-.15-.48c-.09-.32-.24-.78-.39-1.37A33,33,0,0,1,45.91,101.92Zm2.29,6.94a34.7,34.7,0,0,1-1.08-5.25c-.07-.54-.13-1.11-.18-1.69h.15c0,.58.1,1.14.16,1.67a34.52,34.52,0,0,0,1,5.26c.18.62.33,1.11.44,1.44l.17.5-.18-.5C48.55,110,48.38,109.48,48.2,108.86Zm4.95-.16c-.11-.3-.27-.74-.46-1.29a37.4,37.4,0,0,1-1.29-4.72l-.15-.77h.26c0,.24.07.49.11.73a37.26,37.26,0,0,0,1.13,4.74c.17.56.32,1,.42,1.3l.16.46Zm1.18,1.54c-.13-.35-.31-.86-.52-1.52s-.46-1.46-.7-2.4-.48-2-.66-3.17c-.06-.4-.12-.81-.17-1.23h.16c0,.41.09.82.14,1.21a36.68,36.68,0,0,0,1.26,5.58c.2.66.38,1.17.5,1.53l.19.53Zm3.12-3c-.1-.32-.26-.79-.43-1.4a30.93,30.93,0,0,1-.83-3.89h.27a29.94,29.94,0,0,0,.65,3.86c.14.62.27,1.1.36,1.42l.15.5Zm1.87,3c-.13-.34-.31-.83-.51-1.47a31.38,31.38,0,0,1-1.11-5.42c-.05-.46-.1-1-.14-1.44h.16c0,.49.07,1,.12,1.42a30.33,30.33,0,0,0,1,5.43c.18.64.35,1.14.48,1.47s.19.52.19.52Zm35.56-8a32,32,0,0,1-2.47,8,28.39,28.39,0,0,1-2.13,3.79,22.9,22.9,0,0,1-2.83,3.4,17.24,17.24,0,0,1-3.55,2.72,13.23,13.23,0,0,1-4.22,1.59,11.35,11.35,0,0,1-2.25.21c-.38,0-.76,0-1.13-.06l-.16,0-.13,0-.27,0-.31-.06-.28-.07a10,10,0,0,1-3.87-2.15,17.08,17.08,0,0,1-2.73-3.07,22.68,22.68,0,0,1-1.92-3.35,27.46,27.46,0,0,1-1.3-3.4,30,30,0,0,1-.8-3.28,29.34,29.34,0,0,1-.41-3.06c0-.51-.06-1-.07-1.47H65c0,.44.1.89.17,1.35.14.94.33,1.92.58,2.93a26.58,26.58,0,0,0,1,3.09A25.22,25.22,0,0,0,68,112.43a20.83,20.83,0,0,0,1.91,3,15.53,15.53,0,0,0,2.52,2.67,8.35,8.35,0,0,0,3.16,1.68l.21,0,.2,0,.23,0,.13,0s0,0,0,0h.08c.31,0,.62,0,.94,0a9.9,9.9,0,0,0,1.87-.2,11.7,11.7,0,0,0,3.58-1.38A16.55,16.55,0,0,0,86,116a21.25,21.25,0,0,0,2.58-3.09,26.43,26.43,0,0,0,2-3.49,32.18,32.18,0,0,0,2.5-7.49h1.81Zm5.77-16.85h5.66c0,1.41,0,1.67-.39,1.67h-5.27v10H107c0,1.54,0,1.67-.38,1.67H98.92V76.33s0-.46.42-.46H107c0,1.47,0,1.67-.32,1.67h-6Zm6.45-18.13c0,5.83,0,6.2-1.18,6.2H91.5V30.88s.06-1.26,1.23-1.26h14.8c0,5.58,0,6.21-1.24,6.21h-8V46.54h7.52c0,5.26,0,6.39-1.11,6.39H98.34V67.27Z"></path><rect class="cls-1" x="118.29" y="69.56" width="13.14" height="0.83" transform="translate(-4.92 9.61) rotate(-4.32)"></rect><rect class="cls-1" x="126.9" y="67.24" width="0.83" height="17.82" transform="translate(46.7 200.67) rotate(-87.97)"></rect><rect class="cls-1" x="131.52" y="84.47" width="0.83" height="12.45" transform="translate(10.15 194.62) rotate(-74.98)"></rect><rect class="cls-1" x="114.79" y="84.57" width="0.83" height="3.28" transform="translate(2.06 175.1) rotate(-74.96)"></rect><rect class="cls-1" x="130.73" y="94.46" width="0.83" height="8.77" transform="translate(-9.74 183.24) rotate(-67.93)"></rect><rect class="cls-1" x="117.34" y="94.81" width="0.83" height="13.14" transform="translate(-28.74 153.18) rotate(-60.2)"></rect><rect class="cls-1" x="118.38" y="103.82" width="0.83" height="12.45" transform="translate(-40.53 138.94) rotate(-53.09)"></rect><polygon class="cls-1" points="99.96 102.11 99.38 102.71 108.55 111.53 115.45 119.29 116.08 118.73 109.16 110.96 99.96 102.11"></polygon><rect class="cls-1" x="13.27" y="104.04" width="12.45" height="0.83" transform="translate(-52.06 25.9) rotate(-31.76)"></rect><rect class="cls-1" x="5.64" y="100.5" width="8.77" height="0.83" transform="translate(-40.22 12.83) rotate(-24.03)"></rect><rect class="cls-1" x="6.33" y="89.16" width="25.96" height="0.83" transform="matrix(0.96, -0.29, 0.29, 0.96, -25.25, 9.5)"></rect><rect class="cls-1" x="0.12" y="78.52" width="8.77" height="0.83" transform="matrix(1, -0.07, 0.07, 1, -5.77, 0.54)"></rect><rect class="cls-1" x="11.03" y="46.96" width="0.83" height="17.32" transform="translate(-45.04 49.82) rotate(-72.51)"></rect><rect class="cls-1" x="19.21" y="40.44" width="0.83" height="21.09" transform="translate(-34.9 47.6) rotate(-65.4)"></rect><rect class="cls-1" x="12.26" y="35.43" width="0.83" height="4.09" transform="translate(-25.74 28.02) rotate(-57.48)"></rect><rect class="cls-1" x="19.72" y="27.98" width="0.83" height="12.45" transform="matrix(0.62, -0.78, 0.78, 0.62, -19.15, 28.61)"></rect><path class="cls-1" d="M64.2,82c0-2.58-.81-4.5-3.54-4.5H58.48v9.85h2C63,87.36,64.2,85.53,64.2,82Z"></path><path class="cls-1" d="M75.83,50.11h1.3c2,0,3.21-1.44,3.21-8,0-4.51-.81-6.51-2.78-6.51H75.83Z"></path></g></g></svg>