<svg xmlns="http://www.w3.org/2000/svg" viewBox="0 0 133.62 133.63"><defs><style>.cls-1{fill:#3f3f3f;}</style></defs><g id="Layer_2" data-name="Layer 2"><g id="Layer_1-2" data-name="Layer 1"><path class="cls-1" d="M36.84,27.76a4.69,4.69,0,0,0-1.93,2.57,6.63,6.63,0,0,0-.29,1.41c-2.95.77-6.89-1.29-6.93-1.31l-.62-.32.35.6C28.78,33.1,28.84,40.88,28.84,41v0l0,0a3.76,3.76,0,0,0,1.4,1.52,7.24,7.24,0,0,0,4.91.91l.62-.08A4.38,4.38,0,0,0,37.3,43h0a2.51,2.51,0,0,0,1-1.51,8.79,8.79,0,0,0-.07-2.22A17.69,17.69,0,0,1,42.4,40.3a32.2,32.2,0,0,1,4.12,1.88l1,16.16a.6.6,0,0,0,.64.57.53.53,0,0,0,.26-.07.6.6,0,0,0,.31-.57l-1.91-30a.61.61,0,0,0-1.22.07v0A13.83,13.83,0,0,0,40,27,6.19,6.19,0,0,0,36.84,27.76Zm2.35,1.64c0,.53-.06,1.1-.08,1.66,0,.28,0,.56,0,.82a5.32,5.32,0,0,0-1.33.26l-.9.34c.11-.81.2-1.66.27-2.41l.73-.36A4.12,4.12,0,0,1,39.19,29.4ZM42,32.15a6.21,6.21,0,0,1-.11,1l-.2,1.18A15.22,15.22,0,0,0,39.26,34H39a18.83,18.83,0,0,0,.16-2.06A12.82,12.82,0,0,1,42,32.15Zm-5-4,.18-.1c0,.37-.09,1.13-.17,2a8.79,8.79,0,0,0-2,1.3A4.69,4.69,0,0,1,37.06,28.11Zm-.27,4.43c-.07.56-.15,1.09-.23,1.56l0,.14a7,7,0,0,0-2.35,1c.12-.56.25-1.06.35-1.45C34.55,33.79,34.88,33.32,36.79,32.54Zm-3,5.34v-.06c0-.17,0-.33,0-.49.48-.82.84-1,2-1.07-.06.13-.11.25-.17.36a5.48,5.48,0,0,0-.7,2.44l-.2.08a2,2,0,0,0-.94.59A8,8,0,0,1,33.78,37.88Zm0,0a1.41,1.41,0,0,1-.85.27c0-.29,0-.57,0-.81,0-.44,0-1,.11-1.55h.1a2.26,2.26,0,0,0,1-.29A19.91,19.91,0,0,0,33.74,37.86Zm-.14-5.55a5.77,5.77,0,0,0,1.21-.2,5.34,5.34,0,0,1-.22,1.3l0,.18,0,.15c-.11.12-.41.28-1.24.37C33.4,33.32,33.53,32.63,33.6,32.31Zm-1,1.89.61-.05c-.08.51-.16,1.05-.22,1.58a9.64,9.64,0,0,1-1.7-.07c0-.55,0-1.08,0-1.57A4.74,4.74,0,0,0,32.61,34.2ZM31.36,38a6.75,6.75,0,0,1-1.46-.61c0-.61,0-1.3-.1-2a3.4,3.4,0,0,0,.94.28h.06l.46.06c0,.42,0,.86.06,1.29S31.36,37.62,31.36,38ZM30,31.79c.48.14.93.26,1.38.35a18.31,18.31,0,0,0-.11,1.9,7.3,7.3,0,0,1-1.62-.59c-.08-.81-.16-1.48-.2-1.84Zm-1.14,3c-.08-.67-.18-1.32-.31-1.92a8.59,8.59,0,0,0,1.06.62c0,.57.11,1.19.15,1.81A7.18,7.18,0,0,1,28.85,34.77Zm.34,4.17c0-.61-.06-1.32-.12-2.06a7.44,7.44,0,0,0,.78.49,6.92,6.92,0,0,1,0,.8c0,.49,0,1-.05,1.38A4.91,4.91,0,0,1,29.19,38.94Zm1.94,3.63a4.94,4.94,0,0,1-.62-.34,4.21,4.21,0,0,1-.72-.59c0-.37,0-1.08,0-2a7.43,7.43,0,0,0,1.46.9C31.23,41.46,31.16,42.23,31.13,42.57ZM31.4,38a3.09,3.09,0,0,0,.59.12,3.81,3.81,0,0,0,.86,0c-.06.89-.19,1.93-.31,2.83a11.39,11.39,0,0,1-1.21-.49C31.38,39.73,31.41,38.84,31.4,38Zm2.51,5.11A7.67,7.67,0,0,1,32.37,43c0-.38.1-1.09.2-1.9h0a5.59,5.59,0,0,0,1.45.23C34,41.92,33.92,42.78,33.91,43.12Zm.16-1.87c0-.17,0-.32.07-.43a6.32,6.32,0,0,0,.66.42C34.61,41.25,34.35,41.26,34.07,41.25Zm.81-1.72h0a4.75,4.75,0,0,1,.67-.21c0,.12,0,.28,0,.46A2.09,2.09,0,0,1,34.88,39.53Zm.75.29.83.12a2.23,2.23,0,0,1,.64.15,3.36,3.36,0,0,1-.52,1.56l-.65-.31-.57-.27A3.47,3.47,0,0,0,35.63,39.82Zm1.5,2.76-.05,0h0a3.73,3.73,0,0,1-1.36.37h0c0-.28.08-.83.08-1.25.37.17.71.34,1,.49s.39.31.39.33Zm0-2.52a8.7,8.7,0,0,0,.05-.9c.2,0,.41,0,.61,0a9.66,9.66,0,0,1,.13,1.5A1.83,1.83,0,0,0,37.15,40.06Zm.09-3.86-1.33,0a9.35,9.35,0,0,0,.65-1.94A9.44,9.44,0,0,1,38.9,34a2.09,2.09,0,0,1-.07.33,17.3,17.3,0,0,0-.41,1.86l-.38,0Zm4,3.26a16.06,16.06,0,0,0-2.63-.6L38,38.8c.06-.44.23-1.52.41-2.55a13.5,13.5,0,0,1,2.94.64A24,24,0,0,0,41.2,39.46Zm.23-2.6c.09-.84.21-1.73.32-2.47.81.18,1.6.4,2.3.63a15.62,15.62,0,0,0,.14,1.88c.05.37.1.72.13,1C43.44,37.57,42.43,37.18,41.43,36.86ZM48.09,58.1h.16l0,0,.08,0,0,.06,0,0,0,0a.11.11,0,0,0,0,0l0,0,0,0,0,0,0,0h0l-.07,0h-.15a.7.7,0,0,0-.28.12l-.09.06,0,0a.1.1,0,0,1,0,0,.37.37,0,0,1,.06-.1.51.51,0,0,1,.13-.12A.48.48,0,0,1,48.09,58.1Zm-1-12.72c0,.26,0,.55.07.86s0,.67.08,1,.05.75.08,1.14l.09,1.23c0,.41,0,.84.08,1.26s.06.85.08,1.27,0,.82.08,1.22c0,.8.09,1.54.12,2.17,0,.32,0,.61.05.87s0,.48,0,.67c0,.37,0,.58,0,.58l0-.58c0-.18,0-.41-.06-.67s0-.55-.07-.86c0-.64-.1-1.38-.16-2.17,0-.4-.06-.81-.08-1.23l-.09-1.26c0-.42,0-.85-.08-1.26s-.05-.83-.08-1.23,0-.78-.06-1.14,0-.71-.06-1,0-.61,0-.87,0-.48,0-.67c0-.37,0-.58,0-.58s0,.21,0,.58C47.07,44.9,47.09,45.12,47.11,45.38Zm-.29-6.27L47,42c-.53-.29-1.63-.92-2.56-1.33A15.44,15.44,0,0,0,44.37,38C45.48,38.47,46.39,38.9,46.82,39.11Zm-.2-3A19.06,19.06,0,0,0,44.09,35c0-.75,0-1.57,0-2.38,1,.27,1.85.55,2.31.7ZM44.4,28.32c.38.14,1.19.44,1.74.67l.11,1.62c-.37-.12-1.09-.36-2-.59C44.32,29.24,44.37,28.62,44.4,28.32Zm-2.32,1.27c.76.13,1.49.3,2.14.47,0,.73-.1,1.6-.13,2.5l-.72-.18c-.41-.1-.85-.19-1.3-.27C42.11,31.35,42.1,30.42,42.08,29.59Zm-.11-2c0,.29.05,1.05.07,1.93a12.27,12.27,0,0,0-2.81-.19,10,10,0,0,1,.24-1.91l.52,0A10.6,10.6,0,0,1,42,27.61Z"></path><path class="cls-1" d="M87.43,27.71a.61.61,0,0,0-.65.57l-1.91,30a.62.62,0,0,0,.31.57.59.59,0,0,0,.26.07.6.6,0,0,0,.65-.57l1-16.16a31.86,31.86,0,0,1,4.11-1.88,17.9,17.9,0,0,1,4.18-1.07,8.35,8.35,0,0,0-.07,2.22,2.47,2.47,0,0,0,1,1.51h0a4.31,4.31,0,0,0,1.51.42l.61.08a7.27,7.27,0,0,0,4.92-.91,3.85,3.85,0,0,0,1.4-1.52V41c0-.07.07-7.85,1.43-10.24l.34-.6-.61.32s-4,2.08-6.93,1.31a6.21,6.21,0,0,0-.3-1.41,4.64,4.64,0,0,0-1.93-2.57A6.1,6.1,0,0,0,93.65,27,13.79,13.79,0,0,0,88,28.39v0A.6.6,0,0,0,87.43,27.71Zm-.22,5.6c.46-.15,1.29-.43,2.3-.7,0,.81,0,1.63,0,2.38A18.85,18.85,0,0,0,87,36.1ZM85.9,58.4l-.1-.06a.61.61,0,0,0-.27-.12h-.15l-.07,0h0l0,0,0,0,0,0,0,0,0,0,0,0,0,0,.06-.06.08,0,0,0h.16a.54.54,0,0,1,.19.07l.12.12a.37.37,0,0,1,.06.1.06.06,0,0,1,0,0Zm.71-13.69c0,.19,0,.41,0,.67s0,.55,0,.87,0,.66-.06,1,0,.74-.07,1.14-.05.81-.07,1.23-.06.84-.08,1.26l-.09,1.26q0,.63-.09,1.23c0,.79-.11,1.53-.16,2.17,0,.31,0,.61-.07.86s0,.49,0,.67l-.05.58,0-.58c0-.19,0-.41,0-.67s0-.55,0-.87c0-.63.08-1.37.13-2.17L86,52.17c0-.42.06-.84.08-1.27l.09-1.26.09-1.23c0-.39,0-.78.08-1.14s.05-.71.08-1,.05-.6.07-.86,0-.48,0-.67c0-.37,0-.58,0-.58S86.62,44.34,86.61,44.71Zm2.56-4c-.92.41-2,1-2.55,1.33l.2-2.93c.43-.21,1.34-.64,2.44-1.11A16.57,16.57,0,0,0,89.17,40.71Zm.14-2.77c0-.32.08-.67.14-1A14,14,0,0,0,89.58,35c.71-.23,1.5-.45,2.31-.63.11.74.22,1.63.32,2.47C91.21,37.18,90.2,37.57,89.31,37.94Zm2.3-5.79a12.9,12.9,0,0,1,2.91-.23A18.47,18.47,0,0,0,94.69,34h-.32a15.22,15.22,0,0,0-2.45.35c-.07-.47-.14-.88-.2-1.18A9.73,9.73,0,0,1,91.61,32.15Zm3.45,6.71a16.54,16.54,0,0,0-2.63.6,21.17,21.17,0,0,0-.18-2.57,13.55,13.55,0,0,1,2.93-.64c.19,1,.35,2.11.42,2.55Zm.16-2.65c-.14-.74-.28-1.44-.41-1.86,0-.09,0-.2-.08-.33a9.33,9.33,0,0,1,2.34.26,8.78,8.78,0,0,0,.66,1.94l-1.33,0h-.8Zm.48,4.48a11.43,11.43,0,0,1,.12-1.5l.62,0a6.56,6.56,0,0,0,0,.9A1.77,1.77,0,0,0,95.7,40.69ZM97.91,43a3.73,3.73,0,0,1-1.36-.37h0l0,0s0,0,0,0,0-.12.38-.33.61-.32,1-.49A8.84,8.84,0,0,0,97.92,43Zm-.2-1.64-.65.31a3.38,3.38,0,0,1-.53-1.56,2.3,2.3,0,0,1,.65-.15l.83-.12a3.27,3.27,0,0,0,.27,1.25Zm2.1-4c0,.16,0,.32,0,.49v.06a8,8,0,0,1,0,1.85,2.05,2.05,0,0,0-.94-.59l-.21-.08a5.36,5.36,0,0,0-.7-2.44c0-.11-.11-.23-.16-.36C99,36.32,99.32,36.51,99.81,37.33Zm-.27-1.86a2.31,2.31,0,0,0,1,.29h.1a13.23,13.23,0,0,1,.11,1.55c0,.24,0,.52,0,.81a1.37,1.37,0,0,1-.84-.27A18.08,18.08,0,0,0,99.54,35.47Zm-1.49,4.3a3.5,3.5,0,0,1,0-.46,5.2,5.2,0,0,1,.67.21h0A2.18,2.18,0,0,1,98.05,39.77Zm.78,1.47a5.42,5.42,0,0,0,.66-.42,3,3,0,0,1,.08.43C99.28,41.26,99,41.25,98.83,41.24Zm.89,1.88a18,18,0,0,0-.11-1.84,5.53,5.53,0,0,0,1.45-.23h0c.11.81.2,1.52.21,1.9A7.78,7.78,0,0,1,99.72,43.12ZM101.09,41c-.11-.9-.24-1.94-.3-2.83a3.81,3.81,0,0,0,.86,0,3,3,0,0,0,.58-.12c0,.83,0,1.72.07,2.5A10.59,10.59,0,0,1,101.09,41Zm1.18-3c0-.34,0-.66,0-1s0-.87.06-1.29l.46-.06h.07a3.5,3.5,0,0,0,.94-.28c0,.7-.09,1.39-.1,2A6.63,6.63,0,0,1,102.27,38Zm.86,4.27a6,6,0,0,1-.63.34c0-.34-.1-1.11-.15-2a7.74,7.74,0,0,0,1.46-.9c0,.93,0,1.64,0,2A4.65,4.65,0,0,1,103.13,42.23Zm1.31-3.29a4.8,4.8,0,0,1-.59.61c0-.42,0-.89-.06-1.38,0-.23,0-.51,0-.8a6.77,6.77,0,0,0,.79-.49C104.51,37.62,104.47,38.33,104.44,38.94Zm.34-4.17a6.52,6.52,0,0,1-.9.51c.05-.62.1-1.24.16-1.81a8.59,8.59,0,0,0,1.06-.62C105,33.45,104.87,34.1,104.78,34.77Zm-1.14-3,.56-.18c0,.36-.12,1-.2,1.84a7.49,7.49,0,0,1-1.62.59c0-.82-.06-1.5-.11-1.9C102.71,32.05,103.17,31.93,103.64,31.79ZM101,34.2a4.81,4.81,0,0,0,1.32-.11c0,.49,0,1,0,1.57a9.56,9.56,0,0,1-1.69.07c-.06-.53-.14-1.07-.23-1.58Zm-1-1.89c.06.32.2,1,.32,1.8-.82-.09-1.12-.25-1.23-.37l0-.15,0-.18a5.68,5.68,0,0,1-.21-1.3A5.66,5.66,0,0,0,100,32.31Zm-.93,1.51c.1.39.23.89.35,1.45a7,7,0,0,0-2.35-1l0-.14c-.09-.47-.17-1-.24-1.56C98.75,33.32,99.09,33.79,99.11,33.82Zm-2.53-5.71a4.64,4.64,0,0,1,2,3.23,8.41,8.41,0,0,0-2-1.3c-.09-.9-.15-1.66-.17-2Zm-.78,1.6.73.36c.07.75.16,1.6.26,2.41l-.9-.34a5.23,5.23,0,0,0-1.33-.26c0-.26,0-.54,0-.82,0-.56,0-1.13-.08-1.66A4.12,4.12,0,0,1,95.8,29.71Zm-4.14-2.1a10.68,10.68,0,0,1,2-.19l.53,0a9.4,9.4,0,0,1,.23,1.91,12.31,12.31,0,0,0-2.81.19C91.61,28.66,91.65,27.9,91.66,27.61Zm-.11,2c0,.83,0,1.76,0,2.52-.46.08-.9.17-1.31.27l-.71.18c0-.9-.09-1.77-.14-2.5C90.06,29.89,90.8,29.72,91.55,29.59Zm-2.32-1.27c0,.3.08.92.14,1.7-.89.23-1.61.47-2,.59L87.5,29C88.05,28.76,88.86,28.46,89.23,28.32Z"></path><path class="cls-1" d="M59,27.38V25.33a20.22,20.22,0,0,0-.44-4.94A3.34,3.34,0,0,0,54.85,18a3.65,3.65,0,0,0-3.1,1.43q-1.09,1.43-1.09,5.76v9.48q0,4.92,1.23,6.46a3.6,3.6,0,0,0,3,1.26,3.44,3.44,0,0,0,2.94-1.27,6,6,0,0,0,.8-2,20.57,20.57,0,0,0,.35-4.5v-1.9h-2v1.91a18.69,18.69,0,0,1-.4,4.76,1.64,1.64,0,0,1-1.7,1.32,1.71,1.71,0,0,1-1.73-1.32,17.58,17.58,0,0,1-.43-4.77V25.07a12.65,12.65,0,0,1,.49-4.13,1.88,1.88,0,0,1,2.53-1.16,2,2,0,0,1,.92,1.28,16.32,16.32,0,0,1,.32,4v2.3Z"></path><path class="cls-1" d="M65.05,18.28,61.22,42.1h1.91l.71-4.83h4.77l.78,4.83h2L67.11,18.28Zm-1,17.32,2-13.48h0L68.34,35.6Z"></path><path class="cls-1" d="M82.06,27.91a10.28,10.28,0,0,0,.49-3.48,23.77,23.77,0,0,0-.17-3.24,3.93,3.93,0,0,0-.79-1.89c-.55-.68-1.64-1-3.28-1h-4V42.1h2V30.35l2.14.13c1,0,1.61.23,1.81.68a10,10,0,0,1,.3,3.17V37c0,1.66,0,2.86,0,3.61a4.1,4.1,0,0,0,.26,1.54h2a5.56,5.56,0,0,1-.25-.94c0-.26,0-1.23,0-2.92q0-6.1-.8-7.66a1.86,1.86,0,0,0-.58-.71,2.11,2.11,0,0,0-.8-.29A2.49,2.49,0,0,0,82.06,27.91ZM80.53,24.2a17.36,17.36,0,0,1-.19,3.27,2.21,2.21,0,0,1-.56,1.17,2,2,0,0,1-1.4.36H76.27V20h2.26a2.14,2.14,0,0,1,1.27.3,1.85,1.85,0,0,1,.56,1.14A14.07,14.07,0,0,1,80.53,24Z"></path><polygon class="cls-1" points="52.07 58.7 54.19 58.7 55.48 49.4 56.72 58.7 58.84 58.7 60.45 44.71 58.53 44.71 57.63 54.68 56.31 44.71 54.6 44.71 53.3 54.68 52.27 44.71 50.36 44.71 52.07 58.7"></polygon><path class="cls-1" d="M63.17,58.7l.3-2.5h2.26l.33,2.5h2l-2.13-14H63.11l-2,14Zm1.36-11.23h0l.93,7H63.67Z"></path><path class="cls-1" d="M72.18,44.54a2.78,2.78,0,0,0-2.3.84,4.94,4.94,0,0,0-.26,4.46,6.11,6.11,0,0,0,1.12,1.56l1,1.07a5.27,5.27,0,0,1,1,1.37,3.36,3.36,0,0,1,.32,1.54,3.28,3.28,0,0,1-.18,1.27.71.71,0,0,1-.72.39.74.74,0,0,1-.75-.48,4.73,4.73,0,0,1-.2-1.64v-1.4h-2v1.24a5.86,5.86,0,0,0,.65,3.05,2.48,2.48,0,0,0,2.3,1,2.64,2.64,0,0,0,2.3-.94,5.09,5.09,0,0,0,.66-2.9,4.88,4.88,0,0,0-.44-2.1A7.49,7.49,0,0,0,73.4,51l-1.16-1.25a5.82,5.82,0,0,1-.8-1,2.14,2.14,0,0,1-.22-1.06,1.79,1.79,0,0,1,.22-1,.79.79,0,0,1,.71-.34.65.65,0,0,1,.67.45A4.17,4.17,0,0,1,73,48.25v1h2v-.87a5.82,5.82,0,0,0-.57-2.87A2.36,2.36,0,0,0,72.18,44.54Z"></path><polygon class="cls-1" points="82.87 58.7 82.87 44.71 80.74 44.71 80.74 50.37 78.83 50.37 78.83 44.71 76.7 44.71 76.7 58.7 78.83 58.7 78.83 52.2 80.74 52.2 80.74 58.7 82.87 58.7"></polygon><path class="cls-1" d="M66.21,130.7l1.64-.07c.55,0,1.1,0,1.65-.07l1.63-.15a61,61,0,0,0,33.27-13.76,62.25,62.25,0,0,0,7.62-7.5,60.42,60.42,0,0,0,9.65-15.8,58.17,58.17,0,0,0,3.8-13.63,62.86,62.86,0,0,0,.63-9c0-1-.07-1.83-.09-2.37s0-.81,0-.81h0a37.49,37.49,0,0,1-6.91,6,18.32,18.32,0,0,1-2.14,12.89c-4.3,7.27-18,14.72-25.84,18.51a176,176,0,0,1-20.2,8.34,50.55,50.55,0,0,1-7.44,2,23.44,23.44,0,0,1-6.49-.16l-4.85,2.43a.87.87,0,0,1-.24.1c-.22.1-.45.19-.67.27a7.49,7.49,0,0,1-2.31.36c-4,0-8.39-2.95-11.26-7.74-2.95-.89-5.79-1.79-8.33-2.62-.88-.79-1.72-1.62-2.54-2.46,3.35,1.13,7.5,2.48,11.9,3.78.06.12.13.23.2.35,3.07,5.24,8.12,8.11,11.85,6.87a5.36,5.36,0,0,0,.6-.24l.11,0,5.27-2.65a23.53,23.53,0,0,0,6.52.24,50.71,50.71,0,0,0,7.2-1.94,173.72,173.72,0,0,0,20-8.26c7.65-3.72,21.09-11,25.19-17.92a16.42,16.42,0,0,0,.6-15.64,10.06,10.06,0,0,0-8.09-5.76c-9-.64-33.14,5-34.56,5.37l-.17,0-2.12-1.65C63.41,61.83,62.4,61,53.54,63c-9.28,2-26.64,7.85-32.36,11.18-4,2.34-5.26,7.34-5.65,10.32L14.17,85h0l-1.45.49-.12-.35c-.16-.48-.34-1-.47-1.45s-.29-1-.43-1.46l-.21-.73-.17-.74c-.24-1-.51-2-.67-3-.1-.5-.19-1-.29-1.49s-.14-1-.22-1.49A59.35,59.35,0,0,1,9.66,63c0-.48.05-.94.09-1.42s.11-1,.16-1.45.09-1,.17-1.45.15-.95.23-1.42.13-1,.24-1.42l.3-1.4c.1-.47.17-.94.3-1.4l.36-1.37a56.62,56.62,0,0,1,3.87-10.38A59.53,59.53,0,0,1,27.32,24.74a60.68,60.68,0,0,1,7-5.88,59.83,59.83,0,0,1,7.1-4.35A61.22,61.22,0,0,1,54.21,9.59,66.61,66.61,0,0,1,63,8l3.15-.3-.81,0c-.53,0-1.33-.07-2.37-.09a61.12,61.12,0,0,0-9,.62A58.3,58.3,0,0,0,40.28,12a60.58,60.58,0,0,0-15.8,9.65A61.61,61.61,0,0,0,17,29.23,61.1,61.1,0,0,0,5.73,50c-.16.5-.31,1-.46,1.5S5,52.49,4.86,53s-.25,1-.38,1.54-.21,1.05-.32,1.57-.21,1-.31,1.58-.16,1.06-.24,1.59-.16,1.07-.23,1.61-.11,1.1-.17,1.65a63,63,0,0,0,.16,13.22c.07.56.12,1.12.21,1.68s.19,1.11.28,1.67c.16,1.12.43,2.22.67,3.34l.18.83c.07.28.15.55.23.83l.45,1.65c.15.55.33,1.09.51,1.64L6.44,89a63.07,63.07,0,0,0,14.75,23.41,64.6,64.6,0,0,0,10.94,8.71,60.22,60.22,0,0,0,6.08,3.38l.39.19.4.18.79.35,1.59.7c1.07.42,2.14.85,3.22,1.24l1.64.54c.54.18,1.08.36,1.64.51l1.65.45.83.23.83.18c1.11.24,2.22.5,3.34.67l1.67.28c.56.09,1.12.13,1.67.2l1.68.2,1.71.11,1.71.11,1.58,0h1.66Zm-5-64.42,1.25-.38c2.28,1.22,5.07,3,6.82,4.14l-.66.07a16.64,16.64,0,0,1,1.29,1.1l.39.39a1.12,1.12,0,0,1,.13.15.94.94,0,0,0-.19-.06l-.52-.18c-.44-.16-1.07-.4-1.8-.69l-1.19-.48-.06,0-.47.05c-3,.31-6,.63-8.83,1L55.66,68l2.87-.91-.08,0-.61-.19-.57-.15-.54-.14-.49-.1-.44-.07-.37,0-.54-.05h-.2l.18-.08.22-.1c.08,0,.19-.07.3-.11l.39-.11.46-.09a9.31,9.31,0,0,1,1.14-.1c.21,0,.42,0,.65,0l.69.06a14,14,0,0,1,1.47.24C60.51,66.1,60.83,66.19,61.16,66.28Zm36.43,4.1.7.12c.23,0,.48.09.72.15l.75.18q.38.09.75.21l.76.25.76.29c.49.21,1,.43,1.46.68l.35.18.33.21c.23.13.44.27.65.41A10.93,10.93,0,0,1,106,74c.18.15.34.31.5.46l.43.46a8.9,8.9,0,0,1,.67.87,6.41,6.41,0,0,1,.44.73,4.07,4.07,0,0,1,.28.68,1.19,1.19,0,0,0-.08-.17c-.06-.11-.15-.27-.28-.47a9.12,9.12,0,0,0-1.22-1.47,9,9,0,0,0-.95-.84,13.07,13.07,0,0,0-1.15-.83c-.21-.13-.42-.27-.64-.39l-.34-.18-.34-.18c-.46-.24-.94-.45-1.43-.65l-.73-.29-.74-.25-.74-.22c-.24-.08-.49-.14-.73-.2s-.48-.11-.71-.17l-.68-.15-.65-.13-.61-.11-1.08-.17-.45-.07-.38,0-.72-.1h1.12l.45,0c.33,0,.69,0,1.09.09l.62.07Zm-.07-2.78a71.56,71.56,0,0,1,10.88-1.1c1,0-.64.25-1.12,1S105.25,66.73,97.52,67.6ZM44.74,99.14c0,.16,0,.32.06.5s.07.34.1.52a5.36,5.36,0,0,0,.14.54c.05.17.1.35.16.53l.09.25.09.25c.06.17.13.32.18.47s.13.29.18.42l.16.35c0,.1.09.19.12.27l.12.23a2.09,2.09,0,0,1-.15-.21c-.09-.14-.22-.34-.36-.59s-.14-.25-.21-.4-.15-.3-.22-.47-.14-.33-.2-.51-.11-.35-.17-.53-.09-.37-.14-.56-.06-.36-.08-.54,0-.35,0-.51,0-.32,0-.46,0-.28.06-.39.06-.21.07-.29l.08-.25s0,.1,0,.26a2,2,0,0,0,0,.29c0,.11,0,.24,0,.38S44.73,99,44.74,99.14Zm1.38,6.15,0,.1.06.1.12.18a1.29,1.29,0,0,0,.33.33.9.9,0,0,0,.4.18.51.51,0,0,0,.4-.07.66.66,0,0,0,.24-.3,1.17,1.17,0,0,0,.08-.36,1.52,1.52,0,0,0-.06-.57,1,1,0,0,0,0-.16v0l0,0a.53.53,0,0,1,.07.15,1.23,1.23,0,0,1,.08.25,1.57,1.57,0,0,1,0,.33,1.14,1.14,0,0,1-.06.4.79.79,0,0,1-.28.39.78.78,0,0,1-.5.1,1.17,1.17,0,0,1-.47-.21,1.7,1.7,0,0,1-.35-.36,2.39,2.39,0,0,1-.13-.21l-.05-.11a.54.54,0,0,1,0-.11,1.58,1.58,0,0,1-.11-.84.94.94,0,0,1,.25-.54l.08-.06s0,0,.06,0l0,0,0,0-.05,0-.06.06a.75.75,0,0,0-.13.22,1.31,1.31,0,0,0-.06.31A1.64,1.64,0,0,0,46.12,105.29Zm.63-2a1.08,1.08,0,0,0,0,.16l0-.16a3.39,3.39,0,0,1,0-.44v-.29a1.83,1.83,0,0,1,0-.33,2.09,2.09,0,0,1,0-.35c0-.12,0-.24.06-.36l.09-.35.11-.34.12-.31a2.21,2.21,0,0,1,.12-.27,3.36,3.36,0,0,1,.2-.39l.08-.15-.07.16-.08.17-.09.23c0,.09-.07.18-.11.27s-.07.2-.1.31l-.1.34-.09.35c0,.11-.05.23-.06.35s0,.23,0,.34a4.8,4.8,0,0,0,0,.62C46.73,103,46.74,103.14,46.75,103.25Zm-.41,3.18a1.49,1.49,0,0,0,.41.19,2.12,2.12,0,0,0,.39.09c-1,2.06.69,5.33.69,5.33a4.75,4.75,0,0,1-2-1.35A7.19,7.19,0,0,1,46.34,106.43ZM43,108.24a4.2,4.2,0,0,1-.9-1.9,7.22,7.22,0,0,1,3.43-1.06,2,2,0,0,0,.31.79A4.43,4.43,0,0,0,43,108.24Zm2.58-4.56a.87.87,0,0,0-.2.69s-3.53-.38-4.17-1.25a4.37,4.37,0,0,1-.17-2.36A6.38,6.38,0,0,0,45.59,103.68ZM41,104.83c0,.1.07.25.13.44s.13.41.23.67.1.26.16.4l.09.21.1.22.11.23.13.23c0,.08.08.16.13.24l.14.25c.19.32.42.65.66,1a11.85,11.85,0,0,0,.8,1,11.54,11.54,0,0,0,.93.92c.16.15.33.28.49.42s.35.28.52.4l.53.36.27.16.27.16a10.36,10.36,0,0,0,1.06.52,5.27,5.27,0,0,0,.51.19,4.66,4.66,0,0,0,.49.16,6.45,6.45,0,0,0,.88.17,6.55,6.55,0,0,0,.7,0h.26l.19,0h.17l-.16,0-.19.07-.26.06a4.26,4.26,0,0,1-.72.09c-.14,0-.29,0-.45,0l-.5,0a7,7,0,0,1-1.11-.25,7.45,7.45,0,0,1-1.17-.46A8.58,8.58,0,0,1,45.2,112l-.56-.41c-.18-.15-.37-.29-.54-.45a10.06,10.06,0,0,1-1-1l-.22-.26-.2-.28a6.58,6.58,0,0,1-.38-.54,9.36,9.36,0,0,1-.61-1.1,4.73,4.73,0,0,1-.23-.53c0-.09-.07-.18-.1-.26l-.08-.25a3.59,3.59,0,0,1-.14-.48,3.93,3.93,0,0,1-.1-.44c-.06-.27-.08-.52-.11-.72s0-.35,0-.46v-.16Zm6.77,1.75a1.11,1.11,0,0,0,.48-.67,5.87,5.87,0,0,0,3.83,3.63,3.81,3.81,0,0,1-.84,2A11.71,11.71,0,0,1,47.75,106.58Zm.5-1.31a1.41,1.41,0,0,0-.17-.55c1.11.51,2.62-1.71,2.62-1.71a10.28,10.28,0,0,1,.75,2C49,105.18,48.25,105.27,48.25,105.27Zm2.34-4.52c-.37-.42-.75-.83-1.15-1.23s-.8-.76-1.23-1.11a14.72,14.72,0,0,0-1.28-1c-.33-.23-.67-.43-1-.62l-.34-.11c-.21,0-.42-.1-.64-.13s-.42,0-.62,0H44l-.28,0-.27.05-.25,0-.23.06-.2.06-.32.13-.28.12.26-.15.32-.15a2.85,2.85,0,0,1,.42-.16l.26-.07.27-.06.29,0,.31,0a4.82,4.82,0,0,1,.65,0l.25,0a8.93,8.93,0,0,0-1-.39,6.6,6.6,0,0,0-2.6-.41,4.72,4.72,0,0,0-2.13.63,4.89,4.89,0,0,0-1.34,1.16,6.75,6.75,0,0,0-.65,1l-.14.28,0,.1,0-.1.09-.31a5.59,5.59,0,0,1,.5-1.1,4.81,4.81,0,0,1,1.27-1.44,4.91,4.91,0,0,1,1-.61,5.69,5.69,0,0,1,1.29-.37,7.17,7.17,0,0,1,3,.22,11.79,11.79,0,0,1,3,1.35,16.48,16.48,0,0,1,1.42,1c.46.36.91.75,1.34,1.16s.84.85,1.24,1.3c.19.23.39.46.57.69l.28.36.27.35c.17.23.35.47.53.69s.34.45.53.67.36.44.55.65l.57.62c.19.21.39.4.58.6l.6.56a14.39,14.39,0,0,0,1.26,1,11,11,0,0,0,1.32.77,8.29,8.29,0,0,0,1.37.54l.34.09.34.08.34.07.34.06a12.09,12.09,0,0,0,1.32.1,16.82,16.82,0,0,0,2.34-.14c.71-.1,1.32-.19,1.82-.29l1.17-.23.41-.08-.39.15-.48.17c-.19.07-.4.15-.65.22-.49.16-1.09.36-1.79.52a15.18,15.18,0,0,1-2.41.39,10.38,10.38,0,0,1-2.94-.21A9.88,9.88,0,0,1,56.71,107,15,15,0,0,1,54,104.8c-.21-.21-.42-.43-.62-.65l-.59-.67c-.2-.22-.38-.46-.57-.69l-.54-.7-.27-.35-.26-.33Zm-13.05,1.62c0,.12,0,.25,0,.36l0,.36c0,.23,0,.45.06.66s.06.42.08.6.06.35.08.5.05.28.07.39.05.34.05.34,0-.12-.1-.33l-.1-.38a4.61,4.61,0,0,1-.12-.5c0-.18-.08-.38-.12-.59s-.06-.44-.09-.67l0-.36c0-.12,0-.24,0-.37a6.26,6.26,0,0,1,0-.75v-.38c0-.12,0-.25,0-.37a2.35,2.35,0,0,1,.05-.37l.07-.35a3.38,3.38,0,0,1,.08-.34c0-.11.06-.22.1-.32s.15-.4.23-.56a3.59,3.59,0,0,1,.26-.45,3.78,3.78,0,0,1,.24-.32l.18-.18.07-.06a.36.36,0,0,0-.07.07s-.09.11-.15.2A3.83,3.83,0,0,0,38,99c-.08.17-.13.36-.2.56s0,.21-.08.32-.05.21-.07.33,0,.23-.05.34,0,.24,0,.36,0,.24,0,.37v.37C37.52,101.88,37.53,102.13,37.54,102.37Zm.2,4.55s-7.07-4-9.79-4.66a27.49,27.49,0,0,1,9.11,2.23S37.34,105.62,37.74,106.92Zm69.88-23.24-.91.72-.66.49-.78.57-.9.63-1,.69-.54.36-.57.37-1.2.77-1.29.78-.66.4-.69.39-1.41.8c-.48.27-1,.53-1.46.79l-.75.4-.75.39L92.52,93l-.77.37-.77.36-1.54.7c-.25.11-.5.24-.76.34l-.76.32-1.5.62-.73.3-.73.28-1.41.52-.68.25q-.33.14-.66.24L81,97.7l-1.16.38c-.37.12-.72.24-1.05.32L77,98.89l-1.5.41L77,98.81l1.7-.56c.33-.1.67-.24,1-.37l1.15-.42L82.12,97c.21-.07.43-.16.65-.25l.67-.26,1.39-.56.72-.28.72-.31,1.49-.64c.5-.22,1-.43,1.51-.67l1.53-.71.77-.36.76-.37,1.52-.75.75-.39.74-.39,1.47-.77,1.41-.78.69-.38.67-.39,1.3-.75,1.21-.74.58-.34.55-.35,1-.65.93-.6c.29-.18.56-.36.8-.53l.68-.46,1-.66.33-.24Zm.19.74-.31.26-.89.73-.66.51-.77.59-.89.66-1,.7-.53.38-.57.38-1.18.78-1.28.81-.66.41-.68.41-1.4.83-1.45.81-.74.4-.75.41-1.52.77-.76.39L91,95l-1.54.72-.76.35-.76.32-1.5.64-.73.31-.73.28-1.4.53-.68.26c-.22.08-.44.17-.66.23L81,99.08l-1.16.39c-.37.12-.72.24-1,.33l-1.73.48-1.51.42,1.48-.5,1.71-.56c.33-.1.67-.23,1-.37l1.15-.42,1.25-.46.65-.25.67-.27,1.39-.57.72-.29.72-.31L87.78,96l.75-.33c.26-.11.5-.24.76-.36l1.52-.72.77-.37.75-.38,1.52-.77.75-.4.73-.4,1.46-.8,1.41-.8.68-.4.67-.4,1.28-.77,1.21-.76.57-.36.54-.35,1-.67.91-.62.79-.56.68-.47.93-.69Zm0-1.69-.93.69-.67.48-.79.55-.91.62-1,.66-.55.35-.58.36-1.21.74-1.29.75-.67.39-.69.39L97,89.49c-.48.26-1,.51-1.47.76l-.75.38c-.25.13-.5.26-.76.38l-1.53.74-.76.37-.78.34-1.54.69-.76.33-.77.31-1.5.61-.73.29L85,95l-1.41.51-.67.25-.66.23-1.27.41-1.16.37c-.37.12-.71.24-1,.32L77,97.53l-1.5.41L77,97.45l1.7-.55c.33-.1.67-.23,1-.37l1.14-.41,1.25-.44.32-.12.33-.13.67-.26,1.39-.54.72-.28.73-.31,1.49-.62c.5-.21,1-.42,1.51-.66l1.53-.69.77-.34.77-.37,1.53-.73.75-.37.75-.38,1.47-.75,1.42-.76L99,88l.67-.38,1.31-.72,1.22-.71.59-.34.55-.33,1-.63.93-.58.82-.51.69-.45.95-.64.34-.23Zm-.29-1.27c-.66.5-1.33,1-2,1.43s-1.36.92-2,1.37-1.39.88-2.09,1.3-1.41.85-2.12,1.26c-.35.21-.71.41-1.07.61L97.06,88l-2.18,1.16c-.73.37-1.46.74-2.2,1.09s-1.49.71-2.23,1.06l-1.13.5-1.13.49-1.13.49-1.14.46c-.38.16-.76.31-1.15.45l-1.15.44c-.77.28-1.54.58-2.31.84l-1.17.4L79,95.78c-.78.26-1.57.49-2.36.72l-1.18.34-1,.28c0,.08,0,.17,0,.25s0,.29,0,.44,0,.59,0,.88a17.2,17.2,0,0,0,.18,1.76,11.12,11.12,0,0,0,.39,1.73c.08.29.18.57.28.84l.18.42.19.4c-.08-.13-.16-.25-.23-.39s-.14-.26-.21-.39a8.67,8.67,0,0,1-.36-.83c-.06-.14-.11-.28-.16-.42s-.09-.28-.14-.43-.16-.58-.23-.87A13.62,13.62,0,0,1,74,98.72c0-.3-.06-.6-.07-.9,0-.15,0-.3,0-.46v-.62l.17-.07c.77-.27,1.55-.53,2.31-.81s1.54-.55,2.3-.84l1.15-.43L81,94.14c.76-.28,1.51-.6,2.27-.9l2.26-.94,1.12-.48,1.12-.49c.75-.32,1.49-.66,2.24-1l2.21-1,2.21-1.06,2.19-1.09L98.78,86c.72-.37,1.44-.76,2.16-1.15l2.14-1.18c.72-.39,1.42-.81,2.13-1.21,1.41-.82,2.82-1.66,4.2-2.54C108.78,80.48,108.13,81,107.47,81.46ZM92.67,83.8c.21-.22.8,0,1.32.51s.75,1.09.53,1.31-.81,0-1.32-.51S92.45,84,92.67,83.8ZM87,80.65l-1-.08-1.49-.09-1.93-.11-2.29-.1-1.25,0-1.3,0c-.89,0-1.8,0-2.73,0H73.61c-.47,0-.94,0-1.41,0H70.79l-1.41,0-.69,0-.69,0-1.34.07-1.31.07-1.24.1-1.18.08-1.1.11-1.93.18-1.48.18-1,.11-.34,0,.34-.07.94-.2,1.47-.3,1.91-.31,1.1-.16L64.06,80l1.25-.14c.21,0,.43,0,.65-.06l.66,0c.89-.07,1.8-.15,2.74-.18l1.41-.06,1.42,0h1.42l1.41,0h.7l.69,0,1.36.06c.89,0,1.74.1,2.56.16s1.58.14,2.29.22,1.35.15,1.93.23,1.07.15,1.48.22l1,.16.33.06ZM43.51,85.84l2.17,0c.79,0,1.65,0,2.56,0s1.87,0,2.87,0,2,0,3.06,0h1.58c.52,0,1.07,0,1.6,0s1.08.09,1.61.16,1.07.16,1.59.28a14.09,14.09,0,0,1,3,1A10.94,10.94,0,0,1,66,88.76a10,10,0,0,1,1,.95,9.86,9.86,0,0,1,.79,1,9.29,9.29,0,0,1,1,2,10,10,0,0,1,.45,1.63,8,8,0,0,1,.11,1.08,3.64,3.64,0,0,1,0,.38s0-.13,0-.37a8,8,0,0,0-.23-1.05,10.71,10.71,0,0,0-.59-1.54A9.54,9.54,0,0,0,67.39,91a9.75,9.75,0,0,0-1.77-1.74,11.63,11.63,0,0,0-2.4-1.37A16,16,0,0,0,60.37,87c-.5-.1-1-.19-1.52-.25s-1-.11-1.55-.14-1,0-1.56-.06l-1.58,0c-1,0-2.07,0-3.06-.07s-2-.06-2.86-.1l-2.57-.11c-1.59-.07-2.91-.15-3.84-.22L40.76,86l-.38,0,1.45-.06ZM70.11,101l-.77.33-.41.17-.49.17-.56.2-.64.17a6.49,6.49,0,0,1-.7.18l-.75.15a14.33,14.33,0,0,1-1.66.17,6.59,6.59,0,0,1-.89,0,3.38,3.38,0,0,1-.45,0l-.46,0c-.31,0-.61-.09-.92-.13l-.46-.1-.45-.12a10.47,10.47,0,0,1-1.74-.68c-.28-.13-.54-.3-.8-.45l-.37-.25-.18-.13-.18-.13A10.49,10.49,0,0,1,56,99.36a11.47,11.47,0,0,1-.94-1.17,10.08,10.08,0,0,1-1.06-2c-.11-.25-.17-.45-.22-.58l-.06-.21.1.19c.06.13.16.31.29.54s.31.5.51.81.46.63.74,1a13.31,13.31,0,0,0,1,1.05l.29.26.3.26.32.25.33.24.17.13.18.11.36.22c.25.13.5.28.76.4a11.57,11.57,0,0,0,1.64.63l.43.1a3,3,0,0,0,.43.1,8.55,8.55,0,0,0,.86.14c.29,0,.58.07.86.08s.57,0,.85,0c.56,0,1.1,0,1.61-.08s1-.12,1.44-.21l.64-.12.57-.13.5-.11.43-.11Zm-5.92-9.8.18.12a5.26,5.26,0,0,1,.62.51c.18.18.34.36.48.53a4.73,4.73,0,0,1,.56.89,2.21,2.21,0,0,1,.16.37l-.07-.08-.19-.22L65.62,93l-.42-.39a5.7,5.7,0,0,0-.53-.41,5.49,5.49,0,0,0-.62-.4,6.36,6.36,0,0,0-.69-.35,5.24,5.24,0,0,0-.76-.26,5.14,5.14,0,0,0-.78-.16l-.39,0h-.76l-.36,0c-.12,0-.23,0-.35,0l-.32,0c-.21,0-.4.06-.57.1a3.57,3.57,0,0,0-.43.09l-.39.08.34-.21.41-.2.26-.12.29-.1.33-.11a3.15,3.15,0,0,1,.36-.09l.38-.07.41,0,.43,0c.14,0,.29,0,.43,0a5.36,5.36,0,0,1,.89.16,5,5,0,0,1,.84.31c.13.07.26.13.39.21ZM58.06,91l-.1.12-.1.15a3.15,3.15,0,0,0-.24.38,1.34,1.34,0,0,1-.12.24l-.09.28a4.94,4.94,0,0,0-.17.64,5.57,5.57,0,0,0,0,1.57,5.93,5.93,0,0,0,.48,1.54,4,4,0,0,1-.17-.94,4.1,4.1,0,0,1,.11-1.34,3.13,3.13,0,0,1,.21-.52l.11-.22.12-.18a2.31,2.31,0,0,1,.18-.23l-.2-.13-.29-.17-.11-.06.12,0,.3.15.23.12h0a1.14,1.14,0,0,1,.11-.11l.09-.07.18-.14-.13.18-.07.1-.06.12.1.06a5.3,5.3,0,0,1,.57.39,6.61,6.61,0,0,1,.64.5l.33.29.34.31.15.15a6.42,6.42,0,0,1,1.51-.41l0,0-.34-.33a3.11,3.11,0,0,0-.32-.31l-.31-.29c-.1-.1-.2-.18-.3-.27l-.28-.23-.26-.21c-.17-.12-.31-.23-.44-.31l-.29-.19-.11-.06.12,0a2.34,2.34,0,0,1,.31.16c.13.07.29.16.46.27s.38.25.58.41l.32.24.33.28c.23.19.45.41.69.63l.18.18a1.43,1.43,0,0,1,.39,0l.28.07a1.93,1.93,0,0,1,.54.25,1.53,1.53,0,0,1,.35.28,2.35,2.35,0,0,1,.19.22l.06.08-.08-.06-.09-.08-.14-.08a1.81,1.81,0,0,0-.37-.2,2.45,2.45,0,0,0-.52-.15l-.28,0v0l.17.19c.22.25.46.5.67.77l.32.4.31.41c.2.28.4.54.58.81l.51.78.23.4,0-.07a3.05,3.05,0,0,0,.13-.32l0-.16c0-.06,0-.12,0-.17a4,4,0,0,0,0-1.25l0,0-.5-.66-.26-.33-.27-.33c-.18-.23-.37-.44-.55-.66s-.37-.42-.56-.61-.37-.38-.54-.55-.35-.34-.51-.48c-.32-.29-.59-.52-.79-.67a1.59,1.59,0,0,0-.24-.17l-.08-.07.09,0,.26.15.38.25c.14.1.31.21.48.35l.54.44q.28.26.57.54c.2.19.39.4.58.6s.39.43.57.66l.27.34.26.34a2.64,2.64,0,0,1,.21.29,6.39,6.39,0,0,0-.22-.7,6.88,6.88,0,0,0-.4-.85l-.18-.31-.15-.22-.12-.18.17.14.2.17a3.18,3.18,0,0,1,.26.26,5.18,5.18,0,0,1,.62.79,4.7,4.7,0,0,1,.57,1.19,4.52,4.52,0,0,1,.21,1.15l.11.2c.11.19.22.36.3.52l.21.4.14.26a3,3,0,0,0,.14-.42l.06-.24a1,1,0,0,0,0-.24,5.16,5.16,0,0,0-.08-1.85,7,7,0,0,0-.53-1.49,7.84,7.84,0,0,0-.63-1.05l-.27-.37L66,92.23,65.78,92l.2.2.23.25.29.35a7.8,7.8,0,0,1,.69,1,6.7,6.7,0,0,1,.59,1.5,5.47,5.47,0,0,1,.14,1.92,3.61,3.61,0,0,1-.84,2,3.78,3.78,0,0,1-2,1.2,5.32,5.32,0,0,1-2.38,0,7.31,7.31,0,0,1-2.18-.94l-.48-.34-.45-.37c-.15-.12-.28-.26-.41-.38l-.1-.1-.1-.11L58.82,98a7.65,7.65,0,0,1-1.17-1.79,6.06,6.06,0,0,1-.56-1.84,5,5,0,0,1,0-1.61,4.6,4.6,0,0,1,.19-.65l.12-.28.13-.24a3.12,3.12,0,0,1,.26-.38,1.71,1.71,0,0,1,.11-.14l.11-.11.2-.2Zm-1.85.21c-.74,1-2-1.24-8.45-1.34,0,0,7.91-1,9.89-.27C58.07,89.71,57.27,89.75,56.21,91.16Zm-8.33,4.57c.37.21.73.46,1.08.7s.68.53,1,.8.32.28.47.43.3.28.44.42c.29.29.55.58.79.86s.47.55.67.8c.39.51.69,1,.89,1.27s.3.51.3.51-.11-.18-.33-.49-.55-.72-1-1.21c-.21-.25-.43-.51-.68-.78s-.52-.54-.81-.82-.59-.56-.91-.83-.66-.53-1-.78-.7-.49-1.06-.7l-.27-.15-.27-.15q-.27-.15-.54-.27c-.18-.09-.36-.16-.54-.24s-.35-.13-.52-.2l-.51-.16-.24-.07-.24-.06c-.31-.08-.6-.12-.85-.17l-.67-.07-.59,0h.59l.68,0c.26,0,.55.06.87.13l.24.05.25.06.52.15a11.37,11.37,0,0,1,1.09.41l.56.27.27.14ZM58.1,110.79a4.55,4.55,0,0,0,.53,0,11.9,11.9,0,0,0,2-.18,31.11,31.11,0,0,0,3.1-.68c1.18-.32,2.5-.72,3.94-1.2s3-1,4.58-1.64,3.31-1.31,5.06-2,3.53-1.49,5.35-2.29,3.65-1.63,5.47-2.48,3.63-1.73,5.41-2.61S97.06,95.91,98.7,95s3.21-1.86,4.67-2.79,2.81-1.84,4-2.74,2.29-1.77,3.21-2.58a28.78,28.78,0,0,0,2.27-2.21,14.46,14.46,0,0,0,1.28-1.59,4.13,4.13,0,0,0,.37-.62,5.42,5.42,0,0,1-.35.63,13.78,13.78,0,0,1-1.23,1.63A30.6,30.6,0,0,1,110.71,87c-.9.83-2,1.73-3.17,2.65s-2.55,1.86-4,2.81-3,1.91-4.65,2.85-3.36,1.87-5.13,2.78l-1.33.67-1.35.67-1.36.66-1.37.64c-1.83.85-3.67,1.67-5.49,2.47s-3.62,1.55-5.37,2.26-3.46,1.38-5.09,2-3.18,1.13-4.62,1.58a43.52,43.52,0,0,1-7.1,1.73,10.11,10.11,0,0,1-2,.12,2.73,2.73,0,0,1-.53-.07.7.7,0,0,1-.18-.05ZM107.36,78c-2.13,1.43-4.36,2.79-6.63,4.09C96,80.52,77.81,75.68,51,81.36c13.18-4.84,23.4-9.48,23.4-9.48A93.25,93.25,0,0,1,86,71.09,34.83,34.83,0,0,1,107.36,78ZM72.55,71.85l-1.21.56-1.89.84c-.73.33-1.56.69-2.46,1.07l-2.92,1.24c-1,.44-2.14.9-3.28,1.36s-2.31.94-3.52,1.41-2.42.94-3.64,1.42L50,81.12l-3.57,1.27L43,83.52l-3,1c-.94.29-1.81.54-2.58.76s-1.44.4-2,.56l-1.74.46,1.72-.54c.54-.18,1.21-.37,2-.63s1.61-.54,2.54-.84l3-1L46.26,82l3.56-1.31,3.65-1.38,3.65-1.4,3.53-1.37,3.3-1.3,2.94-1.17L73,71.66ZM32.1,84c.08.3.15.58.23.84.3,1,.49,1.73.49,1.73l-.17-.46c-.11-.3-.27-.72-.44-1.24L31.94,84l-.29-.93c-.19-.65-.38-1.34-.57-2s-.37-1.4-.52-2-.29-1.28-.4-1.81-.2-1-.26-1.28-.09-.49-.09-.49L31.29,81c.09.35.18.7.28,1s.18.68.27,1S32,83.69,32.1,84Zm-1,.21.23.74.2.62c.06.19.11.35.16.48s.13.42.13.42l-.16-.41c-.1-.26-.25-.63-.41-1.08L31,84.23c-.09-.26-.18-.53-.27-.82s-.18-.58-.28-.88l-.27-.91c-.17-.62-.34-1.24-.49-1.82s-.28-1.12-.39-1.59-.19-.86-.25-1.13l-.09-.43.42,1.54.44,1.58c.16.58.33,1.19.51,1.8.09.31.17.62.26.92s.17.6.26.88Zm-9.58-.15c0,.46,0,.9.06,1.27s0,.68.05.9,0,.34,0,.34l0-.34c0-.22-.07-.52-.1-.9s-.08-.8-.11-1.26-.06-1-.07-1.46,0-1,0-1.46,0-.9,0-1.27.05-.68.07-.9.05-.33.05-.33,0,.12,0,.34,0,.52,0,.89,0,.81,0,1.27,0,1,0,1.46S21.48,83.59,21.5,84.05Zm-2.16-1a10.77,10.77,0,0,1,1.72-4.57l0,3.91Zm2.6.66c0-.28,0-.56,0-.85s0-.59,0-.89V81l0-.86c0-.55.05-1.07.08-1.51s.08-.81.11-1.07.06-.4.06-.4,0,.15,0,.41,0,.62,0,1.07,0,.95,0,1.51c0,.27,0,.56,0,.85s0,.59,0,.88c0,.59,0,1.18,0,1.73,0,.28,0,.55,0,.8s0,.49,0,.71,0,.43,0,.61l0,.46c0,.26,0,.41,0,.41l0-.4c0-.26-.08-.63-.12-1.07,0-.22-.05-.46-.06-.71S22,83.94,21.94,83.66Zm.41-1.83,0-4.06c2.07-.67,4.37-1.25,5.65-1.56a22,22,0,0,0,.71,3.15C26.74,80.12,24.6,81,22.35,81.83Zm-.06,5.34h.45l.59,0,1.46-.07.82,0,.85-.06,1.67-.14,1.45-.14,1-.11.39,0-.38.09-1,.19L28.15,87l-.83.09-.85.07-1.68.09c-.26,0-.52,0-.77,0h-.69c-.43,0-.79,0-1-.05l-.39,0Zm9.83-10.71a4,4,0,0,1-.53-.7l.17.14c.12.09.3.22.53.36l.26.16.89-.38c-1.58-.77-1.37-1.71,1.32-2.76,1.87-.73,2.91-.42,4.65.39,2.47-.94,5-1.84,7.4-2.69-.14.72-.27,1.45-.37,2.16l-.36.09c-1,.24-2.51.72-4.55,1.42.58.26,1.24.54,2,.82,4.94,1.89,23.28-2.4,23.28-2.4s-15.69,5.58-24.35,4.74a50.76,50.76,0,0,1-6.84-1l-1.33.49h0l.67.25.36.12.37.11.78.22.82.19c.56.12,1.14.21,1.74.3l.9.11.92.08.92,0,.91,0,.91,0h.88l.86,0h.82l.78,0,.73,0L49,78.55l.54,0,.45,0,.65,0h.23l-.22.08-.61.21-.44.15-.52.15c-.37.1-.79.23-1.26.33l-.73.15-.79.14-.84.13-.88.1-.91.07-.94,0c-.32,0-.64,0-1,0l-1,0-1-.1-1-.14c-.31-.06-.63-.12-.93-.2l-.45-.11c-.15,0-.3-.08-.45-.12a12.82,12.82,0,0,1-1.65-.61,11.41,11.41,0,0,1-1.4-.73l-.54-.35-1.94.73c-.11-.49-.21-.93-.28-1.31l1-.45ZM52.05,69.2l2.36-.78L56,71.52c-1.14.15-2.25.3-3.33.46C52.35,70.91,52.17,70,52.05,69.2ZM30,74.26a45.55,45.55,0,0,0-8.44,1.83A54.36,54.36,0,0,1,30,72.69c3-.7,13.16-5.34,29.08-9C59.05,63.69,40.06,69.45,30,74.26ZM20.18,78l-.18.22a1.25,1.25,0,0,0-.12.17l-.13.2a1.88,1.88,0,0,0-.14.24q-.08.12-.15.27c-.05.09-.09.19-.14.3l-.15.32-.14.35c-.05.12-.09.24-.14.37s-.17.51-.26.78l-.12.4L18.4,82c-.08.27-.14.55-.21.83s-.12.54-.17.8-.11.51-.15.76-.09.47-.13.68-.06.4-.09.57-.06.33-.08.45-.06.39-.06.39,0-.14,0-.39,0-.28,0-.46,0-.37.05-.58.06-.44.09-.69.07-.5.12-.77.09-.54.16-.81.12-.56.2-.84l.12-.41c0-.14.08-.27.12-.41s.18-.53.28-.78.1-.25.15-.37l.17-.35a3.18,3.18,0,0,1,.16-.32c.06-.1.11-.2.17-.29l.16-.27c.05-.08.11-.15.16-.22a1.73,1.73,0,0,1,.15-.2l.14-.16a2.58,2.58,0,0,1,.29-.27Zm-3.7,11c.46,0,1,.09,1.56.16l.34,0,.15-.16a7.58,7.58,0,0,1,1.26-1l.39-.23.14-.08-.14.09-.36.26a5.29,5.29,0,0,0-.54.43l-.08.07.37,0L21,88.36l1-.09,1.2-.1c.86-.08,1.83-.15,2.89-.22l1.65-.1,1.77-.1,3.81-.16,2-.06,2.07,0c1.39,0,2.8,0,4.21,0,2.83,0,5.65,0,8.3.12l2,.09,1.87.11c1.21.14,2.36.17,3.42.29a24.89,24.89,0,0,1,2.88.46,11.3,11.3,0,0,1,2.13.7,6.88,6.88,0,0,1,1.25.73,1.77,1.77,0,0,0,.17.14l.12.11.09.09-.1-.08-.13-.1L63.41,90a6.17,6.17,0,0,0-1.27-.63A12.23,12.23,0,0,0,60,88.79a24.78,24.78,0,0,0-2.85-.28l-1.64-.05h-.87l-.9,0-3.8.17-4.08.16c-1.39,0-2.8.09-4.21.12L37.44,89h-4.8l-.07.2c0,.19-.1.4-.14.62H33l1.87,0,3.84.05-.27,0-.78.08c-.67.07-1.63.15-2.79.21-.57,0-1.2.07-1.86.08l-.68,0a3.7,3.7,0,0,0,0,.48c0,.1,0,.2,0,.31l0,.32,0,.33,0,.34a6,6,0,0,0,.12.7c.05.23.1.47.16.71s.13.48.2.72.15.48.23.73.16.49.25.73l.27.72.13.36.15.35c.2.47.37.94.57,1.38l.56,1.27.51,1.14c.32.71.6,1.29.79,1.71s.29.64.29.64-.13-.22-.35-.62l-.4-.71c-.07-.14-.15-.29-.24-.44l-.26-.49c-.17-.35-.36-.73-.56-1.12s-.4-.83-.6-1.27l-.16-.33L33.94,98c-.09-.23-.19-.47-.29-.7l-.15-.36-.14-.36-.28-.72c-.09-.25-.16-.5-.24-.74s-.17-.49-.23-.74-.13-.5-.2-.74l-.15-.73c0-.24-.07-.48-.1-.71s0-.24,0-.35,0-.23,0-.35v-.33c0-.11,0-.22,0-.32s0-.32,0-.47H31c-.72,0-1.47,0-2.23,0l-2.3,0c-.77,0-1.54-.07-2.3-.12L23,90.12l-1.1-.1c-.72-.07-1.41-.14-2.07-.23l-1.58-.23A2.55,2.55,0,0,0,18,90a2.92,2.92,0,0,0-.26,1.12,10.73,10.73,0,0,0,0,1.27c0,.31.05.64.09,1l-.26-.5a3.4,3.4,0,0,1,0-.45,9.21,9.21,0,0,1,0-1.29,2.86,2.86,0,0,1,.3-1.18,3,3,0,0,1,.22-.35H18l-1.55-.29-.65-.13h0l-.09-.2.14,0ZM21,91.64a.6.6,0,0,0-.22-.23.51.51,0,0,0-.17,0h-.22a5.8,5.8,0,0,1-.76-.14l-.25-.07-.09,0h.1l.25,0,.77.07.21,0a.53.53,0,0,1,.46.38l0,.13h0a2.75,2.75,0,0,0,.34,0l.13,0a.49.49,0,0,1-.1.09,1.27,1.27,0,0,1-.33.16,1.43,1.43,0,0,1-.52.07,3.73,3.73,0,0,1-.56-.07,2.7,2.7,0,0,1-1-.38.74.74,0,0,1-.27-.25.31.31,0,0,1-.05-.1v0l0,0,.08,0,.14,0,.17,0,1,.16.52.08.23,0,.11,0Zm21.72,20.43a13.86,13.86,0,0,1-2-2.82,14.37,14.37,0,0,1-1.19-3,12.32,12.32,0,0,1-.43-2.84,9.49,9.49,0,0,1,.21-2.41A7.28,7.28,0,0,1,40,99.26a5.74,5.74,0,0,1,.66-1l.21-.23L40.9,98l-.07.09a2.88,2.88,0,0,0-.18.25,5.16,5.16,0,0,0-.55,1,7,7,0,0,0-.47,1.74,9.88,9.88,0,0,0-.05,2.33,13.36,13.36,0,0,0,.55,2.7,15,15,0,0,0,1.25,2.8,13.05,13.05,0,0,0,1.95,2.61,9.49,9.49,0,0,0,2.65,2,6.72,6.72,0,0,0,1.54.54,4.7,4.7,0,0,0,1.58.08,4.6,4.6,0,0,0,1.12-.3l.17-.08.15-.09a3.34,3.34,0,0,0,1-1.06,6.41,6.41,0,0,0,.64-1.38,8.06,8.06,0,0,0,.35-1.43,11.6,11.6,0,0,0,.14-1.41c0-.46,0-.91,0-1.33a10.93,10.93,0,0,0-.16-1.22,10.42,10.42,0,0,0-.23-1.09,13.68,13.68,0,0,0-.58-1.72c-.2-.47-.37-.83-.49-1.08s-.2-.37-.2-.37.09.12.24.35.36.57.6,1a11.13,11.13,0,0,1,.74,1.69,11.9,11.9,0,0,1,.57,2.35,11.54,11.54,0,0,1,0,2.89,7.79,7.79,0,0,1-1,3.11A4,4,0,0,1,51,114.3a1.07,1.07,0,0,1-.21.13l-.21.11a3.16,3.16,0,0,1-.43.16,4.14,4.14,0,0,1-.91.21,5.29,5.29,0,0,1-1.86-.07,7.17,7.17,0,0,1-1.74-.6A10.3,10.3,0,0,1,42.74,112.07Zm14.5-.08a4.41,4.41,0,0,1-.86-.3,2.36,2.36,0,0,1-.76-.62,2.2,2.2,0,0,1-.4-.93c-.07-.32-.12-.65-.18-1s-.13-.63-.21-.92-.17-.57-.27-.83l-.15-.38c0-.12-.11-.24-.16-.35s-.2-.42-.29-.6l-.24-.46-.21-.39.25.37c.08.12.17.27.27.44s.22.36.34.59l.17.34a3.34,3.34,0,0,1,.17.38,6.37,6.37,0,0,1,.31.84,8.82,8.82,0,0,1,.22.92l.19,1a1.91,1.91,0,0,0,.36.85,2,2,0,0,0,.68.58A4.37,4.37,0,0,0,58,112a11.64,11.64,0,0,0,1.18.06l.45,0-.44.06-.52,0c-.2,0-.43,0-.68,0A6.21,6.21,0,0,1,57.24,112Zm57.94-28.88a14,14,0,0,1-1.12,1.82,24.67,24.67,0,0,1-2.12,2.56,38.26,38.26,0,0,1-3.13,3c-.6.51-1.24,1-1.91,1.55-.33.27-.68.52-1,.78l-.53.4-.55.38c-1.48,1-3.07,2.09-4.77,3.1l-1.28.75-.65.38-.66.37c-.45.24-.89.5-1.34.73l-1.37.72c-1.84,1-3.72,1.88-5.63,2.75l-.72.32-.36.17-.35.16-1.44.63c-.95.42-1.91.82-2.86,1.23s-1.89.79-2.84,1.16l-1.4.55-1.39.54c-1.83.69-3.62,1.33-5.34,1.89s-3.35,1-4.88,1.44-2.93.7-4.2.91a24,24,0,0,1-3.3.36h-.65l-.58,0a7.94,7.94,0,0,1-.9-.12,3,3,0,0,1-.54-.16l-.17-.09a.82.82,0,0,0,.18.08,4.12,4.12,0,0,0,.54.11,10,10,0,0,0,2.11,0,28.87,28.87,0,0,0,3.23-.54c1.24-.28,2.62-.66,4.12-1.11s3.09-1,4.78-1.61,3.44-1.29,5.26-2,3.67-1.53,5.56-2.33c.94-.41,1.89-.81,2.84-1.24l1.43-.64.36-.16.35-.16.71-.33c1.9-.86,3.77-1.77,5.6-2.69s3.6-1.88,5.3-2.85l1.25-.73,1.22-.74c.4-.23.79-.49,1.18-.73s.77-.49,1.14-.74c1.49-1,2.87-2,4.1-2.92s2.31-1.89,3.23-2.77a28.56,28.56,0,0,0,2.24-2.39,13.83,13.83,0,0,0,1.23-1.72,3.79,3.79,0,0,0,.35-.66A4.39,4.39,0,0,1,115.18,83.11Zm1.12-8.24c0-.11.07-.21.09-.31l.07-.31c0-.09,0-.19,0-.28s0-.09,0-.13v-.12c0-.17,0-.31,0-.43s0-.22,0-.28a.67.67,0,0,1,0-.1,1.68,1.68,0,0,1,.16.35,3,3,0,0,1,.12.44l0,.13s0,.09,0,.14a3,3,0,0,1,0,.31v.34c0,.12,0,.24,0,.36l0,.19a1.05,1.05,0,0,0,0,.19l-.12.38c0,.13-.11.26-.16.38l-.09.2-.11.18c-.07.12-.14.25-.22.37s-.17.23-.26.34l-.27.34-.31.29a4.11,4.11,0,0,1-.3.29,3.92,3.92,0,0,1-.32.25,4.14,4.14,0,0,1-.62.44l-.58.35a4.59,4.59,0,0,1-.52.24l-.41.17a3.27,3.27,0,0,1-.35.14l.29-.25.34-.27a5.58,5.58,0,0,0,.44-.35l.5-.42c.19-.14.35-.32.54-.49l.28-.25.26-.29.27-.28c.09-.1.16-.21.25-.31l.24-.31.21-.32.11-.16.08-.17.18-.33.13-.33a1.11,1.11,0,0,0,.07-.16Zm-1.83-5.38.14.21c.06.08.11.18.18.29s.13.23.2.37.13.29.2.45a3.65,3.65,0,0,1,.19.53,5.44,5.44,0,0,1,.15.61,4.45,4.45,0,0,1,0,1.42,2.64,2.64,0,0,1-.65,1.46,2.24,2.24,0,0,1-1.55.7,3.64,3.64,0,0,1-1.71-.4,5.87,5.87,0,0,1-1.42-1l-.12-.13-.06,0-.24-.26-.23-.28-.19-.27,0,0v0h0v0l0-.06-.12-.19a7.08,7.08,0,0,1-.67-1.43,5.2,5.2,0,0,1-.28-1.39,3.74,3.74,0,0,1,.09-1.19,2.59,2.59,0,0,1,.36-.85,1.3,1.3,0,0,1,.1-.15l.1-.12.09-.1.09-.07.16-.14-.15.14-.08.08-.09.11-.1.12a1.19,1.19,0,0,1-.09.15,2.8,2.8,0,0,0-.31.85,4,4,0,0,0,0,1.16,5.14,5.14,0,0,0,.2,1c0-.18,0-.36,0-.53a3,3,0,0,1,.14-1,1.91,1.91,0,0,1,.35-.67l.06-.07-.19-.21a2.23,2.23,0,0,1,.21.19v0l.1-.09.08-.08.07,0,.14-.09-.11.13,0,.07-.06.09-.06.1,0,0c.07.06.14.14.23.23l.35.39.39.48,0,.06a6.19,6.19,0,0,1,.94-.24l-.13-.18c-.13-.18-.24-.35-.36-.5l-.57-.72c-.14-.17-.23-.26-.23-.26s.1.08.26.24l.28.28.34.39.4.48c0,.08.12.16.18.24a1.92,1.92,0,0,1,.94,0l.26.1.07,0-.15-.22c-.26-.39-.5-.74-.72-1l-.3-.41-.15-.18h0L111,68l-.13,0-.13,0-.26,0h-.25a.85.85,0,0,0-.23,0l-.21,0-.2,0a3,3,0,0,1-.31.11l-.27.11.23-.19.28-.2a2,2,0,0,1,.41-.18l.25-.08.28,0,.29,0a1.71,1.71,0,0,1,.32,0,3.6,3.6,0,0,1,.63.15,4.22,4.22,0,0,1,.61.28,5.14,5.14,0,0,1,.54.37c.17.14.33.28.47.42l.39.44c.11.15.22.29.3.42a6.32,6.32,0,0,1,.39.67c.08.17.12.27.12.27l-.2-.21c-.12-.14-.3-.33-.52-.55l-.36-.35-.41-.37c-.15-.13-.31-.25-.46-.36s-.33-.23-.5-.33a5.2,5.2,0,0,0-.53-.26l-.13-.05.09.11.34.38.37.46c.13.17.27.35.4.54s.27.38.4.58l.14.21a1.36,1.36,0,0,1,.12.18l0,.06h0a1.63,1.63,0,0,0,.11.17l.38.63c.13.21.24.41.36.61l0,0a5.2,5.2,0,0,0-.16-.87,3.07,3.07,0,0,0-.11-.36c0-.11-.07-.21-.11-.3l-.1-.25-.09-.17-.07-.15.11.12.13.15a2.46,2.46,0,0,1,.17.22,4.94,4.94,0,0,1,.37.63c.07.12.12.27.19.42a4.77,4.77,0,0,1,.15.49,3.76,3.76,0,0,1,.1,1.14c.17.32.29.61.39.8l.07.15a2.78,2.78,0,0,0,.22-.73,4.19,4.19,0,0,0,0-1.37,5.31,5.31,0,0,0-.12-.6,5.52,5.52,0,0,0-.17-.53,4.9,4.9,0,0,0-.18-.46c-.06-.13-.12-.26-.18-.37l-.16-.3-.13-.21-.11-.18Zm-7.55-3.82a11.38,11.38,0,0,1,2.4.28,9.66,9.66,0,0,1,1.77.58,9,9,0,0,1,1,.56l.36.22-.37-.21a10.58,10.58,0,0,0-1.07-.5,10.4,10.4,0,0,0-1.77-.5,12.35,12.35,0,0,0-2.37-.18,22.12,22.12,0,0,0-2.81.23l-.76.11-.77.13-1.59.28-3.34.58-3.44.6c-1.16.2-2.31.4-3.45.58s-2.26.39-3.34.56l-3.13.5-2.81.44c-1.74.26-3.19.47-4.21.6l-1.6.22.42-.1,1.16-.26c1-.22,2.44-.52,4.16-.86.86-.18,1.8-.36,2.79-.55s2-.38,3.11-.58,2.2-.4,3.34-.6l3.45-.58,1.74-.29,1.72-.26c1.14-.18,2.26-.35,3.36-.49l1.6-.21.79-.09.76-.08A23.8,23.8,0,0,1,106.92,65.67ZM72.34,70.6l.3.25a.72.72,0,0,1,.1.1.49.49,0,0,0-.1-.09l-.33-.23-1.17-.76c-.49-.32-1.07-.67-1.68-1.06l-1.93-1.2-1.94-1.18c-.63-.37-1.21-.72-1.71-1l-1.22-.69-.47-.25.48.21c.31.15.75.35,1.27.62s1.11.59,1.74,1,1.3.75,2,1.16,1.32.82,1.92,1.22,1.17.79,1.64,1.12S72.07,70.39,72.34,70.6Zm-56,13.58c0-.25.1-.52.16-.79s.13-.56.2-.84.07-.29.11-.44.09-.28.13-.43.18-.57.27-.85.21-.55.3-.81.22-.51.33-.75.21-.45.32-.65.21-.38.3-.53l.26-.4.18-.24.07-.09a3.56,3.56,0,0,0-.22.35l-.24.4c-.08.17-.18.35-.28.55s-.19.42-.29.66-.2.48-.3.74-.21.54-.29.82-.19.56-.27.85c0,.14-.08.28-.13.42s-.07.29-.11.43q-.12.44-.21.84c-.06.27-.13.53-.18.79s-.1.48-.15.7c-.09.44-.15.81-.2,1.07l-.08.4L16,86c0-.13,0-.28.06-.46a5,5,0,0,1,.09-.61Q16.24,84.57,16.31,84.18Z"></path><path class="cls-1" d="M129.75,44.59A67.22,67.22,0,0,0,89,3.89L87.3,3.3c-.58-.19-1.16-.39-1.75-.55l-1.76-.49L82.91,2,82,1.81c-1.18-.26-2.36-.55-3.56-.73L76.68.77c-.59-.1-1.19-.15-1.79-.23L73.11.32,71.3.19,69.51.07,67.76,0H66L64.23.06c-.59,0-1.18,0-1.76.06L60.73.26A65.93,65.93,0,0,0,47.27,2.81a66.74,66.74,0,0,0-12.11,5,65.27,65.27,0,0,0-10.34,6.79,69.17,69.17,0,0,0-8.37,8A66.16,66.16,0,0,0,5.6,39.43,64.91,64.91,0,0,0,1,54.17,68.65,68.65,0,0,0,0,64c0,2.29,0,3.5,0,3.5S.06,66.32.18,64A74.85,74.85,0,0,1,1.65,54.3,66.78,66.78,0,0,1,6.7,39.94a64.26,64.26,0,0,1,4.68-8.09,69.38,69.38,0,0,1,6.42-8.1A66.89,66.89,0,0,1,36.25,9.89,65.46,65.46,0,0,1,61,3.05l1.67-.11c.56,0,1.12,0,1.68,0l1.7,0h.82l.87,0L69.43,3l1.69.13,1.69.15,1.7.22A66.78,66.78,0,0,1,88,6.78a65.21,65.21,0,0,1,38.85,38.86l.57,1.66c.18.55.38,1.1.53,1.66l.48,1.68c.08.28.16.56.23.84l.2.85c.26,1.13.56,2.25.74,3.39.11.56.21,1.13.32,1.7s.15,1.14.24,1.7a66.56,66.56,0,0,1,.42,13.58c-.05.56-.07,1.1-.13,1.66s-.13,1.1-.2,1.65-.12,1.1-.21,1.64-.19,1.09-.28,1.63-.17,1.08-.3,1.61l-.36,1.6c-.12.53-.21,1.06-.36,1.58s-.29,1-.43,1.56a64,64,0,0,1-4.57,11.75,66,66,0,0,1-6.36,10.13,67.22,67.22,0,0,1-7.5,8.32,68.55,68.55,0,0,1-8.1,6.42,63.56,63.56,0,0,1-8.09,4.68A67.36,67.36,0,0,1,79.34,132a77,77,0,0,1-9.75,1.47l-3.49.17h3.5a70,70,0,0,0,9.86-1A65.48,65.48,0,0,0,94.21,128a66.6,66.6,0,0,0,16.9-10.85,69.17,69.17,0,0,0,8-8.37,66.72,66.72,0,0,0,11.77-22.46l.48-1.61c.17-.54.27-1.1.41-1.64l.39-1.66c.14-.55.22-1.12.33-1.68s.21-1.13.31-1.69.16-1.14.24-1.71.16-1.15.23-1.72.1-1.17.16-1.76A67.48,67.48,0,0,0,129.75,44.59Z"></path><path class="cls-1" d="M110.85,70.85a1.42,1.42,0,0,1,.08-.45c0-.05,0-.1.07-.16v0a1.06,1.06,0,0,0-.75-.17l.32.42Z"></path><path class="cls-1" d="M111.5,70.24l0,0h0l-.08.09s0,0,0,0h0A.38.38,0,0,1,111.5,70.24Z"></path><path class="cls-1" d="M114.7,73.29a2,2,0,0,1-.14.53l-.06.17-.09.16a1.55,1.55,0,0,1-.23.31l0,.05.15.31-.18-.3,0,0-.05,0,0,0-.06.06h0l0,0,0,0a1.73,1.73,0,0,1-.34.21,1.36,1.36,0,0,1-.28.11l.11.22-.14-.21-.08,0-.2,0-.2,0a3.08,3.08,0,0,1-.61,0,3.4,3.4,0,0,0,1.21.22,2.23,2.23,0,0,0,.78-.18,2,2,0,0,0,.35-.19l0,0,0,0,.08-.06s.11-.09.15-.14a2.38,2.38,0,0,0,.39-.6l-.09-.16Z"></path><path class="cls-1" d="M112.82,74.13l.09.17a.89.89,0,0,0,.32-.08.84.84,0,0,0,.21-.11h0l.06,0,.06-.05s.05,0,.05,0l.1-.11,0-.1-.32-.53-.22-.36-.06,0a.92.92,0,0,1-.33.1,1.06,1.06,0,0,1-.46,0l-.18-.06.06.11C112.43,73.4,112.64,73.79,112.82,74.13Z"></path><path class="cls-1" d="M19.89,89.3c.33,0,.66.06,1,.08l1.06.07c.71.06,1.46.07,2.21.13l2.28.1c.77,0,1.54.06,2.29.07l2.22.06,1.3,0c.06-.23.13-.45.2-.65l.06-.16c-1,0-2,0-3,0l-3.42-.07c-1.06,0-2-.06-2.89-.1L22,88.76l-1-.05-1.44-.1-.4,0c-.17.16-.36.33-.54.53a.6.6,0,0,0-.08.08l.38,0Z"></path><path class="cls-1" d="M112.8,74.32l-.08-.14c-.1-.16-.2-.34-.31-.53l-.36-.58-.2-.33a13.06,13.06,0,0,1-1.66-1.26,4,4,0,0,0,1,.64,2.22,2.22,0,0,1-.21-.37,2.49,2.49,0,0,1-.16-.55v0l-.41-.6-.35-.5-.24,0,.21-.07v0c-.13-.18-.25-.35-.37-.5s-.37-.49-.51-.65l0,0a2.18,2.18,0,0,0-.18.65,3.71,3.71,0,0,0,0,.87,5,5,0,0,0,.29,1,5.89,5.89,0,0,0,.55,1l.09.12,0,.06h0l0,0,.2.26.2.21.22.22a4.29,4.29,0,0,0,1,.7,2.49,2.49,0,0,0,1.1.28Z"></path><path class="cls-1" d="M112.76,72.83a1.08,1.08,0,0,0,.32,0l0,0-.1-.17-.25-.4,0,0a.82.82,0,0,1-1-.08l.1.17.17.16a1.52,1.52,0,0,0,.4.24A.94.94,0,0,0,112.76,72.83Z"></path><path class="cls-1" d="M62.73,97.1a1.57,1.57,0,0,1-.94-.34l.12.13a2.18,2.18,0,0,0,.54.42,2.33,2.33,0,0,0,.57.21h0l-.25-.36Z"></path><path class="cls-1" d="M62.8,94.48l0-.06c-.1-.11-.2-.23-.31-.34h0a1.39,1.39,0,0,0-.6.26s-.09.07-.12.11a.75.75,0,0,0-.12.14l0,0A1.22,1.22,0,0,1,62.8,94.48Z"></path><path class="cls-1" d="M61.06,94.57a.19.19,0,0,0-.09,0l.08.08Z"></path><path class="cls-1" d="M66.47,99.48a4,4,0,0,0,.42-.4A.76.76,0,0,0,67,99l.07-.1.15-.21.12-.23a1.2,1.2,0,0,0,.11-.23l0,0c0-.06-.1-.14-.17-.26L67,97.53l-.33-.48a1,1,0,0,0,0,.17,1.81,1.81,0,0,1,0,.23l0,.22a2.42,2.42,0,0,1-.13.46,3.62,3.62,0,0,1-.2.45l-.15.23h0c.09.16.16.3.22.42Z"></path><path class="cls-1" d="M65.21,99.7a3.5,3.5,0,0,1-.47.25,2.5,2.5,0,0,1-.25.09l-.25.08a4.32,4.32,0,0,1-.87.11,4.74,4.74,0,0,0,1.68-.06,3.45,3.45,0,0,0,1.4-.68l-.15-.23c-.07-.1-.15-.22-.23-.36l0,0L66,99l0,0-.14.16,0,0,0,0h0l0,0h0l-.1.09-.2.17Z"></path><path class="cls-1" d="M63.55,97.55a1.39,1.39,0,0,0,.41-.09,1,1,0,0,0,.25-.12l.09,0-.07.08a1.77,1.77,0,0,1-.22.18,2.09,2.09,0,0,1-.42.19l-.15,0,0,0c.14.25.28.48.41.7l.27.48a2.28,2.28,0,0,0,.51-.21l.15-.09.14-.1.07-.06h0l0,0h0l0,0,.15-.15,0,0,0,0,0-.07.09-.12,0-.07-.31-.45c-.16-.24-.35-.49-.53-.75s-.39-.53-.59-.79l-.2-.27a1.29,1.29,0,0,1,0,.52,1,1,0,0,1-.34.57,1,1,0,0,1-.49.25l.32.49Z"></path><path class="cls-1" d="M58.75,96.1a6.51,6.51,0,0,0,.91,1.23l.14.14,0,0v0h0l.08.07.16.15a1.53,1.53,0,0,0,.16.13l.32.24.34.22a5,5,0,0,0,1.5.63A3.55,3.55,0,0,0,64,99L64,99c-.09-.13-.18-.28-.29-.43l-.45-.67a.61.61,0,0,0-.07-.1,1.76,1.76,0,0,1-.23,0,1.87,1.87,0,0,1-.46-.09,12.18,12.18,0,0,1-2.63-1.38,5,5,0,0,0,1.48.62,2.71,2.71,0,0,1-.3-.45,2.41,2.41,0,0,1-.25-.88,2,2,0,0,1,.11-.76c-.12-.15-.25-.28-.37-.41a4.16,4.16,0,0,0-1.13.19l.94-.39-.07-.07c-.1-.12-.22-.22-.32-.33l-.32-.3-.6-.53-.53-.42-.09-.06a1.33,1.33,0,0,0-.11.24l-.08.19c0,.07,0,.14,0,.22s-.05.31-.08.48a4,4,0,0,0,.11,1.16A4.83,4.83,0,0,0,58.75,96.1Z"></path><path class="cls-1" d="M112.71,70.73a1.42,1.42,0,0,1,.28,1.1,1.17,1.17,0,0,1-.09.24l.27.46.11.2.06,0,0,0c.19.34.35.66.5.94l0,0,.05-.07.06-.11a2.58,2.58,0,0,0,.17-.49,3,3,0,0,0,.06-.67l-.18-.3c-.12-.2-.24-.4-.37-.6s-.25-.42-.39-.63l-.39-.61,0,0a1.51,1.51,0,0,0-.36-.18A1.7,1.7,0,0,0,112,70a.85.85,0,0,0-.38.12l.07.11A1.16,1.16,0,0,1,112.71,70.73Z"></path></g></g></svg>