<svg xmlns="http://www.w3.org/2000/svg" viewBox="0 0 122.76 127.33"><defs><style>.cls-1{fill:#3f3f3f;}</style></defs><g id="Layer_2" data-name="Layer 2"><g id="Layer_1-2" data-name="Layer 1"><polygon class="cls-1" points="26 118.16 27.54 118.16 26.77 114.22 26 118.16"></polygon><path class="cls-1" d="M42.86,112.47H42.2v2.41h.66a1.21,1.21,0,1,0,0-2.41Z"></path><polygon class="cls-1" points="80.94 118.16 82.47 118.16 81.7 114.22 80.94 118.16"></polygon><path class="cls-1" d="M37.85,31.83l.57.31c2.22,1.23,6,7.31,6,7.37l0,0,0,0a3.52,3.52,0,0,0,1.83.52,6.72,6.72,0,0,0,4.3-1.65l.45-.36a3.86,3.86,0,0,0,1-1.06h0a2.27,2.27,0,0,0,0-1.67A7.79,7.79,0,0,0,51,33.64a17,17,0,0,1,3.8-1.17A29.12,29.12,0,0,1,59,32l2.21,3.14-5.93,8.43a.56.56,0,0,0,.13.78.57.57,0,0,0,.79-.13l5.69-8.1,5.7,8.1a.57.57,0,0,0,.79.13.56.56,0,0,0,.13-.78l-5.93-8.43L64.75,32a29.28,29.28,0,0,1,4.14.5,17,17,0,0,1,3.8,1.17,7.79,7.79,0,0,0-1.12,1.71A2.27,2.27,0,0,0,71.62,37h0a4.12,4.12,0,0,0,1,1.06l.45.36a6.72,6.72,0,0,0,4.3,1.65,3.52,3.52,0,0,0,1.83-.52l0,0,0,0c0-.06,3.83-6.14,6.05-7.37l.56-.31-.64,0s-4.13-.28-6.08-2.3a5.62,5.62,0,0,0,.45-1.25,4.33,4.33,0,0,0-.28-2.95,5.62,5.62,0,0,0-2.12-2.11,12.77,12.77,0,0,0-5.1-1.63l0,0a.55.55,0,0,0-.14-.78.56.56,0,0,0-.78.13L61.85,34.13,52.53,20.87a.56.56,0,0,0-.78-.13.55.55,0,0,0-.14.78l0,0a12.82,12.82,0,0,0-5.11,1.63,5.64,5.64,0,0,0-2.11,2.11,4.33,4.33,0,0,0-.28,2.95,5.62,5.62,0,0,0,.45,1.25c-1.95,2-6,2.3-6.08,2.3ZM56,44.13a.06.06,0,0,1,0,0v0a1,1,0,0,1,0-.1.69.69,0,0,0-.17-.22.1.1,0,0,0-.05,0l-.07,0-.07,0h-.2l0,0,0,0,.06,0h.25l.08,0a.42.42,0,0,1,.12.15A.83.83,0,0,1,56,44ZM67.71,44a.83.83,0,0,1,0-.15.53.53,0,0,1,.11-.15l.09,0h.25l0,0,0,0,0,0h-.21l-.06,0-.07,0a.1.1,0,0,0,0,0,.69.69,0,0,0-.17.22,1,1,0,0,1,0,.1v0a.06.06,0,0,1,0,0ZM43.77,37.76c-.31-.47-.68-1-1.08-1.56.2,0,.5,0,.85,0,.14.23.27.44.38.64.22.39.42.76.62,1.1A3.62,3.62,0,0,1,43.77,37.76Zm-1.25-3.12a2.73,2.73,0,0,0,.88-.23l.05,0,.39-.18c.22.33.44.67.67,1s.33.48.5.75a6.55,6.55,0,0,1-1.45.22C43.26,35.7,42.9,35.17,42.52,34.64Zm3.87,5.07a4,4,0,0,1-.85-.11c-.17-.29-.51-.86-.93-1.6a7.57,7.57,0,0,0,1.58,0c.4.75.72,1.39.86,1.67A3.85,3.85,0,0,1,46.39,39.71ZM46.21,38c-.34-.64-.74-1.36-1.14-2a5.44,5.44,0,0,0,.52-.19,4.17,4.17,0,0,0,.69-.38c.38.72.78,1.61,1.12,2.37C47,37.85,46.63,37.92,46.21,38ZM49,29.22a1.68,1.68,0,0,1,.1.29,16.29,16.29,0,0,0,.58,1.66,2.27,2.27,0,0,0-.31.17l-.63.39c-.42.26-.76.47-1,.66a8.14,8.14,0,0,0-.41-1.84A8,8,0,0,1,49,29.22Zm-.84-1.75a11.67,11.67,0,0,1,2.39-1.23,7.82,7.82,0,0,1,.41.85c.09.26.24.62.41,1a13.68,13.68,0,0,0-2.1.9l-.25.14C48.88,28.73,48.56,28.13,48.2,27.47Zm.33,8,0,0A4.91,4.91,0,0,1,49,35a3,3,0,0,1,.22.36A2.13,2.13,0,0,1,48.53,35.49Zm.76,1.38c-.15.1-.34.23-.57.36-.06-.15-.12-.27-.15-.38A4.21,4.21,0,0,0,49.29,36.87Zm-1.58-4.42c0,.13,0,.25,0,.37a4.89,4.89,0,0,0,.62,2.26l-.12.15a1.9,1.9,0,0,0-.46.92,7.67,7.67,0,0,1-.93-1.43l0,0-.2-.41C46.63,33.39,46.82,33.06,47.71,32.45Zm-1.78,0c-.17-.49-.32-.95-.42-1.3,0,0,0-.57,1.16-2.1.21.47.41.93.56,1.34a.5.5,0,0,1,.05.13A6.26,6.26,0,0,0,45.93,32.47Zm0,.2a18,18,0,0,0,.87,2,1.28,1.28,0,0,1-.53.62c-.13-.24-.25-.46-.37-.65a13.33,13.33,0,0,1-.66-1.27l.07-.06A2.21,2.21,0,0,0,46,32.67Zm2.25,6.73c-.18-.31-.45-.92-.75-1.6h0a4.88,4.88,0,0,0,1.25-.51c.25.53.64,1.23.8,1.49A8,8,0,0,1,48.21,39.4Zm1.44-2.94a3.14,3.14,0,0,0-.39-1.1l.71-.31a2.17,2.17,0,0,1,.58-.19,3.24,3.24,0,0,1,.34,1.48l-.66.06A5.7,5.7,0,0,1,49.65,36.46Zm2.12.34,0,.05h0a3.53,3.53,0,0,1-.9.94h0a10.6,10.6,0,0,0-.54-1c.37,0,.73-.08,1-.08s.45.06.46.07A.08.08,0,0,1,51.77,36.8Zm-.27-1.87a1.64,1.64,0,0,0-.93-.12,6.13,6.13,0,0,0-.4-.73l.5-.28A12.52,12.52,0,0,1,51.5,34.93Zm-.39-1.75-.45.21c-.16-.38-.55-1.31-.9-2.2a11.76,11.76,0,0,1,2.62-.91,23.47,23.47,0,0,0,1.09,2.11A15.9,15.9,0,0,0,51.11,33.18Zm1.29-2.95c-.34-.7-.67-1.46-.94-2.09.72-.25,1.45-.46,2.11-.62a16.43,16.43,0,0,0,1,1.42c.23.26.43.51.61.75C54.32,29.82,53.33,30,52.4,30.23Zm10.21,6.24.66.93.67,1,.67.95.65.93,1.15,1.65.45.66.35.51.3.45-.32-.44-.36-.5c-.15-.19-.3-.41-.48-.64l-1.17-1.63c-.21-.3-.43-.61-.66-.92l-.67-1-.67-.95-.65-.93-.49-.7.05-.08Zm5.91-6.78c.18-.24.38-.49.61-.75a16.43,16.43,0,0,0,1-1.42c.66.16,1.39.37,2.11.62-.27.63-.61,1.39-.94,2.09C70.37,30,69.39,29.82,68.52,29.69Zm4.08,3.49a15.9,15.9,0,0,0-2.36-.79,23.47,23.47,0,0,0,1.09-2.11,11.76,11.76,0,0,1,2.62.91c-.35.89-.74,1.82-.9,2.2Zm5.18-.71a6.26,6.26,0,0,0-1.35-1.93.5.5,0,0,1,0-.13c.15-.41.35-.87.56-1.34,1.12,1.53,1.16,2.06,1.16,2.1C78.1,31.52,78,32,77.78,32.47Zm.59.89.07.06a13.33,13.33,0,0,1-.66,1.27c-.12.19-.24.41-.37.65a1.28,1.28,0,0,1-.53-.62,18,18,0,0,0,.87-2A2.09,2.09,0,0,0,78.37,33.36Zm-1.3.9c-.07.14-.14.27-.2.41l0,0a7.67,7.67,0,0,1-.93,1.43,1.9,1.9,0,0,0-.46-.92l-.12-.15A4.89,4.89,0,0,0,76,32.82c0-.12,0-.24,0-.37C76.89,33.06,77.08,33.39,77.07,34.26ZM76,32.39c-.28-.19-.62-.4-1-.66l-.63-.39a3.07,3.07,0,0,0-.31-.17,16.29,16.29,0,0,0,.58-1.66,1.68,1.68,0,0,1,.1-.29,8,8,0,0,1,1.71,1.33A8.14,8.14,0,0,0,76,32.39Zm-1.47,3c.09-.15.17-.28.23-.36a4.91,4.91,0,0,1,.43.48l0,0A2.23,2.23,0,0,1,74.5,35.34Zm.64,1.51-.15.38c-.23-.13-.42-.26-.57-.36A4.21,4.21,0,0,0,75.14,36.85Zm-.49-7.69L74.4,29a13.68,13.68,0,0,0-2.1-.9c.17-.41.32-.77.41-1s.23-.52.4-.85a12,12,0,0,1,2.4,1.22C75.15,28.13,74.83,28.73,74.65,29.16ZM73,33.8l.49.28c-.09.16-.25.42-.39.73a1.62,1.62,0,0,0-.93.12A10.83,10.83,0,0,1,73,33.8Zm-.18,4h0a3.59,3.59,0,0,1-.89-.94h0l0-.05a.08.08,0,0,1,0,0s.09-.07.46-.07.64,0,1,.08A10.6,10.6,0,0,0,72.86,37.79Zm.62-1.39-.66-.06a3.24,3.24,0,0,1,.34-1.48,2.17,2.17,0,0,1,.58.19l.71.31a3.14,3.14,0,0,0-.39,1.1Zm2.77,1.4c-.3.68-.57,1.29-.75,1.6a7.58,7.58,0,0,1-1.29-.63c.16-.26.55-1,.8-1.49a4.88,4.88,0,0,0,1.25.51Zm1.18-2.4a4.17,4.17,0,0,0,.69.38,5.44,5.44,0,0,0,.52.19c-.4.64-.8,1.36-1.14,2-.42,0-.83-.12-1.19-.2C76.65,37,77.05,36.12,77.43,35.4Zm.74,4.2a4,4,0,0,1-.85.11,3.81,3.81,0,0,1-.66,0c.14-.28.46-.92.86-1.67a7.57,7.57,0,0,0,1.58,0C78.68,38.74,78.34,39.31,78.17,39.6Zm1.77-1.84a3.62,3.62,0,0,1-.77.19l.62-1.1c.11-.2.23-.41.38-.64.35,0,.65,0,.85,0C80.62,36.76,80.25,37.29,79.94,37.76Zm.21-1.59A6.55,6.55,0,0,1,78.7,36c.17-.27.33-.52.5-.75s.45-.66.67-1c.13.07.27.12.39.18l0,0a2.66,2.66,0,0,0,.88.23C80.81,35.17,80.45,35.7,80.15,36.17Zm2.06-1.53a5.51,5.51,0,0,1-1,0c.34-.46.68-.93,1-1.34a9.06,9.06,0,0,0,1.13,0C83,33.7,82.6,34.16,82.21,34.64Zm-.71-3.28a10.77,10.77,0,0,0,1.25.39l.52.13c-.21.26-.59.75-1,1.35a6.88,6.88,0,0,1-1.56-.32C81.05,32.26,81.34,31.71,81.5,31.36Zm-1.65,2.81a10.05,10.05,0,0,1-1.36-.76c.2-.45.4-.92.58-1.35l.46.33a4.74,4.74,0,0,0,1.08.54C80.39,33.32,80.13,33.74,79.85,34.17Zm-.19-3.74c-.1.28-.33.88-.61,1.57-.6-.47-.76-.74-.79-.89l0-.14,0-.16a5.33,5.33,0,0,1,.45-1.12A6.28,6.28,0,0,0,79.66,30.43Zm-.79-5.14a1.47,1.47,0,0,1,.09.17A4.3,4.3,0,0,1,79,29,8.23,8.23,0,0,0,78,27C78.39,26.22,78.71,25.6,78.87,25.29ZM78,27c-.31.63-.64,1.34-1,2-.16-.22-.34-.45-.54-.7a4.26,4.26,0,0,0-.93-.85l.37-.66c.25-.46.51-.92.74-1.35a3.89,3.89,0,0,1,.91.9ZM75.34,22.7a9.71,9.71,0,0,1,1.65.8l.4.27a9.46,9.46,0,0,1-.73,1.62,11.23,11.23,0,0,0-2.31-1.21C74.79,23.5,75.19,22.92,75.34,22.7ZM73.1,26.19c-.4-.15-.79-.29-1.16-.41l-.65-.21c.41-.72.79-1.43,1.1-2,.59.18,1.25.4,1.91.66C73.88,24.84,73.43,25.57,73.1,26.19Zm-1.7-4.41c.54.08,1.32.23,1.69.3-.13.26-.38.77-.72,1.41-.81-.25-1.49-.41-1.84-.49ZM69.09,25c.43.09,1.23.28,2.15.56-.37.64-.75,1.3-1.12,1.88a16.21,16.21,0,0,0-2.52-.34ZM66,29.41c.44,0,1.36.14,2.46.31a13,13,0,0,0-1.37,2.08c-.93-.12-2.1-.16-2.66-.18ZM62.74,34.2c.15-.19.27-.36.37-.5s.32-.43.32-.43l-.3.44-.35.51-.46.66-.53.78-.61.87-.65.93-.67.95-.68,1-.65.92-1.17,1.63c-.18.23-.33.45-.48.64l-.36.5-.32.44.3-.45c.1-.14.22-.31.35-.51l.45-.66,1.15-1.65.65-.93.67-.95.67-1,.66-.93c.22-.29.42-.58.62-.85l.55-.77Zm-2.14-.5c.1.14.22.31.37.5l.42.59,0,.05c-.16-.22-.3-.43-.43-.62l-.35-.51-.3-.44S60.4,33.42,60.6,33.7Zm-1.31-2.08c-.56,0-1.73.06-2.66.18a13,13,0,0,0-1.37-2.08c1.1-.17,2-.27,2.46-.31Zm-3.18-4.48a17.53,17.53,0,0,0-2.52.34c-.37-.58-.75-1.24-1.12-1.88.92-.28,1.72-.47,2.15-.56Zm-3.8-5.36L53.18,23c-.35.08-1,.24-1.84.49-.34-.64-.59-1.15-.72-1.41C51,22,51.77,21.86,52.31,21.78Zm-1,1.76c.31.6.69,1.31,1.1,2l-.65.21c-.37.12-.76.26-1.16.41-.33-.62-.78-1.35-1.2-2C50.07,23.94,50.73,23.72,51.32,23.54Zm-4.6,0a9.71,9.71,0,0,1,1.65-.8c.15.22.55.8,1,1.48a11.23,11.23,0,0,0-2.31,1.21,9.46,9.46,0,0,1-.73-1.62Zm-.59,2.84a3.89,3.89,0,0,1,.91-.9c.23.43.49.89.74,1.35l.37.66a4.26,4.26,0,0,0-.93.85c-.2.25-.38.48-.54.7-.31-.69-.65-1.4-1-2Zm-1.38-.88a1.47,1.47,0,0,1,.09-.17c.16.3.48.93.85,1.68a8.23,8.23,0,0,0-.94,2A4.3,4.3,0,0,1,44.75,25.46Zm.16,4.23a5.33,5.33,0,0,1,.45,1.12l0,.16,0,.14c0,.15-.19.42-.79.89-.28-.69-.51-1.29-.61-1.57A6.28,6.28,0,0,0,44.91,29.69Zm-.73,2.7.46-.33c.18.43.38.9.58,1.35a10.05,10.05,0,0,1-1.36.76c-.28-.43-.54-.85-.77-1.24A4.61,4.61,0,0,0,44.18,32.39ZM41,31.75a10.77,10.77,0,0,0,1.25-.39A16.44,16.44,0,0,0,43,32.91a6.88,6.88,0,0,1-1.56.32c-.45-.6-.83-1.09-1-1.35Zm.5,1.52c.32.41.66.88,1,1.34a5.38,5.38,0,0,1-1,0c-.39-.48-.78-.94-1.17-1.35A9.08,9.08,0,0,0,41.46,33.27Z"></path><path class="cls-1" d="M82.79,103.22a195.08,195.08,0,0,1-24,1.71h0a56.09,56.09,0,0,1-8.48-.49A26,26,0,0,1,43.53,102l-5.91.87-.29,0a7.39,7.39,0,0,1-.8,0c-5.16,0-10-5.21-11.63-12.43-7-4.92-13.28-9.72-16.06-11.9l-3.63-.07c-1.93,0-3.25-1.75-3.94-5.17v54H122.76V104.9L106,98.15C98.29,100.83,89,102.4,82.79,103.22Zm-70.35,15.6a4.82,4.82,0,0,0,2.84-1.21l2.63,4.16a8.07,8.07,0,0,1-6.13,2.41,8,8,0,1,1,0-16,8.07,8.07,0,0,1,6.13,2.41l-2.63,4.16a4.82,4.82,0,0,0-2.84-1.21,2.63,2.63,0,0,0,0,5.26Zm16.19,5-.44-2.19H25.35l-.44,2.19H18.56l4.49-15.32h7.44c0,.09,4.49,15.32,4.49,15.32Zm16.41,0-2.62-5H42.2v5H36.51V108.53s3.06-.22,6.35-.22c4.81,0,7,2.19,7,5.36s-2,4.27-2,4.27l3.72,5.91Zm19.26,0-1.64-7.77L61,123.85H54.67l-3.28-15.32H57.3L58.5,117l1.64-8.43h5L66.82,117l1.2-8.43h5.91l-3.28,15.32Zm19.26,0-.44-2.19H80.28l-.44,2.19H73.49L78,108.53h7.44c0,.09,4.49,15.32,4.49,15.32Zm13.57.33c-4.82,0-6.79-2.63-6.79-2.63l2.08-3.28a6,6,0,0,0,3.72,1.42c.55,0,.88-.33.88-.65,0-1.1-5.91-1.1-5.91-5.91,0-2.52,2.41-4.93,6.24-4.93a7.85,7.85,0,0,1,5.91,2.41l-2.08,3.28a4.88,4.88,0,0,0-2.85-1.2c-.54,0-.87.33-.87.66,0,1.09,5.91,1.09,5.91,5.9C103.37,121.77,101,124.18,97.13,124.18Zm22.87-.33h-5.69V118.6h-3.5v5.25h-5.69V108.53h5.69v5.25h3.5v-5.25H120Z"></path><path class="cls-1" d="M5.22,76.84h0l4.21.08c2.7,2.13,9.4,7.31,17,12.58l.09.44c1.39,6.55,5.69,11.31,10,11.31a5.52,5.52,0,0,0,.71,0h.13l6.44-.94a26.18,26.18,0,0,0,6.73,2.51,55.43,55.43,0,0,0,8.21.47,191.63,191.63,0,0,0,23.81-1.7c9.3-1.24,25.89-4.18,32.58-10a18.09,18.09,0,0,0,6.06-16.16c-.69-4.2-3-7.42-6.47-8.83-9.16-3.79-36.43-6.24-38-6.38l-.19,0-1.65-2.45C68.77,48.55,68,47.38,58,46.36c-10.43-1.07-30.61-1-37.75.47-5,1.06-8.06,5.85-9.5,8.84l-6.54.38a4.16,4.16,0,0,0-3.8,3.13c-.91,3.6-.57,8.67,2.2,12C2.83,72.73,3.46,76.84,5.22,76.84Zm.32-1.36a.62.62,0,0,1-.32.13.58.58,0,0,1-.38-.13,1,1,0,0,1-.22-.25,3.15,3.15,0,0,1-.31-.57,7.22,7.22,0,0,1-.39-1.27c-.11-.45-.18-.92-.25-1.4s-.12-1-.16-1.44a27.7,27.7,0,0,1-.06-2.86,18,18,0,0,1,.22-2.49,6,6,0,0,1,.48-1.69,1,1,0,0,1,.32-.38.45.45,0,0,1,.16-.05s-.06,0-.16.06a.91.91,0,0,0-.28.39,6.12,6.12,0,0,0-.39,1.69,20.63,20.63,0,0,0-.12,2.47,27.7,27.7,0,0,0,.15,2.83c0,.48.11,1,.19,1.42s.16.92.27,1.36a9.91,9.91,0,0,0,.36,1.23,2.91,2.91,0,0,0,.25.5.57.57,0,0,0,.16.18.21.21,0,0,0,.13.07.51.51,0,0,0,.33-.2,2.19,2.19,0,0,0,.27-.35,7.46,7.46,0,0,0,.35-.67c.09-.19.15-.34.2-.45l.07-.16,0,.18c0,.11,0,.28-.1.48a4,4,0,0,1-.27.74,2.4,2.4,0,0,1-.26.42A1.39,1.39,0,0,1,5.54,75.48Zm.61-2.74a9.36,9.36,0,0,1,.08-2.65A7.58,7.58,0,0,1,6.15,72.74Zm-.34-2.89A10.66,10.66,0,0,0,5.4,73s-.22-1.09-.31-1.56a11.08,11.08,0,0,1,.52-2.17A1.6,1.6,0,0,0,5.81,69.85Zm-1.36,0c0,.43.12.89.2,1.35s.16.91.24,1.34c0,.21.09.42.13.61s.08.38.12.55.08.32.12.45a3.44,3.44,0,0,0,.11.34.46.46,0,0,0,.12.18.1.1,0,0,0,.08,0,.13.13,0,0,1-.09,0,.35.35,0,0,1-.21-.15,1.11,1.11,0,0,1-.21-.32,2.45,2.45,0,0,1-.18-.46c-.06-.17-.11-.35-.16-.55s-.09-.4-.14-.62c-.08-.43-.14-.9-.2-1.36s-.09-.94-.12-1.37-.06-.85-.07-1.2,0-.64,0-.85v-.32l0,.32c0,.2,0,.49.09.84S4.39,69.36,4.45,69.8ZM4.67,69a8.15,8.15,0,0,1-.15-1.3,1.56,1.56,0,0,0,.9.59c0,.15.06.53.06.53A1.16,1.16,0,0,0,4.67,69ZM4.4,66a5.77,5.77,0,0,1,.07-.71,8,8,0,0,0,1,2.11A3.17,3.17,0,0,1,4.4,66Zm1.7,9.47a1.4,1.4,0,0,1-.17.22l-.16.17.14-.19.14-.23a2.94,2.94,0,0,0,.16-.31c.06-.11.11-.23.17-.37s.1-.28.15-.43.09-.31.14-.47l.12-.49c0-.16.06-.33.09-.49s.06-.33.08-.49c0-.31.09-.61.11-.86l.09-.85V71c0,.15,0,.37,0,.62s0,.56,0,.88-.09.66-.16,1c0,.17-.08.33-.12.5s-.1.32-.16.47a4.27,4.27,0,0,1-.18.43c-.06.14-.13.26-.19.37A2.43,2.43,0,0,1,6.1,75.51Zm5.3,1.26a8.41,8.41,0,0,1-1.56-1.59A8,8,0,0,1,9,73.93a9.72,9.72,0,0,1-.69-1.53,11.91,11.91,0,0,1-.49-1.73c-.12-.6-.19-1.23-.25-1.82s-.13-1.19-.21-1.78-.17-1.15-.28-1.7a15.56,15.56,0,0,0-.37-1.56,5.19,5.19,0,0,0-.55-1.28A1,1,0,0,0,5.33,62a1.54,1.54,0,0,0-.8.34,4.36,4.36,0,0,0-.46.41l-.15.15L4,62.67a3.82,3.82,0,0,1,.4-.48,2.17,2.17,0,0,1,.35-.3,1.45,1.45,0,0,1,.52-.21,1.05,1.05,0,0,1,.66.13,1.76,1.76,0,0,1,.54.48,4.83,4.83,0,0,1,.72,1.35,12.31,12.31,0,0,1,.49,1.59c.13.56.25,1.15.34,1.74s.18,1.2.25,1.81.12,1.19.22,1.76a12.92,12.92,0,0,0,1,3.14c.22.46.45.88.68,1.26a11.67,11.67,0,0,0,.7,1c.22.28.43.52.61.71a7.19,7.19,0,0,0,.61.57A4,4,0,0,1,11.4,76.77ZM9.57,60.38c.2.1.41.21.65.31.47.21,1,.44,1.58.71l.35.15.22-.11A7.92,7.92,0,0,1,14,60.83a4.73,4.73,0,0,1,.48-.11l.18,0-.17,0-.48.15c-.2.06-.44.15-.71.26l-.11,0,.4.08c.36.07.89.18,1.55.34l1.1.25,1.3.31c.92.22,2,.48,3.09.78l1.77.46,1.88.52c1.29.35,2.65.74,4.05,1.15l2.13.64,2.17.66,4.43,1.41c3,1,5.91,2,8.65,3l2,.77c.66.26,1.31.51,1.93.77,1.21.56,2.41,1,3.48,1.49A24.75,24.75,0,0,1,56,75.31a12.85,12.85,0,0,1,2,1.47A6.5,6.5,0,0,1,59,78l.13.2.09.16.07.12-.08-.12-.1-.14L59,78a6.87,6.87,0,0,0-1.12-1.1,13.55,13.55,0,0,0-2-1.32A25.63,25.63,0,0,0,53,74.31c-.55-.21-1.11-.42-1.71-.63l-.45-.15-.23-.08,0,0h-.06l-.11,0-1-.28-4-1.14c-1.4-.39-2.85-.82-4.32-1.25s-3-.88-4.45-1.34-3-.92-4.43-1.38L30,67.28c-.72-.23-1.42-.46-2.11-.7l-.76-.25-.14.19c-.12.18-.25.38-.37.6l.63.22,1.94.67,4,1.39-.3-.06-.84-.19c-.73-.16-1.76-.41-3-.74-.62-.17-1.28-.35-2-.56l-.72-.22c-.07.16-.13.33-.19.5a3.19,3.19,0,0,0-.11.33L26,68.8c0,.12-.06.24-.1.36l-.06.37c0,.25-.1.5-.12.77s-.06.53-.08.8l0,.82c0,.28,0,.56,0,.84s0,.57,0,.85,0,.57,0,.85v.42l0,.42c.05.56.06,1.11.12,1.64s.1,1,.14,1.53.1,1,.15,1.37c.08.85.17,1.56.22,2.06s.09.78.09.78l-.16-.77c0-.25-.1-.55-.16-.89,0-.17-.07-.35-.1-.54s-.06-.4-.1-.61c-.06-.42-.13-.88-.21-1.37s-.12-1-.18-1.53l0-.4,0-.41c0-.27,0-.55-.07-.83l0-.43c0-.14,0-.28,0-.42,0-.29,0-.57,0-.86s0-.57,0-.86,0-.57,0-.85,0-.56.05-.84.07-.55.1-.82.09-.53.14-.78,0-.25.08-.38.07-.24.11-.36.07-.24.1-.35.09-.23.13-.33.13-.33.21-.48l-.15,0-1.12-.35c-.76-.24-1.54-.5-2.33-.78s-1.59-.56-2.39-.85-1.58-.61-2.36-.93l-1.15-.48c-.37-.16-.75-.31-1.11-.48-.73-.33-1.43-.64-2.09-1l-1.57-.79a2.44,2.44,0,0,0-.39.33,3.33,3.33,0,0,0-.66,1.08,12,12,0,0,0-.45,1.32c-.12.45-.22.93-.31,1.4a16.25,16.25,0,0,0-.25,2.83c0,.45,0,.89.05,1.3S10,71,10,71.34c0,.18.05.35.08.51s.06.32.09.46.12.54.18.75.1.36.13.47l0,.17-.06-.16c0-.11-.1-.26-.16-.47a7.7,7.7,0,0,1-.22-.74c0-.14-.08-.29-.12-.46s-.07-.33-.1-.51c-.07-.36-.13-.75-.17-1.17a11.14,11.14,0,0,1-.08-1.32A16.7,16.7,0,0,1,9.85,66a11.84,11.84,0,0,1,.33-1.43,9.5,9.5,0,0,1,.47-1.33,3.21,3.21,0,0,1,.72-1.14c.11-.1.23-.19.35-.28l-.1,0-1.52-.84c-.23-.12-.44-.25-.63-.36L9,60.24l-.74-.46L8,59.62l.27.13c.18.09.45.2.78.37ZM30,48.32c3.42.31,15.63-1,33.56.67,0,0-21.87-.56-34.09,1A51,51,0,0,0,20,49S26.59,48,30,48.32ZM72.26,60.61c.12.23.21.42.27.55l.09.19-.17-.12L72,60.86c-.41-.32-1-.78-1.66-1.35l-1.07-.91-.06-.05-.5-.11c-3.21-.7-6.46-1.41-9.59-2l-.58-4.06,3.33,0-.08-.06-.57-.41-.55-.36c-.18-.12-.35-.23-.52-.32L59.65,51l-.43-.23-.38-.18c-.23-.12-.42-.18-.55-.24l-.2-.08.21,0,.27,0h.35l.45,0,.51.07a8.6,8.6,0,0,1,1.23.29c.22.06.44.15.67.23s.47.19.71.3c.47.22,1,.48,1.45.77.31.18.62.38.93.59l1.44,0c2,2.07,4.27,4.89,5.71,6.7L71.3,59C71.72,59.65,72,60.2,72.26,60.61Zm3.11,1.55-.52.06-1.46.16-2.27.23-2.94.27-3.49.28c-1.24.1-2.55.2-3.9.28l-4.17.26c-1.42.08-2.87.14-4.31.21s-2.89.11-4.31.16l-4.18.09-3.91,0-3.5,0-3-.09c-.88,0-1.65-.08-2.28-.12l-2-.12,2,0c.63,0,1.4,0,2.28,0s1.87,0,2.95,0l3.5,0,3.9-.1L48,63.61l4.31-.17c1.44-.07,2.89-.12,4.31-.2L60.77,63l3.89-.21,3.5-.2ZM42.83,87.53c-.12-.31-.22-.61-.33-.91l-.15-.46-.16-.44c-.11-.29-.23-.59-.35-.87-.23-.58-.5-1.14-.78-1.69a17.53,17.53,0,0,0-.89-1.59c-.32-.51-.66-1-1-1.45a11.93,11.93,0,0,0-.85-1L38,78.89a3.76,3.76,0,0,0-.61-.36c-.21-.1-.43-.19-.64-.27l-.31-.09-.31-.08-.3,0-.28,0h-.49l-.38,0-.33,0,.33-.07.38-.06a4,4,0,0,1,.5,0h.29l.3,0,.32.06a2,2,0,0,1,.33.09,4.62,4.62,0,0,1,.67.26l.25.13c-.29-.27-.58-.52-.88-.75a7.4,7.4,0,0,0-2.58-1.33,5.26,5.26,0,0,0-2.45-.08,5.58,5.58,0,0,0-1,.33,4.61,4.61,0,0,0-.8.42,8,8,0,0,0-1,.79l-.24.25-.09.08.07-.1.2-.28a6,6,0,0,1,.9-1,5.42,5.42,0,0,1,1.83-1.06A5.52,5.52,0,0,1,33,75.5a5.74,5.74,0,0,1,1.48.07,7.81,7.81,0,0,1,3.06,1.26,13,13,0,0,1,2.69,2.46c.4.48.79,1,1.15,1.53s.69,1.1,1,1.68.59,1.18.85,1.79q.19.46.36.93l.17.47.16.46c.1.3.2.62.31.91s.21.59.33.88.22.59.35.87.25.57.38.85.27.55.4.83.28.54.44.79a12.45,12.45,0,0,0,1,1.47A10.52,10.52,0,0,0,48.15,94a9.15,9.15,0,0,0,1.24,1l.33.22.33.21.33.18a3.65,3.65,0,0,0,.34.18,11,11,0,0,0,1.34.57,19.58,19.58,0,0,0,2.51.66c.76.15,1.44.26,2,.33l1.3.17.46.05-.46,0-.56,0h-.76c-.57,0-1.26,0-2.06-.08a17.37,17.37,0,0,1-2.66-.43,11.44,11.44,0,0,1-3-1.24,11.11,11.11,0,0,1-2.76-2.4A16.89,16.89,0,0,1,44,90.26c-.14-.3-.28-.59-.41-.89s-.27-.61-.39-.91S43,87.84,42.83,87.53Zm-12.47-.47a3.83,3.83,0,0,0,0,.47l0,.26,0,.27a2.51,2.51,0,0,0,0,.27,2.93,2.93,0,0,0,.05.29c0,.1,0,.2,0,.3l.06.3c.09.41.21.83.35,1.26a11.56,11.56,0,0,0,.5,1.3c.2.44.41.87.65,1.29.12.21.25.41.37.61s.27.4.41.59.29.38.43.56.15.18.22.27l.23.25a11.4,11.4,0,0,0,.92.92l.47.38.46.33c.31.19.6.36.86.49a6.76,6.76,0,0,0,.72.29l.28.08.21,0,.17,0h-.4l-.29,0a4.87,4.87,0,0,1-.79-.15c-.16,0-.31-.1-.48-.16s-.33-.14-.5-.22a7.27,7.27,0,0,1-1.08-.64,9.44,9.44,0,0,1-1.06-.89,9.56,9.56,0,0,1-1-1.11c-.16-.2-.3-.41-.45-.62s-.28-.43-.4-.66a11.64,11.64,0,0,1-.68-1.37l-.14-.35-.12-.36c-.08-.23-.14-.47-.2-.7a10.44,10.44,0,0,1-.26-1.36c0-.22-.05-.43-.05-.64l0-.3v-.3c0-.19,0-.37,0-.55s0-.33.05-.49.1-.57.14-.78.11-.38.13-.5l.06-.17v.18c0,.12,0,.29,0,.51S30.34,86.76,30.36,87.06ZM36,83.77v.29l0,.56,0,.49,0,.42c0,.13,0,.24,0,.33l0,.28s0-.1-.09-.27-.11-.43-.17-.74c0-.15-.06-.32-.08-.5s0-.36-.06-.56a5.74,5.74,0,0,1,0-.6c0-.2,0-.41,0-.62s0-.42,0-.63.06-.4.1-.6.09-.37.15-.54.11-.34.17-.48l.2-.38a2,2,0,0,1,.17-.28l.17-.24a2.45,2.45,0,0,1-.13.26c0,.08-.09.17-.13.29s-.09.26-.15.4-.08.31-.13.47-.07.36-.11.54-.05.39-.08.59,0,.4,0,.61,0,.41,0,.61Zm0,2.89.1,0,.08,0h0l-.07,0a.2.2,0,0,0-.09,0,.67.67,0,0,0-.21.18,1.39,1.39,0,0,0-.17.3,1.86,1.86,0,0,0-.11.87s0,.08,0,.12l0,.12a2.17,2.17,0,0,0,.07.24,1.71,1.71,0,0,0,.22.45,1,1,0,0,0,.36.33.62.62,0,0,0,.44.07.66.66,0,0,0,.36-.23,1.16,1.16,0,0,0,.21-.35,2,2,0,0,0,.14-.62V88a.74.74,0,0,1,0,.18,1.39,1.39,0,0,1,0,.29,1.75,1.75,0,0,1-.07.36,1.54,1.54,0,0,1-.21.4.77.77,0,0,1-.43.3.76.76,0,0,1-.55-.06,1.31,1.31,0,0,1-.42-.39,1.54,1.54,0,0,1-.24-.5,2,2,0,0,1-.07-.26l0-.13a.53.53,0,0,0,0-.13,1.89,1.89,0,0,1,.18-.92A1,1,0,0,1,36.06,86.66Zm.85-.36s0-.07,0-.18a3.76,3.76,0,0,1,.11-.48c0-.09.06-.2.1-.31s.08-.22.13-.34.11-.23.16-.35.13-.23.2-.35l.21-.34c.08-.11.16-.21.23-.32l.23-.28c.07-.09.15-.16.22-.24a3.51,3.51,0,0,1,.35-.34l.13-.12-.12.14-.14.15a2,2,0,0,0-.18.21l-.21.25-.22.28-.22.32-.2.34a3.79,3.79,0,0,0-.2.34c-.06.12-.12.23-.17.35a5.86,5.86,0,0,0-.25.63c-.06.19-.11.35-.14.46A1.64,1.64,0,0,0,36.91,86.3ZM35,95.7a5.34,5.34,0,0,1-1.69-2.13,8,8,0,0,1,2.08-4.26,1.66,1.66,0,0,0,.35.34,2.49,2.49,0,0,0,.39.23C34.45,91.7,35,95.7,35,95.7Zm.1-8.88s-3.56-1.62-3.92-2.76a4.87,4.87,0,0,1,.63-2.52s.38,2.72,3.75,4.63A1,1,0,0,0,35.14,86.82Zm-.15,1a2.27,2.27,0,0,0,0,.94,4.82,4.82,0,0,0-3.72,1.28,4.57,4.57,0,0,1-.28-2.3S32.18,87.29,35,87.83ZM36.84,90a1.14,1.14,0,0,0,.74-.52c.37,3.8,2.75,5.12,2.75,5.12a4.24,4.24,0,0,1-1.57,1.8A13,13,0,0,1,36.84,90Zm1-1.19a1.62,1.62,0,0,0,0-.64c1,.92,3.33-.88,3.33-.88a11.11,11.11,0,0,1,.08,2.41C38.6,88.91,37.83,88.76,37.83,88.76Zm-9.66-8.28c-.05.13-.11.25-.16.37l-.14.39a6.91,6.91,0,0,0-.25.77l-.12.38-.09.38c-.05.25-.13.49-.16.72s-.09.45-.13.65-.06.39-.09.56,0,.31-.06.42-.06.38-.06.38,0-.14,0-.38,0-.27,0-.43,0-.36,0-.57.05-.43.08-.66.09-.48.14-.74l.08-.38c0-.14.07-.26.1-.4s.15-.53.25-.79l.15-.39c.05-.12.11-.25.17-.37s.11-.25.18-.37l.19-.35.21-.32.21-.3a3.8,3.8,0,0,1,.45-.51,3.52,3.52,0,0,1,.42-.38,3,3,0,0,1,.36-.25,1.53,1.53,0,0,1,.25-.13l.09,0-.09.05L30,78a3.3,3.3,0,0,0-.33.27,3.83,3.83,0,0,0-.38.41c-.14.15-.26.34-.4.52a3.21,3.21,0,0,0-.19.31,1.69,1.69,0,0,0-.19.32l-.18.34C28.27,80.24,28.23,80.36,28.17,80.48ZM14.06,65.05a.58.58,0,0,0-.16-.32.34.34,0,0,0-.16-.1l-.22-.08a5.8,5.8,0,0,1-.76-.41L12.53,64l-.08-.06.1,0,.26.1.78.35.21.09a.74.74,0,0,1,.21.15.7.7,0,0,1,.14.41.76.76,0,0,1,0,.15l0,0,.34.15.13.06-.14.06a1.3,1.3,0,0,1-.4.06,1.68,1.68,0,0,1-.56-.11,3.67,3.67,0,0,1-.57-.27,3.1,3.1,0,0,1-.91-.74.9.9,0,0,1-.19-.36.22.22,0,0,1,0-.11.06.06,0,0,1,0,0l0,0A.33.33,0,0,0,12,64l.12.09a.77.77,0,0,0,.18.1c.26.15.61.32,1,.51l.51.26.23.12.11.05S14.07,65.08,14.06,65.05Zm3.56,13.51s5.49,2.19,8.76,5.5c0,0-.1,1.28-.13,2.78C26.25,86.84,20.24,80.2,17.62,78.56Zm25.05-6.14s8.63,1.68,10.45,3.15c.38.31-.47.08-2.07,1.19C49.93,77.54,49.35,74.75,42.67,72.42Zm20.14,8.06a10.85,10.85,0,0,0-1.26-2.43,12.68,12.68,0,0,0-2-2.28,17.59,17.59,0,0,0-2.68-1.89c-.48-.28-1-.55-1.5-.79s-1-.47-1.58-.69-1.06-.41-1.61-.6l-1.64-.57c-1.09-.38-2.15-.77-3.18-1.14s-2-.74-3-1.09l-2.65-1c-1.63-.62-3-1.17-3.94-1.56L36.68,66l-.39-.17,1.55.45,1.77.53c.68.2,1.45.43,2.28.7s1.75.54,2.7.85l3,1c1,.35,2.12.69,3.21,1.06l1.64.56c.55.19,1.12.39,1.67.6s1.1.47,1.63.73,1.06.54,1.56.84a16.07,16.07,0,0,1,2.78,2.07,12.67,12.67,0,0,1,2.07,2.5,10.1,10.1,0,0,1,.7,1.34,10.46,10.46,0,0,1,.47,1.32,9.79,9.79,0,0,1,.39,2.41,9.66,9.66,0,0,1-.1,1.87,7.35,7.35,0,0,1-.25,1.16c-.08.27-.13.4-.13.4s0-.14.08-.41a10.89,10.89,0,0,0,0-3A10.16,10.16,0,0,0,62.81,80.48ZM92.05,87l2.67-.38c.89-.13,1.78-.28,2.66-.43s1.78-.29,2.66-.45l2.66-.49,2.65-.53c1.76-.37,3.52-.76,5.27-1.2-.84.33-1.69.63-2.55.91s-1.73.54-2.6.8-1.74.49-2.62.71-1.75.45-2.63.65l-2.66.58-1.33.26c-.45.08-.89.17-1.34.24-.89.17-1.78.31-2.67.46s-1.8.27-2.69.38-1.8.23-2.7.33L85.48,89c-.45,0-.91.09-1.36.12l-1.35.11-1.36.1-1.35.07-1.36.06c-.91,0-1.81.07-2.72.08H73.27c-.91,0-1.81,0-2.72-.06l-1.35-.06L68,89.31a2.77,2.77,0,0,0-.1.26c-.06.15-.12.3-.17.45-.1.31-.2.62-.29.93-.17.63-.32,1.26-.43,1.91a12.62,12.62,0,0,0-.19,1.94,8,8,0,0,0,0,1c0,.17,0,.33,0,.49s0,.33,0,.49c0-.16-.07-.32-.1-.48s-.06-.33-.08-.49c0-.33-.08-.66-.1-1,0-.16,0-.33,0-.49v-.5c0-.33,0-.67.06-1a16.47,16.47,0,0,1,.31-2c.07-.32.15-.65.24-1,0-.16.09-.32.14-.48a4.59,4.59,0,0,1,.17-.48l.06-.17h.21c.9,0,1.8,0,2.7,0s1.8,0,2.7-.08l1.34,0L76,88.47c.9,0,1.8-.1,2.69-.15s1.8-.12,2.69-.2L82.67,88,84,87.89l2.68-.27,2.68-.31C90.27,87.21,91.16,87.08,92.05,87Zm-.29-5.26c.31-.16.85.28,1.21,1s.4,1.4.1,1.56-.84-.29-1.21-1S91.46,81.86,91.76,81.71Zm4.34,9.37-.86.19-1.75.38L91.68,92l-.91.17c-.31.06-.62.12-.92.16L88,92.61l-.94.14-.93.11-1.85.23-.92.1-.91.08-1.79.14-.87.07-.86,0-1.66.07-.8,0a6.66,6.66,0,0,1-.77,0H72.87c-.43,0-.84,0-1.22,0l-2-.09L68,93.44h3.7c.38,0,.79,0,1.22,0l1.35,0,1.46-.05c.25,0,.51,0,.77,0l.79,0,1.65-.11.86-.05.87-.08,1.78-.17.9-.09.91-.1,1.85-.23.93-.12.93-.15,1.85-.27.92-.16.91-.16c.61-.12,1.21-.21,1.8-.33l1.75-.35.86-.18.83-.19,1.62-.36,1.52-.38.72-.17.7-.19,1.3-.35,1.17-.33,1-.3.87-.27,1.21-.39.43-.14-.42.17-1.19.45-.86.31c-.31.11-.65.23-1,.34l-1.16.38-1.29.4-.69.2-.72.2-1.52.42-1.61.4Zm10.16-3.88-.87.29-1,.32-1.17.36-1.29.36-.7.2-.72.18L99,89.3l-1.61.37-.84.19-.86.17-1.75.35c-.59.12-1.2.22-1.81.32l-.91.16-.92.14-1.86.27-.93.13-.93.1-1.86.2-.91.1-.91.06L81.09,92l-.87.07-.85,0-1.66.06-.8,0c-.26,0-.51,0-.77,0H73.33c-.43,0-.83,0-1.22,0l-2-.09L68.42,92h3.7l1.21,0,1.34,0,1.46,0c.26,0,.51,0,.77,0l.8,0,1.64-.1.86,0,.86-.08,1.78-.15c.6,0,1.21-.1,1.82-.18L86.5,91l.93-.11.92-.13,1.86-.25.92-.14.91-.16,1.8-.29,1.75-.33.86-.16.83-.18L98.9,89l1.52-.35.73-.16.7-.17,1.3-.32,1.18-.31c.37-.09.71-.19,1-.28l.87-.25,1.21-.36.43-.13-.42.16Zm.46-1-.86.27-1,.3-1.16.33-1.31.34-.69.18-.73.17-1.52.36-1.62.34-.83.18-.86.16-1.76.32-1.8.29-.92.14-.92.14L88.85,90l-.93.11-.93.1-1.85.18-.91.08-.91.06-1.78.12-.87.05-.86,0-1.65.05-.79,0c-.26,0-.52,0-.77,0H73.79c-.43,0-.83,0-1.21,0l-2-.1-1.71-.09h3.68c.38,0,.79,0,1.21,0l1.34,0,1.46,0H77l.39,0,.79,0,1.64-.09.86,0,.86-.06,1.78-.14c.59,0,1.2-.09,1.81-.16l1.84-.19.93-.1.93-.12,1.85-.23.92-.13.91-.14c.61-.09,1.21-.17,1.8-.27l1.75-.3.86-.14.84-.16,1.62-.31,1.52-.32.73-.15.7-.15,1.31-.3,1.18-.28,1-.26.87-.22,1.23-.34.43-.12-.43.15ZM86.9,76.43l-1-.41-1.53-.62-2-.78c-.72-.29-1.52-.58-2.35-.9-.42-.17-.86-.32-1.3-.48l-1.35-.49c-.92-.32-1.87-.66-2.85-1l-1.46-.49c-.49-.17-1-.31-1.49-.47l-1.49-.47-1.48-.44-.73-.22-.73-.21-1.44-.39-1.38-.38L63,68.37l-1.26-.32-1.19-.28-2.08-.47L56.86,67l-1-.22-.37-.08.37,0,1.06.12,1.64.2c.63.09,1.34.21,2.11.34l1.21.21,1.28.26,1.36.29c.23,0,.46.1.69.16l.71.18c1,.23,1.94.46,2.93.76l1.5.43,1.5.46,1.49.49,1.47.5.73.25.71.27,1.4.53c.92.35,1.79.71,2.62,1.06s1.61.69,2.32,1,1.37.63,1.94.91l1.48.74.93.5.33.19ZM51,82.22a5.54,5.54,0,0,1,.15-1,4.8,4.8,0,0,1,.59-1.37,4.87,4.87,0,0,1,.39-.47l.2-.19.19-.15a2,2,0,0,1,.27-.17l-.17-.21a2.91,2.91,0,0,0-.24-.28l-.09-.1.1.08c.06.06.16.14.27.26l.2.21h0a.46.46,0,0,1,.14-.07l.13,0,.23-.09-.2.15-.11.08-.11.11.09.1a6.63,6.63,0,0,1,.47.6c.16.22.32.47.49.74s.16.28.25.42.17.29.24.45a1.86,1.86,0,0,1,.1.2,8.8,8.8,0,0,1,1.73.09l0-.06c-.07-.16-.16-.31-.23-.46s-.15-.3-.23-.44-.15-.28-.23-.41l-.22-.38-.21-.34-.2-.31c-.13-.19-.25-.35-.35-.48l-.24-.3-.09-.1.1.09a2.49,2.49,0,0,1,.27.28,4.87,4.87,0,0,1,.39.45c.14.18.31.38.47.62l.25.37c.08.13.16.27.25.4.17.28.33.59.5.9l.12.25a1.47,1.47,0,0,1,.4.16l.28.16a3,3,0,0,1,.48.46,2.65,2.65,0,0,1,.27.42,1.8,1.8,0,0,1,.12.29l0,.1-.06-.09L58.12,83,58,82.84q-.13-.15-.33-.33a2.64,2.64,0,0,0-.49-.34l-.29-.11v0l.11.25c.15.34.3.69.43,1l.2.53c.07.18.12.36.18.53.12.36.24.71.32,1s.19.68.27,1l.11.5,0-.06a3.47,3.47,0,0,0,.25-.29l.11-.16.09-.16A4.28,4.28,0,0,0,59.5,85v0c-.09-.28-.19-.57-.3-.86L59,83.69c-.06-.15-.12-.3-.17-.45s-.24-.58-.35-.87-.24-.57-.38-.83-.25-.53-.37-.77-.24-.47-.36-.68c-.24-.41-.44-.75-.6-1s-.14-.21-.19-.27l-.06-.09.08.08.21.24c.09.11.2.24.32.4s.25.33.38.53l.41.65c.13.24.28.49.41.76s.27.55.4.84.25.58.36.88.12.3.17.45.1.3.16.45l.12.37a7.2,7.2,0,0,0,0-.8,8.39,8.39,0,0,0-.13-1c0-.14-.06-.27-.08-.38l-.08-.28-.07-.24.14.21.15.25a4,4,0,0,1,.18.36,6.08,6.08,0,0,1,.38,1A5.69,5.69,0,0,1,60.26,85a4.89,4.89,0,0,1-.19,1.27l.06.25.13.64c0,.2.06.36.08.5s0,.25,0,.32a2.71,2.71,0,0,0,.3-.39l.15-.23A1.79,1.79,0,0,0,61,87.1a5.47,5.47,0,0,0,.55-2,7.66,7.66,0,0,0,0-1.74,9.51,9.51,0,0,0-.29-1.32L61,81.6l-.14-.34L60.78,81l.13.28c0,.09.1.2.16.34l.18.47a8.42,8.42,0,0,1,.36,1.32,7.18,7.18,0,0,1,.1,1.78,6,6,0,0,1-.52,2A4.1,4.1,0,0,1,59.62,89a4.19,4.19,0,0,1-2.48.57,5.84,5.84,0,0,1-2.48-.86A7.93,7.93,0,0,1,52.71,87c-.14-.17-.26-.35-.39-.52s-.23-.37-.34-.55-.2-.36-.3-.54l-.07-.14a1,1,0,0,1-.07-.15l-.12-.28a8.49,8.49,0,0,1-.61-2.28,7.08,7.08,0,0,1,.06-2.12,5.64,5.64,0,0,1,.6-1.68,5,5,0,0,1,.43-.61l.21-.25.22-.2a3.16,3.16,0,0,1,.41-.31l.17-.11.15-.08.27-.14-.26.16-.15.08-.16.13a2.58,2.58,0,0,0-.38.32l-.21.21-.2.25a3.66,3.66,0,0,0-.39.62,5.71,5.71,0,0,0-.52,1.65A6.56,6.56,0,0,0,51,82.22Zm1.12,6.91.41.26a3.58,3.58,0,0,0,.42.25c.28.15.56.33.85.45s.58.27.88.38a7.13,7.13,0,0,0,.88.32c.58.19,1.16.34,1.71.47s1.08.22,1.58.28l.71.1.64.07.57.05.48,0,.92.06s-.33,0-.92.08l-.49,0H59.55l-.72,0c-.26,0-.52,0-.79,0l-.85-.11a16.73,16.73,0,0,1-1.8-.39c-.31-.08-.62-.19-.93-.3-.15-.06-.32-.1-.47-.17l-.46-.21c-.31-.12-.61-.3-.92-.45-.15-.08-.29-.18-.44-.27l-.44-.27a11.89,11.89,0,0,1-1.58-1.32,9.59,9.59,0,0,1-.68-.75l-.3-.39-.15-.2a1.37,1.37,0,0,1-.13-.2A10.17,10.17,0,0,1,48,85.25a11.88,11.88,0,0,1-.58-1.54A10.67,10.67,0,0,1,47,81.29a6,6,0,0,1,0-.69c0-.15,0-.24,0-.24s0,.09,0,.24.06.38.12.67.14.63.25,1,.26.82.43,1.28A13.1,13.1,0,0,0,48.46,85c.06.12.14.24.21.37s.14.25.22.37l.25.38.26.36.14.19.14.18.3.36c.22.22.42.47.66.68A11.09,11.09,0,0,0,52.14,89.13Zm7.1-9.77.16.18.14.19a5.91,5.91,0,0,1,.79,1.47,5.67,5.67,0,0,1,.29,1.13c0,.28,0,.44,0,.44l0-.1c0-.07-.08-.17-.13-.3s-.13-.27-.22-.44-.19-.35-.3-.55-.26-.41-.41-.62-.32-.42-.5-.63-.4-.41-.61-.6a6.2,6.2,0,0,0-.7-.54,7.15,7.15,0,0,0-.76-.44l-.4-.18-.4-.15-.39-.13L55.4,78c-.12,0-.25-.06-.37-.09l-.35-.07-.62-.1c-.19,0-.36,0-.49,0l-.44-.05.43-.1a4.63,4.63,0,0,1,.5-.07,3,3,0,0,1,.31,0h.35c.12,0,.24,0,.37,0l.41,0,.43.06.44.1.45.13c.15.06.3.11.45.18a6.1,6.1,0,0,1,.87.47,5.8,5.8,0,0,1,.77.62C59,79.13,59.14,79.24,59.24,79.36Zm-14.59,7.3s-.06-.23-.19-.62-.32-1-.58-1.61c-.13-.32-.27-.68-.44-1s-.36-.75-.56-1.15-.43-.78-.67-1.18-.5-.78-.77-1.16-.56-.75-.87-1.1l-.22-.26-.24-.25c-.15-.16-.31-.32-.47-.47l-.48-.43q-.24-.21-.48-.39c-.16-.13-.32-.24-.47-.35L38,76.49l-.23-.14c-.3-.19-.59-.33-.84-.47l-.67-.31-.61-.24.62.2.7.27a7.92,7.92,0,0,1,.87.44l.23.13.24.15c.16.11.33.21.49.34a8.25,8.25,0,0,1,1,.81c.17.15.33.3.49.47l.24.25.24.26a13.84,13.84,0,0,1,.88,1.11c.28.39.54.78.78,1.18.12.2.23.41.34.61l.32.6c.2.4.37.79.53,1.17s.29.73.41,1.07c.24.66.39,1.24.5,1.64S44.65,86.66,44.65,86.66ZM46.22,98a3.74,3.74,0,0,0,.54.24,12,12,0,0,0,2.19.52,33.88,33.88,0,0,0,3.48.36c1.35.08,2.87.12,4.54.12s3.46,0,5.37-.13,3.91-.22,6-.36,4.22-.34,6.39-.54,4.39-.45,6.59-.71,4.41-.54,6.57-.85,4.28-.7,6.32-1.09,4-.84,5.85-1.3,3.58-1,5.16-1.48,3-1,4.26-1.58a33.33,33.33,0,0,0,3.14-1.53,17.21,17.21,0,0,0,1.89-1.22,5.61,5.61,0,0,0,.61-.52,6.13,6.13,0,0,1-.59.54,16,16,0,0,1-1.86,1.28,32.55,32.55,0,0,1-3.12,1.61A45.19,45.19,0,0,1,105.3,93c-1.58.54-3.31,1.06-5.16,1.56s-3.81,1-5.86,1.37S90.11,96.7,88,97l-1.63.24-1.65.23L83,97.73l-1.65.2c-2.21.25-4.42.46-6.6.67s-4.33.38-6.41.51-4.1.24-6,.29-3.72.08-5.38.06a49.11,49.11,0,0,1-8-.66,11.86,11.86,0,0,1-2.18-.58,4.68,4.68,0,0,1-.54-.26,1,1,0,0,1-.16-.12A.7.7,0,0,0,46.22,98Zm56.25-31.52a78.34,78.34,0,0,1,11.76,2.63c1.08.35-.75,0-1.5.6S110.86,68.21,102.47,66.43Zm.5,3.71c.23.15.48.29.72.45l.71.48.71.53c.23.19.47.37.69.56.45.39.89.8,1.29,1.22l.3.32.29.33c.19.21.36.44.53.66A11.42,11.42,0,0,1,109.1,76c.14.22.25.45.36.66s.21.42.29.63a7.56,7.56,0,0,1,.4,1.15,7.15,7.15,0,0,1,.21.91,4.06,4.06,0,0,1,.06.81,1,1,0,0,0,0-.21,4.66,4.66,0,0,0-.13-.58,9.66,9.66,0,0,0-.76-2,12.1,12.1,0,0,0-.7-1.22c-.27-.42-.59-.84-.92-1.26-.18-.21-.35-.43-.54-.63l-.28-.31-.3-.31c-.4-.41-.83-.8-1.27-1.17l-.67-.56-.69-.52-.69-.49-.69-.46c-.23-.15-.47-.28-.69-.43s-.44-.27-.66-.39l-.64-.36-.6-.33c-.38-.21-.74-.39-1.06-.55l-.45-.22L98.27,68l-.73-.35.76.27.41.14.46.19c.34.13.71.28,1.11.47l.63.28.66.33.69.37C102.49,69.86,102.73,70,103,70.14Zm6.2,10.56c-2.73.75-5.54,1.4-8.36,2C96.41,79.44,79,68.05,49,64.7c15.47-.49,27.78-1.8,27.78-1.8a103.11,103.11,0,0,1,12.33,3.17A38.4,38.4,0,0,1,109.17,80.7ZM30.94,53a4.43,4.43,0,0,1-.31-.92l.14.21a4.71,4.71,0,0,0,.42.56l.21.25L32.47,53c-1.38-1.36-.84-2.27,2.34-2.43,2.22-.12,3.19.57,4.73,2,2.91-.13,5.85-.2,8.67-.25-.39.7-.77,1.43-1.13,2.13l-.4,0c-1.13-.08-2.89-.12-5.26-.09.52.47,1.11,1,1.8,1.55,4.51,3.69,25.19,5.56,25.19,5.56s-18.35.4-27.13-3.49a54.89,54.89,0,0,1-6.79-3.46l-1.57.06h0c.2.16.4.33.62.49l.33.25.35.25.74.5c.26.15.52.33.79.48.54.32,1.13.62,1.72.92l.91.42c.31.14.61.28.93.4s.62.27.94.38l1,.35.94.33.93.3c.3.11.6.18.9.28l.44.14.43.12.83.24.78.21c.5.15,1,.26,1.37.37l.57.16.49.12.69.2.24.07H48.34l-.6,0c-.42,0-.91,0-1.43-.1l-.82-.09-.88-.12-.91-.16-1-.2-1-.25-1-.29-1-.34c-.33-.12-.66-.26-1-.39s-.66-.29-1-.43l-.95-.48c-.31-.18-.62-.34-.91-.53l-.43-.27c-.15-.09-.29-.2-.42-.29a13.59,13.59,0,0,1-1.53-1.21,12.77,12.77,0,0,1-1.21-1.25c-.16-.19-.3-.37-.43-.55l-2.29.09c.05-.55.1-1,.16-1.47L31,53.15Zm23,2.43a29.49,29.49,0,0,1,.36-3.12h2.74l.54,3.78C56.35,55.87,55.14,55.64,54,55.44ZM28.88,51.13s-.19,3.17-.39,6.35c0,.39,0,.79-.07,1.18l-.06,1.15c0,.37,0,.73-.06,1.07s0,.66,0,1c-.05,1.19-.09,2-.09,2l0-.55c0-.35,0-.85,0-1.44,0-.3,0-.63,0-1s0-.7,0-1.07c0-.75.06-1.54.1-2.34s.11-1.59.18-2.33.14-1.44.2-2,.13-1.08.18-1.43S28.88,51.13,28.88,51.13ZM27.14,62.88v.48l0-.48c0-.31,0-.75-.05-1.28,0-.26,0-.55,0-.85s0-.62,0-1,0-.67,0-1l0-1.06c0-.7.08-1.4.12-2.06s.1-1.28.15-1.8.09-1,.13-1.28l.05-.48s0,.71-.09,1.76c0,.53-.06,1.15-.09,1.8s-.07,1.37-.1,2.07c0,.35,0,.7,0,1.05s0,.69,0,1,0,.65,0,1v1.57C27.14,62.54,27.15,62.72,27.14,62.88ZM18.69,51.23,17.3,55.31l-2,.11A11.8,11.8,0,0,1,18.69,51.23ZM15.18,53.3c-.1.13-.18.25-.27.39l-.26.39c-.18.25-.34.53-.5.79s-.32.53-.47.78-.29.5-.41.74-.26.46-.37.67-.21.4-.3.57l-.23.44c-.14.24-.21.38-.21.38l.16-.4.2-.46a5.64,5.64,0,0,1,.26-.59q.15-.33.33-.69c.11-.25.25-.5.39-.76s.28-.54.45-.8.32-.54.5-.81l.27-.39a3.28,3.28,0,0,1,.27-.38c.19-.25.37-.5.57-.72s.18-.23.28-.34l.29-.3a3.7,3.7,0,0,1,.28-.28c.1-.09.19-.18.28-.25l.26-.22.25-.19.23-.15.19-.12a3.09,3.09,0,0,1,.4-.18l-.1,0-.27.17-.19.14-.2.16-.23.2-.25.24-.25.26a3.84,3.84,0,0,0-.27.29l-.27.31-.27.34C15.53,52.8,15.36,53.06,15.18,53.3Zm1.34,6.26c.05-.23.11-.57.21-1s.19-.87.33-1.36.27-1,.42-1.55.33-1,.49-1.53.34-.94.49-1.32.29-.69.39-.91l.17-.34-.14.35c-.08.23-.19.55-.33.93s-.28.85-.44,1.33-.32,1-.47,1.54-.31,1-.44,1.54l-.38,1.34c-.11.4-.2.73-.27,1s-.1.36-.1.36Zm3.06-7.75c.19-.46.36-.82.48-1.08l.2-.4-.15.42c-.1.26-.24.65-.4,1.11s-.36,1-.55,1.57l-.3.89-.3.92c-.2.62-.39,1.24-.57,1.83-.09.29-.18.57-.26.84s-.15.52-.22.75-.13.45-.19.64-.1.36-.14.5l-.13.43.08-.44c.06-.28.13-.68.25-1.16.05-.24.11-.5.18-.77s.14-.56.22-.85.17-.6.26-.91.19-.62.29-.93.2-.62.31-.92.21-.6.32-.89C19.17,52.79,19.39,52.26,19.58,51.81Zm-2.64,9,.47.15.62.18,1.55.44.88.24.91.23c.61.16,1.22.3,1.79.43l1.58.36,1.11.24.43.09-.44,0c-.27,0-.66-.08-1.13-.16s-1-.17-1.59-.28l-.89-.19-.92-.22c-.61-.15-1.22-.32-1.78-.5-.29-.08-.56-.17-.82-.26s-.5-.16-.72-.25c-.45-.16-.81-.31-1.07-.41l-.4-.17Zm1.91-5.57L20.29,51c2.39,0,5,.21,6.45.33a24.69,24.69,0,0,0-.35,3.55C24,55,21.52,55.09,18.85,55.23ZM8,64.64c.09.37.17.75.23,1.1s.09.69.12,1,0,.52,0,.69v.26l0-.26-.13-.68c-.05-.28-.12-.6-.19-1l-.12-.53c0-.19-.08-.37-.13-.55l-.15-.55c-.06-.17-.11-.35-.17-.51l-.18-.48c-.07-.14-.13-.28-.2-.41s-.13-.23-.19-.33l-.18-.23c0-.07-.1-.11-.13-.15l-.05,0,.05,0a1.1,1.1,0,0,1,.16.12l.22.22a2.79,2.79,0,0,1,.24.31c.08.12.16.26.24.41a4.12,4.12,0,0,1,.22.47c.06.17.13.34.19.53S8,64.45,8,64.64ZM29.7,94a14.54,14.54,0,0,1-1.12-3.64,15.25,15.25,0,0,1-.21-3.53,13,13,0,0,1,.53-3.13A10.27,10.27,0,0,1,30,81.21a7.54,7.54,0,0,1,1.26-1.62,5.27,5.27,0,0,1,1-.8,3.31,3.31,0,0,1,.3-.18l.1,0-.09.07a1.51,1.51,0,0,0-.28.2,6.86,6.86,0,0,0-.94.88,8.67,8.67,0,0,0-1.09,1.66,11.12,11.12,0,0,0-.86,2.43,14,14,0,0,0-.36,3,16.58,16.58,0,0,0,.33,3.37,14.48,14.48,0,0,0,1.14,3.4,10.35,10.35,0,0,0,2.09,3A6.82,6.82,0,0,0,34,97.66a5.22,5.22,0,0,0,1.62.64,4.17,4.17,0,0,0,.86.08c.14,0,.28,0,.42,0l.2,0,.19,0a3.67,3.67,0,0,0,1.44-.77,6.87,6.87,0,0,0,1.14-1.21A9.64,9.64,0,0,0,40.77,95a10.55,10.55,0,0,0,.63-1.43,11.18,11.18,0,0,0,.43-1.4,11.53,11.53,0,0,0,.26-1.33c.07-.43.11-.84.14-1.22a16.53,16.53,0,0,0,0-2c0-.55-.1-1-.15-1.29s-.07-.45-.07-.45,0,.15.12.44a11.67,11.67,0,0,1,.28,1.28,13.65,13.65,0,0,1,.19,2,13.5,13.5,0,0,1-.23,2.65,12.13,12.13,0,0,1-1,3,8.63,8.63,0,0,1-2.12,2.92,4.55,4.55,0,0,1-1.75,1l-.27.06-.25,0a4.41,4.41,0,0,1-.52,0,5,5,0,0,1-1-.09,6,6,0,0,1-1.91-.73A7.86,7.86,0,0,1,32,97.23,11.31,11.31,0,0,1,29.7,94Zm15.2,5a4,4,0,0,1-.79-.61,2.53,2.53,0,0,1-.58-.91,2.37,2.37,0,0,1-.1-1.12c0-.36.1-.72.14-1.07s.08-.69.1-1,0-.66,0-1,0-.31,0-.45,0-.29,0-.42-.07-.51-.1-.73-.06-.41-.09-.56c-.06-.31-.09-.49-.09-.49l.14.48c0,.15.08.34.13.55s.11.46.15.73,0,.28.06.42,0,.3,0,.45a8.06,8.06,0,0,1,0,1,9.5,9.5,0,0,1-.09,1c0,.35-.09.71-.13,1.07a2.14,2.14,0,0,0,.07,1,2.47,2.47,0,0,0,.52.85,4.9,4.9,0,0,0,1.48,1,9,9,0,0,0,1.22.47c.3.1.48.14.48.14L47,99.7c-.16,0-.35-.08-.56-.14s-.45-.15-.7-.25A7.35,7.35,0,0,1,44.9,98.91ZM115.56,88.8a15.63,15.63,0,0,1-1.8,1.52,28.69,28.69,0,0,1-3.1,1.93,41,41,0,0,1-4.31,2c-.8.33-1.65.65-2.53,1-.44.16-.9.3-1.36.46l-.7.22-.71.22c-1.9.57-3.93,1.12-6.06,1.58l-1.6.34-.82.17-.82.16-1.65.31L88.42,99c-2.26.35-4.55.68-6.85.92l-.86.1-.43,0-.43,0-1.72.16c-1.14.12-2.29.2-3.43.3s-2.25.17-3.37.23l-1.66.1-1.63.07c-2.17.09-4.27.14-6.25.13s-3.87-.08-5.61-.19-3.32-.28-4.71-.5a26.22,26.22,0,0,1-3.58-.78l-.69-.22c-.21-.07-.41-.14-.59-.22a9.56,9.56,0,0,1-.9-.44,3.84,3.84,0,0,1-.51-.35.8.8,0,0,1-.15-.15l.16.13a2.55,2.55,0,0,0,.53.31,10.73,10.73,0,0,0,2.21.72,32.85,32.85,0,0,0,3.57.55c1.4.14,3,.22,4.69.27s3.59,0,5.57,0,4-.16,6.2-.28,4.37-.32,6.63-.5c1.13-.11,2.26-.2,3.4-.32l1.72-.17.43,0,.42,0,.86-.1c2.29-.23,4.56-.54,6.8-.87s4.42-.72,6.53-1.14l1.57-.33L97.87,96c.5-.11,1-.24,1.49-.36l1.45-.38c1.9-.51,3.68-1.06,5.3-1.63s3.08-1.18,4.34-1.78a30.45,30.45,0,0,0,3.18-1.72,15.82,15.82,0,0,0,1.88-1.37,6.08,6.08,0,0,0,.6-.57A6.82,6.82,0,0,1,115.56,88.8Zm4.55-9.11.07-.13,0-.13c.07-.17.11-.32.15-.44s.06-.23.07-.3a.45.45,0,0,0,0-.11,2.1,2.1,0,0,1,0,.42,3.09,3.09,0,0,1,0,.5l0,.15,0,.15c0,.11,0,.22-.08.33l-.13.35a2.37,2.37,0,0,1-.17.36L120,81l-.12.18-.25.36-.31.35-.15.17-.18.15-.36.31c-.13.1-.26.18-.39.27s-.27.18-.41.25-.28.14-.41.21l-.42.2-.42.15a7.27,7.27,0,0,1-.8.25L115,84a3.77,3.77,0,0,1-.62.08l-.49,0-.42,0a4,4,0,0,1,.39-.16l.45-.17a5.92,5.92,0,0,0,.58-.21l.68-.27c.24-.08.47-.21.73-.32l.38-.17.38-.21.38-.2.36-.24c.12-.08.25-.15.36-.24l.33-.27.17-.13.15-.14.3-.28.25-.3.13-.15.11-.15c.07-.1.14-.19.2-.29L120,80A1.83,1.83,0,0,0,120.11,79.69Zm-.56-5.39.08.26c0,.11.05.23.08.37s.05.29.08.45a4.49,4.49,0,0,1,0,.55,4.14,4.14,0,0,1,0,.62,5.68,5.68,0,0,1-.06.69,4.9,4.9,0,0,1-.44,1.5,3,3,0,0,1-1.19,1.3,2.46,2.46,0,0,1-1.87.19,3.93,3.93,0,0,1-1.65-1,6.21,6.21,0,0,1-1.13-1.57l-.08-.17,0-.07c-.06-.12-.12-.24-.17-.36s-.1-.25-.14-.38l-.11-.34v-.07h0v0l0-.08-.06-.24a7.57,7.57,0,0,1-.21-1.73,6.27,6.27,0,0,1,.19-1.55,4.2,4.2,0,0,1,.51-1.21,2.9,2.9,0,0,1,.67-.77l.16-.12.15-.09.13-.07.11,0,.22-.08-.21.09-.11.06-.13.08-.14.09-.15.13a3,3,0,0,0-.62.77,4.35,4.35,0,0,0-.45,1.2,7,7,0,0,0-.15,1.17,4.74,4.74,0,0,1,.15-.57,3.2,3.2,0,0,1,.48-1,2.32,2.32,0,0,1,.6-.58l.08,0c-.07-.19-.12-.29-.12-.29a2.77,2.77,0,0,1,.15.27h0l.14-.07.11-.05.09,0,.18,0-.16.1-.08,0-.09.07-.1.09,0,0c0,.09.1.2.15.33a3.82,3.82,0,0,1,.23.53c.08.19.16.41.25.63l0,.08a9.72,9.72,0,0,1,1.07.07l-.07-.23c-.08-.23-.14-.45-.21-.64-.14-.4-.25-.73-.35-1s-.15-.35-.15-.35a3.48,3.48,0,0,1,.19.34c.06.11.12.24.19.4l.23.52c.08.2.16.41.24.64l.12.31a2.21,2.21,0,0,1,1,.36,1.5,1.5,0,0,1,.23.2l.07.06c0-.09-.06-.19-.08-.28-.14-.49-.27-1-.4-1.33-.06-.19-.12-.37-.18-.53s-.06-.17-.09-.24l0,0a2.2,2.2,0,0,0-.25-.17l-.13-.07-.14-.06a1.19,1.19,0,0,0-.26-.11c-.09,0-.18,0-.26-.08l-.25,0a1,1,0,0,0-.24,0l-.22,0h-.36l-.32,0,.3-.12a2.28,2.28,0,0,1,.36-.1,3.43,3.43,0,0,1,.5-.06h.29l.3,0,.32.08a1.79,1.79,0,0,1,.32.13,2.82,2.82,0,0,1,.62.37,4.27,4.27,0,0,1,.54.5,5.9,5.9,0,0,1,.44.58c.12.2.24.4.34.61a5.77,5.77,0,0,1,.25.59c.07.19.13.37.18.55a7.67,7.67,0,0,1,.17.83,2.6,2.6,0,0,1,0,.33l-.13-.3c-.09-.18-.21-.45-.36-.75s-.16-.32-.25-.5l-.31-.53c-.11-.18-.23-.36-.35-.54s-.27-.35-.41-.51a4.94,4.94,0,0,0-.47-.45l-.12-.1a.91.91,0,0,0,.07.14c.07.15.14.33.21.52s.15.39.23.61.16.46.23.7.16.5.23.76c0,.08,0,.17.07.26a2,2,0,0,1,.06.23l0,.08h0c0,.07,0,.14,0,.21.07.26.13.53.19.79s.11.52.16.77v0a5,5,0,0,0,.13-1c0-.15,0-.29,0-.41s0-.25,0-.36l0-.29,0-.22,0-.18.07.17.09.2c0,.08.06.18.09.28s.06.23.1.36.05.28.08.44,0,.32.05.5a5.62,5.62,0,0,1,0,.57,3.85,3.85,0,0,1-.29,1.22c.06.4.1.74.13,1l0,.18a3.11,3.11,0,0,0,.48-.68,4.66,4.66,0,0,0,.47-1.44,5.54,5.54,0,0,0,.08-.67c0-.22,0-.43,0-.62a4.63,4.63,0,0,0,0-.54c0-.16,0-.32-.06-.45s0-.26-.06-.37l-.07-.27,0-.22Zm-4.16-5.5A10.09,10.09,0,0,1,117,70,12,12,0,0,1,118,71l.3.36-.32-.34c-.21-.22-.52-.53-1-.9A11,11,0,0,0,115.3,69a13.24,13.24,0,0,0-2.41-1,25.68,25.68,0,0,0-3-.74l-.84-.14-.85-.13-1.76-.27-3.69-.55-3.82-.57L95.1,65c-1.26-.19-2.5-.38-3.69-.58S89.05,64,88,63.82l-3.09-.52c-1.91-.33-3.5-.61-4.61-.82l-1.75-.33.46,0,1.31.13c1.13.12,2.73.3,4.66.54,1,.11,2,.25,3.1.4s2.27.3,3.47.47,2.44.35,3.7.53,2.53.38,3.81.59l1.91.3,1.9.32c1.25.22,2.49.43,3.68.66l1.76.34.85.17.82.19a25.07,25.07,0,0,1,3,.85A13.55,13.55,0,0,1,115.39,68.8Zm-40.32-8,.23.37c0,.09.07.14.06.14s0-.05-.07-.13L75,60.86c-.23-.3-.56-.71-1-1.21L72.68,58,71.07,56l-1.62-1.91c-.52-.6-1-1.17-1.44-1.64s-.78-.88-1-1.15l-.4-.43.43.4c.27.26.66.62,1.11,1.08s1,1,1.5,1.6l1.65,1.89c.54.66,1.09,1.32,1.58,1.95s1,1.23,1.33,1.74S74.86,60.53,75.07,60.83ZM11.34,56.31l.37-.71c.14-.25.29-.5.45-.77s.33-.54.5-.81l.27-.42.28-.41c.19-.27.39-.53.58-.79l.6-.75c.2-.24.4-.46.6-.67s.38-.4.56-.57l.5-.45.41-.33.28-.19.1-.06a3.59,3.59,0,0,0-.36.28l-.39.35-.47.47a7.68,7.68,0,0,0-.54.58l-.58.68c-.19.25-.39.49-.58.75s-.39.53-.57.8l-.29.4-.27.41-.51.8c-.15.27-.32.52-.46.76l-.4.69c-.25.43-.44.8-.58,1l-.22.39.19-.41c.06-.13.14-.28.22-.47S11.22,56.53,11.34,56.31Zm-6.28.87c2.52-.17,4.76-.26,4.76-.26-4.41.43-1.54,1.69-1.54,1.69s-2.74-1.22-4-.93a5,5,0,0,0-2.33,1.51A3.43,3.43,0,0,1,5.06,57.18Z"></path><path class="cls-1" d="M115.28,74.46a1.56,1.56,0,0,1,.25-.43.93.93,0,0,1,.13-.15l0,0a1.2,1.2,0,0,0-.73-.44c.06.18.13.36.18.55Z"></path><path class="cls-1" d="M116.18,74.05l0-.07h0l-.12.07,0,0h0A.58.58,0,0,1,116.18,74.05Z"></path><path class="cls-1" d="M118.47,78.36a2.93,2.93,0,0,1-.33.51L118,79l-.15.14a2.5,2.5,0,0,1-.34.24v0l0,.39-.09-.38v0l-.07,0-.08,0-.08,0h-.07l-.06,0a2.05,2.05,0,0,1-.43.09,1.83,1.83,0,0,1-.33,0l0,.27-.07-.27h-.09a1.46,1.46,0,0,1-.22,0,.87.87,0,0,1-.22,0,3.09,3.09,0,0,1-.62-.25,3.46,3.46,0,0,0,1.19.65,2.4,2.4,0,0,0,.88.09,3.1,3.1,0,0,0,.42-.08l.06,0,0,0,.11,0a1.76,1.76,0,0,0,.2-.09,2.63,2.63,0,0,0,.61-.49l0-.2C118.61,79,118.54,78.69,118.47,78.36Z"></path><path class="cls-1" d="M117,77.35h-.07a1,1,0,0,1-.38,0,1.44,1.44,0,0,1-.47-.2l-.16-.13s0,.1,0,.14c.11.52.19,1,.26,1.42l0,.21a1.14,1.14,0,0,0,.36,0,2.19,2.19,0,0,0,.27,0h0l.08,0,.08,0,.07,0,.14-.08,0-.12q-.08-.31-.15-.66Z"></path><path class="cls-1" d="M13.68,62.21l1,.42,1.08.45c.73.3,1.5.58,2.27.9l2.36.9,2.36.87c.79.27,1.56.57,2.31.83l1.35.47c.14-.22.29-.43.43-.61l.13-.15L23.9,65.23c-1.26-.44-2.46-.86-3.55-1.26s-2.11-.77-3-1.11l-1.25-.48-1-.41c-.64-.25-1.13-.46-1.47-.6l-.41-.17c-.23.1-.49.22-.75.36l-.11.06.39.17Z"></path><path class="cls-1" d="M116.13,78.77c0-.06,0-.11,0-.17s-.09-.43-.15-.66-.11-.48-.17-.74l-.09-.41a15.22,15.22,0,0,1-1.3-1.89,4,4,0,0,0,.87,1,2.11,2.11,0,0,1-.1-.45,2.75,2.75,0,0,1,0-.64v0c-.07-.26-.14-.52-.22-.78l-.19-.64-.26,0h.25v0c-.07-.23-.14-.45-.21-.64-.12-.35-.22-.64-.31-.86l0,0a2.75,2.75,0,0,0-.41.63,3.58,3.58,0,0,0-.27.92,5.2,5.2,0,0,0,0,1.13,6.26,6.26,0,0,0,.23,1.24l0,.16,0,.08v0h0v0c0,.11.09.22.13.33l.13.3.15.3a4.81,4.81,0,0,0,.8,1.08,2.67,2.67,0,0,0,1.06.68Z"></path><path class="cls-1" d="M115.9,76.57a2.2,2.2,0,0,0,.33.4,1.49,1.49,0,0,0,.37.23.93.93,0,0,0,.34.08H117l0-.22-.12-.51a.05.05,0,0,1,0,0,.91.91,0,0,1-1.06-.44c0,.07,0,.14,0,.21Z"></path><path class="cls-1" d="M55.45,85.35a2.13,2.13,0,0,0,.53.43h0c0-.15-.09-.3-.14-.46l0-.09a1.69,1.69,0,0,1-.86-.67l.08.17A2.42,2.42,0,0,0,55.45,85.35Z"></path><path class="cls-1" d="M56.8,82.51l0-.07L56.56,82h0a1.76,1.76,0,0,0-.72.08.77.77,0,0,0-.16.07l-.18.1,0,0A1.38,1.38,0,0,1,56.8,82.51Z"></path><path class="cls-1" d="M55,82l-.08-.09a.61.61,0,0,1,.05.12Z"></path><path class="cls-1" d="M58.9,89a4.41,4.41,0,0,0,.58-.28.47.47,0,0,0,.12-.07l.12-.09.22-.17.21-.19a2,2,0,0,0,.2-.21l0,0-.09-.32-.14-.48c0-.18-.11-.39-.18-.61a1.22,1.22,0,0,1-.07.17,1.6,1.6,0,0,1-.1.23l-.12.22a4.27,4.27,0,0,1-.3.44A4.49,4.49,0,0,1,59,88l-.23.18h0c0,.2.06.37.08.52S58.89,88.94,58.9,89Z"></path><path class="cls-1" d="M58.29,88.52l0,0h0l0,0h0l-.14.06-.27.11-.28.07a2.82,2.82,0,0,1-.58.1,1.41,1.41,0,0,1-.29,0h-.3a3.72,3.72,0,0,1-.94-.18,5.08,5.08,0,0,0,1.77.52,3.74,3.74,0,0,0,1.7-.22c0-.08,0-.18-.07-.29s-.07-.29-.12-.46h0l-.06,0-.06,0-.2.12Z"></path><path class="cls-1" d="M56.09,85.29c.06.22.12.42.17.63l.26.08A2,2,0,0,0,57,86a1.68,1.68,0,0,0,.3,0l.11,0-.1,0a1.2,1.2,0,0,1-.29.12,1.91,1.91,0,0,1-.51,0l-.16,0v0l.2.87c0,.22.08.42.11.6a2.47,2.47,0,0,0,.61,0l.19,0,.18-.06.1,0h0s0,0,0,0h0l0,0,.05,0,.22-.11,0,0,0,0,.07,0,.14-.09.07-.07c0-.18-.1-.37-.16-.57s-.2-.64-.3-1-.22-.68-.34-1l-.12-.35a1.45,1.45,0,0,1-.2.55,1.17,1.17,0,0,1-.55.48A1.15,1.15,0,0,1,56.09,85.29Z"></path><path class="cls-1" d="M52.52,84.41l.1.19,0,.05v0h0l.06.11.12.21.12.2c.09.11.16.23.25.35l.28.36a5.82,5.82,0,0,0,1.35,1.18,4,4,0,0,0,1.61.58h.07c-.05-.18-.1-.36-.16-.56l-.23-.85s0-.09,0-.13l-.25-.08a3.37,3.37,0,0,1-.45-.25,13.3,13.3,0,0,1-2.26-2.37,5.28,5.28,0,0,0,1.33,1.17A1.92,1.92,0,0,1,54.3,84a2.47,2.47,0,0,1,.05-1,2.11,2.11,0,0,1,.37-.75c-.08-.2-.16-.38-.25-.57a4.55,4.55,0,0,0-1.24-.18l1.11-.09,0-.1c-.07-.15-.16-.3-.23-.44s-.14-.3-.22-.43-.3-.53-.45-.76-.29-.44-.41-.62L52.92,79a1.42,1.42,0,0,0-.2.22l-.14.17-.14.21c-.09.14-.16.31-.25.48a4.89,4.89,0,0,0-.29,1.25A5.62,5.62,0,0,0,52,82.81,7.15,7.15,0,0,0,52.52,84.41Z"></path><path class="cls-1" d="M117.28,75a1.58,1.58,0,0,1-.09,1.24,1,1,0,0,1-.18.22c0,.19.09.39.12.58s0,.16.05.24h.07l-.07,0c.08.42.15.81.21,1.16v.06l.07-.06.1-.09a2.18,2.18,0,0,0,.35-.45,3.71,3.71,0,0,0,.3-.68l-.09-.38c0-.25-.11-.5-.17-.76s-.12-.53-.19-.79-.13-.52-.2-.78v0a2,2,0,0,0-.33-.31,1.37,1.37,0,0,0-.45-.23.82.82,0,0,0-.44,0l0,.14A1.31,1.31,0,0,1,117.28,75Z"></path><path class="cls-1" d="M12.33,32.91l-2.18-1.55.71-1c.85-1.2.9-2.42-.26-3.25s-2.2-.34-3.07.88L6.32,29.7l5.51,3.92ZM7.39,29.39l.64-.9c.67-.95,1.27-1.24,2.07-.67s.81,1.27.12,2.23l-.64.9Z"></path><path class="cls-1" d="M17.77,26.08l-2.06-2,.84-.88,3.19.8.68-.71-3.32-.79a1.87,1.87,0,0,0-.34-2.43c-1-1-2.05-.59-3,.4L12.29,22l4.88,4.68Zm-4.38-4.21.78-.82c.73-.76,1.36-.95,2-.34S16.71,22,16,22.79l-.79.82Z"></path><polygon class="cls-1" points="26.64 18.14 26.19 17.56 23.73 19.49 22.21 17.56 24.22 15.98 23.77 15.41 21.76 16.99 20.45 15.32 22.83 13.45 22.39 12.88 19.32 15.28 23.5 20.61 26.64 18.14"></polygon><path class="cls-1" d="M30.82,15.37,29,12.12c-.29-.52-.74-1.19-1.07-1.69l0,0,1.2,1.05L32,13.91l.43-.25-.59-3.72L31.6,8.37l0,0c.25.54.58,1.28.87,1.8l1.83,3.24.71-.39L31.74,7.1l-.88.49.64,3.8.26,1.44,0,0-1.09-1L27.71,9.36l-.89.5,3.31,5.89Z"></path><rect class="cls-1" x="38.05" y="4.44" width="0.87" height="6.76" transform="translate(-0.17 14.78) rotate(-21.69)"></rect><path class="cls-1" d="M46.9,8.76c1.34-.34,2.18-1.33,1.63-3.43l-1-3.85-.8.21,1,3.86c.4,1.58-.16,2.26-1,2.48s-1.65-.11-2.06-1.69l-1-3.86-.84.21,1,3.85C44.36,8.65,45.56,9.1,46.9,8.76Z"></path><path class="cls-1" d="M54.53,7.16,54.2,3.45c-.05-.59-.18-1.39-.27-2h0l.66,1.45,1.6,3.41.5,0,1-3.63.41-1.55h0c0,.6,0,1.41.06,2l.32,3.71.81-.07L58.76,0l-1,.09-1,3.73-.35,1.41h0L55.78,3.9,54.16.4l-1,.09.59,6.74Z"></path><path class="cls-1" d="M71,7.54a2.59,2.59,0,0,0,2.21,2,3.23,3.23,0,0,0,1,0l-.06-.69a2.5,2.5,0,0,1-.72,0,1.77,1.77,0,0,1-1.5-1.14c1.46,0,2.61-1.15,2.92-3.07C75.21,2.48,74.23,1,72.55.72s-3,.83-3.4,3C68.83,5.65,69.6,7.1,71,7.54ZM70,3.83c.26-1.66,1.21-2.56,2.4-2.37s1.81,1.35,1.55,3S72.75,7.09,71.56,6.9,69.76,5.5,70,3.83Z"></path><path class="cls-1" d="M80.67,9.9c1.31.43,2.54.06,3.23-2l1.25-3.77-.79-.26L83.11,7.65c-.51,1.55-1.35,1.81-2.2,1.53s-1.33-1-.82-2.53l1.26-3.78-.82-.28L79.28,6.36C78.59,8.43,79.36,9.46,80.67,9.9Z"></path><path class="cls-1" d="M88.58,10.72l2.2,1.11L90.43,14l.81.41,1-7.07-.86-.44-5.09,5,.78.4Zm1.26-1.29c.55-.57,1.08-1.14,1.62-1.74l0,0c-.16.8-.3,1.56-.42,2.34l-.18,1.06-1.82-.91Z"></path><polygon class="cls-1" points="98 17.91 95.57 16.24 98.98 11.27 98.27 10.78 94.44 16.35 97.58 18.51 98 17.91"></polygon><rect class="cls-1" x="99.88" y="18.36" width="6.76" height="0.87" transform="translate(21.45 84.55) rotate(-49.1)"></rect><polygon class="cls-1" points="105.75 25.89 106.33 26.52 110.79 22.44 112.17 23.95 112.71 23.46 109.36 19.81 108.82 20.29 110.21 21.81 105.75 25.89"></polygon><path class="cls-1" d="M111.22,32.71l2.15-1.51,4.56-.71-.51-.72-2.06.37c-.53.12-1,.19-1.6.3l0,0c.28-.48.55-.92.83-1.38l1.06-1.81-.53-.76-2.22,4.05L110.73,32Z"></path><path class="cls-1" d="M17.63,31.89c-1,1.08-1.74,2-2.23,2.58s-.75,1-.75,1,.28-.32.82-.89,1.34-1.39,2.4-2.4,2.38-2.19,3.95-3.49,3.38-2.7,5.43-4.12a75.56,75.56,0,0,1,6.87-4.19c1.26-.67,2.57-1.32,3.93-1.93s2.78-1.19,4.23-1.72,3-1,4.5-1.43c.77-.19,1.54-.41,2.33-.57l1.18-.26,1.2-.22a48.7,48.7,0,0,1,4.85-.63c1.64-.15,3.29-.17,4.93-.16A53.81,53.81,0,0,1,71,14.49a59.17,59.17,0,0,1,9.15,2.71A68.49,68.49,0,0,1,88.31,21l.48.25.46.26.91.52.89.51.87.53c.57.36,1.14.69,1.69,1l1.6,1.05c.26.18.52.34.77.52l.74.52,1.44,1c.92.67,1.78,1.33,2.6,1.93L103,30.86c.69.55,1.31,1.08,1.87,1.55,1.13.93,2,1.7,2.58,2.22l.91.79-.85-.86-1-1c-.2-.21-.41-.43-.65-.66l-.75-.71c-.54-.51-1.12-1.08-1.77-1.67l-2.15-1.91c-.79-.65-1.62-1.36-2.51-2.08-.46-.35-.92-.72-1.4-1.08-.24-.19-.48-.38-.73-.56s-.5-.37-.76-.56a73.55,73.55,0,0,0-6.83-4.47,61.94,61.94,0,0,0-8.2-4c-.37-.16-.74-.3-1.12-.44l-1.13-.42c-.37-.15-.76-.27-1.15-.4l-1.16-.39c-.78-.25-1.58-.46-2.37-.69l-2.43-.58A54.54,54.54,0,0,0,61.3,11.69c-1.7,0-3.41,0-5.1.2a49,49,0,0,0-5,.68c-1.65.29-3.26.7-4.84,1.14s-3.11,1-4.6,1.55-2.92,1.18-4.29,1.86-2.7,1.37-4,2.09S31,20.69,29.9,21.44,27.69,23,26.68,23.72c-2,1.52-3.79,3-5.3,4.42S18.63,30.81,17.63,31.89Z"></path></g></g></svg>